<svg xmlns="http://www.w3.org/2000/svg" width="127.955" height="159.084" viewBox="0 0 127.955 159.084">
  <g id="Group_650" data-name="Group 650" transform="translate(-418.523 -3085.167)">
    <g id="baby" transform="translate(418.523 3091.165)">
      <path id="Path_3032" data-name="Path 3032" d="M19.126,158.914c.261,4.282.923,8.674,1.566,12.92,1.43,9.468,2.907,19.264-1.184,23.057-.827.765-2.242,1.647-5.859,1.647-3.687,0-8.487-.941-13.567-1.933-6.9-1.349-14.717-2.878-23.131-2.878-8.141,0-15.794,3.576-22.131,10.339a46.656,46.656,0,0,0-3.466,4.194,8.27,8.27,0,0,1-2.922-4.032,8.362,8.362,0,0,1,5.282-10.582l16.261-5.429s4.878-2.363,13.059-.948S-1.77,187.9-1.77,187.9c.151.026.29.066.437.1L3.1,171.712l-14.033,2.793a8.512,8.512,0,0,1-1.636.162,8.36,8.36,0,0,1-6.256-2.815l-13.1-14.776a8.363,8.363,0,0,1,.709-11.806,8.36,8.36,0,0,1,11.806.709l9.92,11.185,24.274-4.833A14.933,14.933,0,0,1,18.7,151.4C18.821,153.922,18.972,156.429,19.126,158.914Z" transform="translate(52 -104.132)" fill="#3a8ec9"/>
      <path id="Path_3033" data-name="Path 3033" d="M-12.918,134.532c-4.753,6.877-7.517,15.342-8.45,25.872a122.95,122.95,0,0,0-.309,14.328A21.562,21.562,0,0,1-36.986,154.1a21.56,21.56,0,0,1,21.561-21.561,21.53,21.53,0,0,1,3.7.327C-12.124,133.408-12.525,133.959-12.918,134.532Z" transform="translate(92.171 -132.544)" fill="#3a8ec9"/>
    </g>
    <path id="Path_3034" data-name="Path 3034" d="M-48.515,172.538v8.847a4.147,4.147,0,0,0,4.15,4.15H32.227a4.15,4.15,0,0,0,4.15-4.15V169.954H-48.515Z" transform="translate(479.846 3058.715)" fill="#fff"/>
    <path id="Path_3035" data-name="Path 3035" d="M49.284,263.068,75.55,142.755a5.3,5.3,0,0,0-1.621-5.058c-.305-.276-7.616-6.785-17.713-6.785-6.293,0-15.577,2.584-24.086,14.9-9.2,13.306-8.094,31.371-7.028,48.841.915,14.985,7.292,32.709-1.614,40.961s-26.6-1.489-46.82-1.489-28.6,27.6-28.563,28.155a5.293,5.293,0,0,0,5.286,4.947H44.113A5.294,5.294,0,0,0,49.284,263.068Z" transform="translate(470.805 2954.254)" fill="#fff"/>
  </g>
</svg>
