<?xml version="1.0" encoding="utf-8"?>
<!-- Generator: Adobe Illustrator 25.0.0, SVG Export Plug-In . SVG Version: 6.00 Build 0)  -->
<svg version="1.1" id="Layer_1" xmlns="http://www.w3.org/2000/svg" xmlns:xlink="http://www.w3.org/1999/xlink" x="0px" y="0px"
	 viewBox="0 0 1014 345" style="enable-background:new 0 0 1014 345;" xml:space="preserve">
<style type="text/css">
	.st0{fill:#F3FAFF;}
</style>
<path class="st0" d="M1002.9,341c0.1-2.8,0.5-5.5,0.5-8.5c0-86.8-70.4-157.2-157.2-157.2c-23.9,0-46.4,5.5-66.7,15
	c0.4-5,0.8-10,0.8-15c0-95.2-77.2-172.4-172.4-172.4c-71,0-131.8,42.9-158.3,104.1c-18.3-8.1-38.5-12.8-59.8-12.8
	c-68.4,0-125.8,46.8-142.2,110.2c-22.6-12-48.4-18.9-75.9-18.9C84.3,185.5,13.3,254.5,9.7,341H1002.9z"/>
</svg>
