<?xml version="1.0" encoding="utf-8"?>
<!-- Generator: Adobe Illustrator 25.2.1, SVG Export Plug-In . SVG Version: 6.00 Build 0)  -->
<svg version="1.1" id="Layer_1" xmlns="http://www.w3.org/2000/svg" xmlns:xlink="http://www.w3.org/1999/xlink" x="0px" y="0px"
	 width="856px" height="1222px" viewBox="0 0 856 1222" style="enable-background:new 0 0 856 1222;" xml:space="preserve">
<style type="text/css">
	.st0{fill:#E6F3FB;}
	.st1{fill:none;stroke:#1B87D2;}
</style>
<g id="blog-left" transform="translate(395.553 -946.591)">
	<g id="Group_4" transform="translate(94.147 3130.152) rotate(-109)">
		<path id="Path_1-2" class="st0" d="M1873.8,127.3c45.8,53.2,93.5,109.9,116.9,192c23.5,82.1,12.2,196.7-38.6,236.5
			c-55.8,43.7-118.8-20.3-176.5-57c-85.4-54.5-185.6-47.3-267.6,19.2c-84.9,68.8-149.1,195.7-238.8,247.2
			c-76.3,43.9-167.6,23.1-228.5-62.1c-60.9-85.2-85.1-234.6-51.2-351.8c27-93.3,84.9-156.5,146.3-188s126.8-35.5,191.3-39.2"/>
	</g>
	<g id="Group_5" transform="translate(94.147 3097.026) rotate(-109)">
		<path id="Path_1-2-2" class="st1" d="M1873.8,127.3c45.8,53.2,93.5,109.9,116.9,192c23.5,82.1,12.2,196.7-38.6,236.5
			c-55.8,43.7-118.8-20.3-176.5-57c-85.4-54.5-185.6-47.3-267.6,19.2c-84.9,68.8-149.1,195.7-238.8,247.2
			c-76.3,43.9-167.6,23.1-228.5-62.1c-60.9-85.2-85.1-234.6-51.2-351.8c27-93.3,84.9-156.5,146.3-188s126.8-35.5,191.3-39.2"/>
	</g>
</g>
</svg>
