<svg xmlns="http://www.w3.org/2000/svg" width="405.5" height="967.384" viewBox="0 0 405.5 967.384">
  <g id="Group_570" data-name="Group 570" transform="translate(0 -9.844)">
    <g id="Group_568" data-name="Group 568">
      <path id="Path_3077" data-name="Path 3077" d="M287.992,42.9c-33.274,14.811-53.75,35.208-152.748,162.247C61.92,299.239,24.734,346.51,18.372,364.56-20.757,475.57,10.952,573,36.492,651.5c21.738,66.8,51.943,159.614,139.87,232.768,74.32,61.841,151.592,77.764,228.638,92.957V34.561C338.726,28.708,316.651,30.15,287.992,42.9Z" fill="#d4e9f4"/>
    </g>
    <g id="Group_569" data-name="Group 569">
      <path id="Path_3078" data-name="Path 3078" d="M297.762,21.909c-33.274,14.812-53.75,35.209-152.748,162.248C71.69,278.252,34.5,325.523,28.142,343.573c-39.129,111.009-7.42,208.443,18.12,286.943C68,697.321,98.206,790.13,186.132,863.284,257.311,922.511,331.2,939.619,405,954.307V12.739C346.234,7.9,324.965,9.811,297.762,21.909Z" fill="none" stroke="#0c4589" stroke-width="1"/>
    </g>
  </g>
</svg>
