<svg xmlns="http://www.w3.org/2000/svg" width="735" height="884.603" viewBox="0 0 735 884.603">
  <g id="Group_567" data-name="Group 567" transform="translate(0 -0.527)">
    <g id="Group_565" data-name="Group 565">
      <path id="Path_3074" data-name="Path 3074" d="M697.431,373.275c-37.243-72.39-107.536-124.9-133.07-143.649-61.282-44.989-122.61-72.734-328.345-146.054C138.862,48.947,62.789,21.837,0,.527V863.182q18.179,2.339,35.617,4.5c108.129,13.51,258.331,32.282,384.934-1.937C529.17,836.382,563.6,783.368,597.891,730.548c6.947-10.71,8.648-16.37,15.486-30.306C665.055,594.809,691.62,585.3,708.319,533.978,718.039,504.1,736.138,448.495,697.431,373.275Z" fill="#dff1fa"/>
    </g>
    <g id="Group_566" data-name="Group 566">
      <path id="Path_3075" data-name="Path 3075" d="M136.953,804.861c55.118,6.888,122.039,15.249,190.032,15.25,49.3,0,99.145-4.391,145.513-16.924,42.427-11.468,75.62-28.214,101.475-51.194,23.049-20.486,38.249-43.9,52.948-66.54a115.981,115.981,0,0,0,8.939-16.78c1.258-2.729,2.684-5.823,4.541-9.61,23.232-47.39,40.326-72.1,54.062-91.959,12.577-18.182,21.664-31.318,28.706-52.958,8.462-26.009,24.207-74.4-9.471-139.859C680.6,309.964,618.26,264.2,597.774,249.159c-53.836-39.523-110-64.507-286.2-127.3C163.967,69.252,72.009,36.481,0,15.76V784.927C48.956,793.859,94.911,799.606,136.953,804.861Z" fill="none"/>
      <path id="Path_3076" data-name="Path 3076" d="M714.3,373.979c-33.166-64.464-95.606-110.3-116.124-125.364-53.9-39.569-110.1-64.571-286.368-127.391C164.057,68.568,72.058,35.783,0,15.059v.7c72.009,20.721,163.967,53.492,311.577,106.1,176.192,62.793,232.361,87.777,286.2,127.3C618.26,264.2,680.6,309.964,713.7,374.287c33.678,65.455,17.933,113.85,9.471,139.859-7.042,21.64-16.129,34.776-28.706,52.958-13.736,19.857-30.83,44.569-54.062,91.959-1.857,3.787-3.283,6.881-4.541,9.61a115.981,115.981,0,0,1-8.939,16.78c-14.7,22.642-29.9,46.054-52.948,66.54-25.855,22.98-59.048,39.726-101.475,51.194-46.368,12.533-96.218,16.926-145.513,16.924-67.993,0-134.914-8.362-190.032-15.25-42.042-5.255-88-11-136.953-19.934v.684c48.937,8.924,94.879,14.67,136.922,19.924,55.113,6.888,122.025,15.251,190.058,15.25,49.335,0,99.265-4.4,145.694-16.948,42.529-11.5,75.812-28.289,101.747-51.34,23.117-20.546,38.342-44,53.065-66.677a116.532,116.532,0,0,0,8.986-16.865c1.256-2.725,2.68-5.815,4.534-9.6,23.21-47.345,40.288-72.035,54.011-91.873,12.609-18.228,21.72-31.4,28.8-53.142C732.3,488.252,748.1,439.683,714.3,373.979Z" fill="#deeaf7"/>
    </g>
  </g>
</svg>
