<svg xmlns="http://www.w3.org/2000/svg" width="165.339" height="125.374" viewBox="0 0 165.339 125.374">
  <g id="Group_652" data-name="Group 652" transform="translate(-244.268 -769.974)">
    <g id="Group_647" data-name="Group 647" transform="translate(0 8.914)">
      <g id="Group_421" data-name="Group 421" transform="translate(269.173 798.539)">
        <g id="Group_420" data-name="Group 420" transform="translate(0 0)">
          <g id="Group_419" data-name="Group 419">
            <g id="Group_418" data-name="Group 418">
              <g id="Group_417" data-name="Group 417">
                <g id="Group_416" data-name="Group 416">
                  <g id="Group_415" data-name="Group 415">
                    <g id="Group_414" data-name="Group 414">
                      <path id="Path_2954" data-name="Path 2954" d="M-5916.293,1927.081a6.509,6.509,0,0,0-6.44-6.166H-6050.22a6.427,6.427,0,0,0-4.238,1.625h0a.066.066,0,0,1-.019.018.478.478,0,0,0-.068.057h.012a6.636,6.636,0,0,0-1.568,2.111,1.874,1.874,0,0,0-.066.2,6.155,6.155,0,0,0-.371,1.075,6.2,6.2,0,0,0-.119,1.077h0c0,.106-.038.2-.038.307v74.953a6.387,6.387,0,0,0,2.172,4.755l-.024.016c.052.046.105.081.165.128.016.016.03.041.05.051h.011a6.359,6.359,0,0,0,4.1,1.528h127.487a5.952,5.952,0,0,0,1.247-.127,6.452,6.452,0,0,0,.814-.241c.105-.036.217-.057.317-.1a7.186,7.186,0,0,0,1-.512.041.041,0,0,1,.024-.013,6.474,6.474,0,0,0,3.068-5.478v-75.285Z" transform="translate(6056.695 -1920.915)" fill="#006cb4"/>
                    </g>
                  </g>
                </g>
              </g>
            </g>
          </g>
        </g>
      </g>
      <g id="Group_428" data-name="Group 428" transform="translate(269.171 852.708)">
        <g id="Group_427" data-name="Group 427" transform="translate(0 0)">
          <g id="Group_426" data-name="Group 426">
            <g id="Group_425" data-name="Group 425">
              <g id="Group_424" data-name="Group 424">
                <g id="Group_423" data-name="Group 423">
                  <g id="Group_422" data-name="Group 422">
                    <rect id="Rectangle_8" data-name="Rectangle 8" width="140.436" height="18.2" fill="#332f2f"/>
                  </g>
                </g>
              </g>
            </g>
          </g>
        </g>
      </g>
      <g id="Group_435" data-name="Group 435" transform="translate(269.173 798.539)">
        <g id="Group_434" data-name="Group 434" transform="translate(0 0)">
          <g id="Group_433" data-name="Group 433">
            <g id="Group_432" data-name="Group 432">
              <g id="Group_431" data-name="Group 431">
                <g id="Group_430" data-name="Group 430">
                  <g id="Group_429" data-name="Group 429">
                    <path id="Path_2955" data-name="Path 2955" d="M-5917.941,1956.519l-12.3-35.6H-6050.22a6.427,6.427,0,0,0-4.238,1.625h0a.066.066,0,0,1-.019.018.478.478,0,0,0-.068.057h.012a6.636,6.636,0,0,0-1.568,2.111,1.874,1.874,0,0,0-.066.2,6.155,6.155,0,0,0-.371,1.075,6.2,6.2,0,0,0-.119,1.077c0,.106-.038.2-.038.307v74.953a6.387,6.387,0,0,0,2.172,4.755l-.024.016c.052.046.105.081.165.128.016.016.03.041.05.051h.011a6.359,6.359,0,0,0,4.1,1.528h20.5l103.8-35.84a12.235,12.235,0,0,0,2.245-1.038,10.151,10.151,0,0,0,1.225-.842l.435-.313s.611-.537.782-.7l.208-.111,1.074-1.333A12.862,12.862,0,0,0-5917.941,1956.519Z" transform="translate(6056.695 -1920.915)" fill="#00466d"/>
                  </g>
                </g>
              </g>
            </g>
          </g>
        </g>
      </g>
      <g id="Group_443" data-name="Group 443" transform="translate(244.268 761.06)">
        <g id="Group_442" data-name="Group 442" transform="translate(0 0)">
          <g id="Group_441" data-name="Group 441">
            <g id="Group_440" data-name="Group 440">
              <g id="Group_439" data-name="Group 439">
                <g id="Group_438" data-name="Group 438">
                  <g id="Group_437" data-name="Group 437">
                    <g id="Group_436" data-name="Group 436">
                      <path id="Path_2956" data-name="Path 2956" d="M-6077.676,1693.349a6.454,6.454,0,0,0-3.45-3.536,6.406,6.406,0,0,0-4.65-.19h-.013l-120.482,41.6h-.014a6.422,6.422,0,0,0-3.477,2.925h0a.049.049,0,0,0-.011.025c-.018.027-.041.052-.052.074h.019a6.493,6.493,0,0,0-.792,2.511,1.652,1.652,0,0,0,0,.209,6.907,6.907,0,0,0,0,1.128,6.05,6.05,0,0,0,.235,1.056h0c.028.1.032.2.066.306l24.462,70.844a6.4,6.4,0,0,0,3.611,3.791l-.02.022c.064.029.127.041.2.065a.562.562,0,0,1,.067.036l.013-.014a6.36,6.36,0,0,0,4.366.111l120.509-41.61a6.142,6.142,0,0,0,1.133-.532,5.99,5.99,0,0,0,.692-.5,2.271,2.271,0,0,0,.269-.2,6.34,6.34,0,0,0,.782-.814.063.063,0,0,1,.019-.016,6.452,6.452,0,0,0,1.106-6.179l-24.451-70.845-.109-.313Z" transform="translate(6210.623 -1689.275)" fill="#0d2a57"/>
                    </g>
                  </g>
                </g>
              </g>
            </g>
          </g>
        </g>
      </g>
      <g id="Group_450" data-name="Group 450" transform="translate(342.11 774.839)">
        <g id="Group_449" data-name="Group 449" transform="translate(0 0)">
          <g id="Group_448" data-name="Group 448">
            <g id="Group_447" data-name="Group 447">
              <g id="Group_446" data-name="Group 446">
                <g id="Group_445" data-name="Group 445">
                  <g id="Group_444" data-name="Group 444">
                    <path id="Path_2957" data-name="Path 2957" d="M-5574.287,1790.884a3.25,3.25,0,0,1-2,4.12l-20.394,7.036a3.241,3.241,0,0,1-4.116-2l-4.924-14.273a3.249,3.249,0,0,1,2-4.12l20.389-7.037a3.242,3.242,0,0,1,4.111,2Z" transform="translate(5605.898 -1774.434)" fill="#dff1fa"/>
                  </g>
                </g>
              </g>
            </g>
          </g>
        </g>
      </g>
      <g id="Group_457" data-name="Group 457" transform="translate(288.735 799.796)">
        <g id="Group_456" data-name="Group 456" transform="translate(0 0)">
          <g id="Group_455" data-name="Group 455">
            <g id="Group_454" data-name="Group 454">
              <g id="Group_453" data-name="Group 453">
                <g id="Group_452" data-name="Group 452">
                  <g id="Group_451" data-name="Group 451">
                    <path id="Path_2958" data-name="Path 2958" d="M-5956.048,1938.363a14.368,14.368,0,0,1-8.888,18.271,14.367,14.367,0,0,1-18.271-8.889,14.366,14.366,0,0,1,8.888-18.271h0A14.368,14.368,0,0,1-5956.048,1938.363Z" transform="translate(5983.998 -1928.684)" fill="#4db9e2"/>
                  </g>
                </g>
              </g>
            </g>
          </g>
        </g>
      </g>
      <g id="Group_482" data-name="Group 482" transform="translate(274.683 824.758)">
        <g id="Group_463" data-name="Group 463" transform="translate(0 31.241)">
          <g id="Group_462" data-name="Group 462">
            <g id="Group_461" data-name="Group 461">
              <g id="Group_460" data-name="Group 460">
                <g id="Group_459" data-name="Group 459">
                  <g id="Group_458" data-name="Group 458">
                    <path id="Path_2959" data-name="Path 2959" d="M-5999.278,2285.4l-20.129,6.951-3.233-9.353,20.129-6.951Z" transform="translate(6022.64 -2276.051)" fill="#dddddc"/>
                  </g>
                </g>
              </g>
            </g>
          </g>
        </g>
        <g id="Group_469" data-name="Group 469" transform="translate(30.162 20.825)">
          <g id="Group_468" data-name="Group 468" transform="translate(0 0)">
            <g id="Group_467" data-name="Group 467" transform="translate(0 0)">
              <g id="Group_466" data-name="Group 466" transform="translate(0)">
                <g id="Group_465" data-name="Group 465" transform="translate(0)">
                  <g id="Group_464" data-name="Group 464">
                    <rect id="Rectangle_9" data-name="Rectangle 9" width="21.288" height="9.894" transform="matrix(0.945, -0.326, 0.326, 0.945, 0, 6.95)" fill="#dddddc"/>
                  </g>
                </g>
              </g>
            </g>
          </g>
        </g>
        <g id="Group_475" data-name="Group 475" transform="translate(60.317 10.409)">
          <g id="Group_474" data-name="Group 474">
            <g id="Group_473" data-name="Group 473">
              <g id="Group_472" data-name="Group 472">
                <g id="Group_471" data-name="Group 471">
                  <g id="Group_470" data-name="Group 470">
                    <path id="Path_2960" data-name="Path 2960" d="M-5626.491,2156.651l-20.12,6.95-3.232-9.352,20.13-6.951Z" transform="translate(5649.843 -2147.299)" fill="#dddddc"/>
                  </g>
                </g>
              </g>
            </g>
          </g>
        </g>
        <g id="Group_481" data-name="Group 481" transform="translate(90.473 0)">
          <g id="Group_480" data-name="Group 480" transform="translate(0 0)">
            <g id="Group_479" data-name="Group 479" transform="translate(0)">
              <g id="Group_478" data-name="Group 478" transform="translate(0)">
                <g id="Group_477" data-name="Group 477">
                  <g id="Group_476" data-name="Group 476">
                    <rect id="Rectangle_10" data-name="Rectangle 10" width="21.289" height="9.894" transform="translate(0 6.951) rotate(-19.057)" fill="#dddddc"/>
                  </g>
                </g>
              </g>
            </g>
          </g>
        </g>
      </g>
    </g>
  </g>
</svg>
