<svg xmlns="http://www.w3.org/2000/svg" width="165.218" height="177.148" viewBox="0 0 165.218 177.148">
  <g id="Group_651" data-name="Group 651" transform="translate(-905.431 -3073.537)">
    <path id="Path_3039" data-name="Path 3039" d="M-287.24,127.69a49.054,49.054,0,0,0-49.069,49.069,49.067,49.067,0,0,0,49.069,49.07,49.08,49.08,0,0,0,49.07-49.07A49.067,49.067,0,0,0-287.24,127.69Zm-15.748,86.226a40.37,40.37,0,0,1-22.66-24.787c-.961-2.987-.48-4.291,2.943-4.542l8.647-.638a4.2,4.2,0,0,1,4.223,1.962c8.627,12.075,9.471,11.138,12.03,25.905C-297.28,214.852-301.184,214.691-302.989,213.916ZM-315.4,168.088c-3.654,1.849-13.011,6.6-10.888-1.574a40.374,40.374,0,0,1,39.05-30.1,40.363,40.363,0,0,1,39.025,30.1c2.148,8.171-7.234,3.423-10.863,1.574-7.186-3.653-17.161-5.91-28.162-5.91C-298.265,162.178-308.213,164.435-315.4,168.088Zm66.574,21.041a40.511,40.511,0,0,1-22.664,24.787c-1.825.775-5.729.937-5.2-2.1,2.58-14.767,3.423-13.831,12.05-25.905a4.181,4.181,0,0,1,4.2-1.962l8.675.638C-248.372,184.837-247.872,186.141-248.829,189.129Z" transform="translate(1308.82 3024.856)" fill="#3a8ec9"/>
    <path id="Path_3040" data-name="Path 3040" d="M-311.965,166.656l-16.16,6.827a18.775,18.775,0,0,0-8.716,7.779c.8.343,1.688.686,2.1.848l16.136,6.822a20.722,20.722,0,0,1,3.1,1.6,54.377,54.377,0,0,1,29.874-8.881A54.348,54.348,0,0,1-247.285,197.4a9.951,9.951,0,0,0,.161-3.217l-.892-8.034c-.618-5.43-5.341-10.545-10.363-12.664l-16.156-6.827c-4.291-1.825-6.758-2.418-6.483-7.759,1.118-1.667,2.624-6,3.605-10.157h.048c1.207.275,2.806-2.237,3.561-5.591.731-3.33.363-6.253-.824-6.572.3-1.687.5-3.286.662-4.792a28.021,28.021,0,0,0-.275-9.77c-3.561-12.825-27.774-21-34-5.224-1.6.182-3.31,2.943-3.928,4.949-.706,2.329-.819,5.753-.363,10.044.157,1.506.363,3.1.662,4.792-1.187.319-1.554,3.242-.823,6.572.755,3.355,2.349,5.866,3.561,5.591h.044c.985,4.154,2.491,8.49,3.609,10.157C-305.211,164.238-307.674,164.831-311.965,166.656Z" transform="translate(1307.207 2965.418)" fill="#fff"/>
    <path id="Path_3041" data-name="Path 3041" d="M-347.149,206.487h57.721a54.273,54.273,0,0,1,17.916-27.774c-.137-.044-.25-.113-.367-.161l-16.156-6.822c-4.291-1.8-6.758-2.418-6.483-7.739,1.118-1.687,2.624-6.023,3.6-10.177h.049c1.207.274,2.806-2.236,3.557-5.591.731-3.331.367-6.253-.82-6.572.295-1.692.5-3.286.662-4.772.432-4.13.363-7.464-.274-9.765-3.561-12.829-27.774-21.021-34.008-5.252-1.595.182-3.306,2.947-3.924,4.953-.707,2.329-.82,5.753-.363,10.064.157,1.486.363,3.08.662,4.772-1.187.319-1.554,3.242-.8,6.572.731,3.355,2.325,5.866,3.536,5.591h.044c.981,4.154,2.491,8.49,3.609,10.177.271,5.321-2.192,5.934-6.483,7.739l-16.16,6.822c-5.018,2.123-9.745,7.234-10.339,12.668l-.888,8.034C-353.309,203.338-351.666,206.487-347.149,206.487Z" transform="translate(1258.357 2980.842)" fill="#fff"/>
  </g>
</svg>
