<?xml version="1.0" encoding="utf-8"?>
<!-- Generator: Adobe Illustrator 25.2.1, SVG Export Plug-In . SVG Version: 6.00 Build 0)  -->
<svg version="1.1" id="Layer_1" xmlns="http://www.w3.org/2000/svg" xmlns:xlink="http://www.w3.org/1999/xlink" x="0px" y="0px"
	 width="701.4px" height="1324.4px" viewBox="0 0 701.4 1324.4" style="enable-background:new 0 0 701.4 1324.4;"
	 xml:space="preserve">
<style type="text/css">
	.st0{opacity:0.5;fill-rule:evenodd;clip-rule:evenodd;fill:#EDF9FF;enable-background:new    ;}
	.st1{opacity:0.5;fill:none;stroke:#4B96E8;stroke-width:1.0001;stroke-miterlimit:4.0005;enable-background:new    ;}
</style>
<g id="Group_7" transform="translate(-1442.713 219.2)">
	<path id="Path_85" class="st0" d="M2117.1,781.1c54.9,123.7-36.8,294.1-166.2,211.1c-95.3-61.1-176.2-41.3-241.8-67.6
		c-125.2-50.3-161.3-130.8-95.6-248.1c185.9-331.8-56.1-153.5-132.6-424.9c-76.5-271.4,219.6-509.6,310.7-319
		s260.7,200.1,335.9,348.9C2176.6,378.7,1937.6,376.9,2117.1,781.1z"/>
	<path id="Path_90" class="st1" d="M2123.6,765.9c61.3,120.6-21.3,295.7-154.9,219.6c-98.4-56-178.2-32-245.1-54.8
		c-127.7-43.7-168-122.2-108.5-242.8c168.3-341.2-64.1-150.4-154.7-417.4S1653-250.2,1754-64.6s270.9,186.2,353.8,331
		C2161.9,360.8,1923.1,371.5,2123.6,765.9z"/>
</g>
</svg>
