<?xml version="1.0" encoding="utf-8"?>
<!-- Generator: Adobe Illustrator 25.2.1, SVG Export Plug-In . SVG Version: 6.00 Build 0)  -->
<svg version="1.1" id="Layer_1" xmlns="http://www.w3.org/2000/svg" xmlns:xlink="http://www.w3.org/1999/xlink" x="0px" y="0px"
	 width="1250.9px" height="784.4px" viewBox="0 0 1250.9 784.4" style="enable-background:new 0 0 1250.9 784.4;"
	 xml:space="preserve">
<style type="text/css">
	.st0{opacity:0.5;fill:none;stroke:#4B96E8;enable-background:new    ;}
	.st1{opacity:0.5;fill-rule:evenodd;clip-rule:evenodd;fill:#F6FCFF;enable-background:new    ;}
</style>
<g id="Group_6" transform="translate(-835.042 -2285.438)">
	<path id="Path_92" class="st0" d="M1458.3,2830.4c142.8-56.4,87.3,153.8,238.5,117.4s497.6-549.8,354.8-586.8
		c-13.3-3.5-241.8,137.4-808.6-61.4c-205.3-72-306.3,154.8-356.3,336.1C676.2,3398.9,1164,2946.6,1458.3,2830.4z"/>
	<path id="Path_89" class="st1" d="M1399.3,2767.1c126.8-47.5,77.5,129.6,211.7,98.9s441.6-463.2,315-494.3
		c-11.8-2.9-214.6,115.7-717.7-51.7c-182.3-60.6-271.9,130.5-316.3,283.2C705.1,3246,1138.1,2865,1399.3,2767.1z"/>
</g>
</svg>
