<svg xmlns="http://www.w3.org/2000/svg" width="129.198" height="180.477" viewBox="0 0 129.198 180.477">
  <g id="Group_649" data-name="Group 649" transform="translate(-731.003 -432.253)">
    <g id="Group_648" data-name="Group 648" transform="translate(745.251 432.253)">
      <path id="Path_3899" data-name="Path 3899" d="M766.015,438.353c-2.22,0-3.66,1.963-3.66,4.918,0,3.042,1.44,4.91,3.709,4.91s3.6-2.031,3.6-4.945C769.668,440.452,768.315,438.353,766.015,438.353Z" transform="translate(-727.167 -428.734)" fill="#023a8d"/>
      <path id="Path_3900" data-name="Path 3900" d="M835.271,432.253H745.507a5.464,5.464,0,0,0-5.469,5.464V460.4h100.7V437.717A5.464,5.464,0,0,0,835.271,432.253Zm-68.847,22.6H761.7v-6.38h-5.713v6.38h-4.729v-16.1h4.729V444.7H761.7v-5.956h4.727Zm12.272.266c-5.449,0-8.455-3.764-8.455-8.226,0-4.7,3.343-8.428,8.748-8.428,5.655,0,8.537,3.844,8.537,8.166C787.527,451.817,784.128,455.115,778.7,455.115Zm24.6-12.742h-4.566v12.476H794.01V442.373h-4.489v-3.627H803.3Zm15.281,12.476h-11.8v-16.1h11.429v3.542h-6.7v2.577h6.32v3.491H811.5v2.96h7.078Zm15.4,0H822.5v-16.1h4.727v12.5h6.75Z" transform="translate(-740.039 -432.253)" fill="#023a8d"/>
    </g>
    <path id="Path_3901" data-name="Path 3901" d="M735.5,463.7,731,600.177h49.255v-35.53h30.687v35.53H860.2L855.707,463.7a10.156,10.156,0,0,0-10.035-9.686H745.53A10.157,10.157,0,0,0,735.5,463.7Zm88.136,16.97H840.24v19.374H823.632Zm0,34.72H840.24v19.378H823.632Zm0,34.723H840.24v19.374H823.632ZM787.3,480.67h16.609v19.374H787.3Zm0,34.72h16.609v19.378H787.3Zm-36.335-34.72h16.609v19.374H750.962Zm0,34.72h16.609v19.378H750.962Zm0,34.723h16.609v19.374H750.962Z" transform="translate(0 12.552)" fill="#fff"/>
  </g>
</svg>
