<?xml version="1.0" encoding="utf-8"?>
<!-- Generator: Adobe Illustrator 25.0.0, SVG Export Plug-In . SVG Version: 6.00 Build 0)  -->
<svg version="1.1" id="Layer_1" xmlns="http://www.w3.org/2000/svg" xmlns:xlink="http://www.w3.org/1999/xlink" x="0px" y="0px"
	 viewBox="0 0 180.7 180.6" style="enable-background:new 0 0 180.7 180.6;" xml:space="preserve">
<style type="text/css">
	.st0{fill:none;stroke:#FFFFFF;stroke-width:12;stroke-miterlimit:10;}
	.st1{fill:#023676;}
</style>
<path id="Path_3071" class="st0" d="M167.6,123.9l-12.4-5l1.4-3.6l12.4,5c3.2-8.3,5-17.2,5.4-26.1h-13.3v-7.8h13.3
	c-0.4-9.3-2.3-18.4-5.8-27l-12.3,5.2l-1.5-3.5l12.3-5.2c-8.6-19.1-24.1-34.4-43.3-42.8l-5,12.5l-3.6-1.5l5-12.4
	c-8.3-3.2-17.2-5-26.1-5.4v13.3h-7.7V6.3c-9.3,0.4-18.4,2.3-27,5.8l5.2,12.3l-3.6,1.5l-5.2-12.3c-8.1,3.7-15.7,8.6-22.3,14.6
	l9.4,9.4L37.6,43l-9.4-9.4c-6.2,6.9-11.3,14.7-15.1,23.2l12.5,5.1l-1.5,3.6l-12.4-5c-3.2,8.3-5,17.1-5.4,26h13.3v7.8H6.3
	c0.4,9.3,2.3,18.4,5.8,27l12.3-5.2l1.5,3.6l-12.3,5.2c3.7,8.1,8.6,15.6,14.6,22.2l9.4-9.4l5.5,5.5l-9.4,9.4
	c15.5,14.2,35.7,22.1,56.7,22.1c21,0,41.2-7.9,56.7-22.1l-9.4-9.4l5.5-5.5l9.4,9.4C158.8,140.2,163.9,132.4,167.6,123.9L167.6,123.9
	z"/>
<g id="Group_653" transform="translate(-419.656 -398.555)">
	<g id="Group_650">
		<path id="Path_3070" class="st1" d="M516,480.7l42.5-37.9l-37.6,43c1.2,2.1,1.8,4.5,1.9,6.9c0,7.8-6.3,14.1-14.1,14.1
			c-7.8,0-14.1-6.3-14.1-14.1c0,0,0,0,0,0c0-7.8,6.3-14.1,14.1-14.1c0,0,0,0,0,0C511.3,478.6,513.8,479.4,516,480.7L516,480.7z"/>
		<path id="Path_3071_1_" class="st0" d="M587.3,522.3l-12.4-5l1.4-3.6l12.4,5c3.2-8.3,5-17.2,5.4-26.1h-13.3v-7.8h13.3
			c-0.4-9.3-2.3-18.4-5.8-27l-12.3,5.2l-1.5-3.5l12.3-5.2c-8.6-19.1-24.1-34.4-43.3-42.8l-5,12.5l-3.6-1.5l5-12.4
			c-8.3-3.2-17.2-5-26.1-5.4V418h-7.7v-13.3c-9.3,0.4-18.4,2.3-27,5.8l5.2,12.3l-3.6,1.5l-5.2-12.3c-8.1,3.7-15.7,8.6-22.3,14.6
			l9.4,9.4l-5.5,5.5l-9.4-9.4c-6.2,6.9-11.3,14.7-15.1,23.2l12.5,5.1l-1.5,3.6l-12.4-5c-3.2,8.3-5,17.1-5.4,26h13.3v7.8h-13.3
			c0.4,9.3,2.3,18.4,5.8,27l12.3-5.2l1.5,3.6l-12.3,5.2c3.7,8.1,8.6,15.6,14.6,22.2l9.4-9.4l5.5,5.5l-9.4,9.4
			C468.8,565.1,489,573,510,573c21,0,41.2-7.9,56.7-22.1l-9.4-9.4l5.5-5.5l9.4,9.4C578.4,538.6,583.5,530.8,587.3,522.3L587.3,522.3
			z"/>
		<rect id="Rectangle_13" x="484.8" y="525.5" class="st1" width="51.9" height="10.2"/>
	</g>
</g>
</svg>
