<svg xmlns="http://www.w3.org/2000/svg" width="955.714" height="664.085" viewBox="0 0 955.714 664.085">
  <g id="Group_34" data-name="Group 34" transform="translate(-940.518 -407)">
    <circle id="Ellipse_8" data-name="Ellipse 8" cx="250.389" cy="250.389" r="250.389" transform="translate(1375.316 544.021)" fill="#edf9ff"/>
    <path id="Path_92" data-name="Path 92" d="M930.408,1550.233h432.04a331.03,331.03,0,0,0,115.763-251.824c0-183.239-148.544-331.783-331.783-331.783S814.645,1115.17,814.645,1298.409A331.031,331.031,0,0,0,930.408,1550.233Z" transform="translate(190.738 -504.682)" fill="#edf9ff"/>
    <circle id="Ellipse_9" data-name="Ellipse 9" cx="22.005" cy="22.005" r="22.005" transform="translate(1151.084 807.419)" fill="#cce4ed"/>
    <circle id="Ellipse_10" data-name="Ellipse 10" cx="11.558" cy="11.558" r="11.558" transform="translate(1696.815 711.193)" fill="#cce4ed"/>
    <circle id="Ellipse_11" data-name="Ellipse 11" cx="11.558" cy="11.558" r="11.558" transform="translate(1069.154 630.816)" fill="#cce4ed"/>
    <circle id="Ellipse_12" data-name="Ellipse 12" cx="22.005" cy="22.005" r="22.005" transform="translate(1593.639 474.656)" fill="#cce4ed"/>
    <ellipse id="Ellipse_13" data-name="Ellipse 13" cx="351.133" cy="21.599" rx="351.133" ry="21.599" transform="translate(1098.442 1027.886)" fill="#7dc1f0"/>
    <g id="Group_33" data-name="Group 33" transform="translate(1115.834 829.514)">
      <path id="Path_93" data-name="Path 93" d="M1234.625,2578.718s21.837-6.771,65.357-13.561l-.952-13.329c-7.452-74.487,41.793-185.946,42.509-187.56A502.371,502.371,0,0,0,1314.7,2538.1a.015.015,0,0,1,0-.01c6.677-11.642,19.572-24.2,44.355-31.909,0,0-32.24,27.646-41.468,56.4a1247.221,1247.221,0,0,1,127.586-10.274l-11.089-25.493,21.26,21.259s8.754-63.778,27.517-66.28l-13.759,62.529s16.256-12.5,20.011-11.256l-9.253,18.5c62.3-.642,187.5,2.172,273.393,11.2L1742.79,2538.7l21.259,21.259s8.755-63.778,27.512-66.28l-13.753,62.525.01-.01c.469-.36,16.3-12.476,20-11.241l-10.807,21.615q42.1,5,87.717,12.15Z" transform="translate(-1234.625 -2364.268)" fill="#7dc1f0"/>
      <path id="Path_94" data-name="Path 94" d="M1574.631,2903.893s-32.24,27.645-41.468,56.4l-6.04,1.175,3.148-25.656a.015.015,0,0,1,.005-.01C1536.953,2924.16,1549.848,2911.6,1574.631,2903.893Z" transform="translate(-1450.198 -2761.976)" fill="#7dc1f0"/>
      <path id="Path_95" data-name="Path 95" d="M1993.059,2982.346l21.26,21.26,1.9,3.508-12.075.725Z" transform="translate(-1793.597 -2819.796)" fill="#7dc1f0"/>
      <path id="Path_96" data-name="Path 96" d="M3308.89,3051.058l-10.807,21.614s-13.171-1.165-13.171-1.535,3.973-8.828,3.973-8.828l.01-.01C3289.363,3061.94,3305.194,3049.824,3308.89,3051.058Z" transform="translate(-2745.702 -2870.373)" fill="#7dc1f0"/>
    </g>
    <path id="Path_97" data-name="Path 97" d="M1093.467,2000.07l-.1-.027c-3.821-1.11-7.619-2.4-11.288-3.847a2.561,2.561,0,0,1,1.875-4.766c3.523,1.386,7.171,2.629,10.841,3.695a2.561,2.561,0,0,1-1.328,4.945Zm11.354,2.755a2.56,2.56,0,0,1,1.111-5c3.7.728,7.515,1.312,11.343,1.735a2.561,2.561,0,0,1-.564,5.09c-3.969-.44-7.928-1.046-11.766-1.8C1104.9,2002.845,1104.862,2002.835,1104.821,2002.825Zm-33.084-11.309a2.582,2.582,0,0,1-.544-.2c-3.531-1.789-7.022-3.77-10.377-5.886a2.561,2.561,0,0,1,2.733-4.331c3.219,2.031,6.569,3.932,9.958,5.649a2.561,2.561,0,0,1-1.771,4.771Zm56.3,13.9a2.561,2.561,0,0,1,.7-5.045c3.78.118,7.65.092,11.5-.075a2.56,2.56,0,1,1,.222,5.116c-3.979.173-7.976.2-11.883.078A2.57,2.57,0,0,1,1128.037,2005.415Zm23.353-1a2.561,2.561,0,0,1,.324-5.03c3.787-.435,7.62-1.008,11.395-1.7a2.56,2.56,0,1,1,.929,5.036c-3.888.718-7.838,1.308-11.74,1.755A2.551,2.551,0,0,1,1151.39,2004.417Zm-99.429-25.341a2.557,2.557,0,0,1-.928-.444c-3.092-2.341-6.189-4.868-9.206-7.513a2.561,2.561,0,0,1,3.377-3.851c2.924,2.565,5.925,5.014,8.92,7.281a2.561,2.561,0,0,1-2.162,4.527Zm122.422,21.089a2.561,2.561,0,0,1-.027-4.966c3.393-.877,6.644-1.84,9.663-2.862a2.561,2.561,0,1,1,1.642,4.851c-3.137,1.062-6.51,2.061-10.024,2.97A2.548,2.548,0,0,1,1174.383,2000.165Zm-140.013-36.494a2.548,2.548,0,0,1-1.2-.679c-2.8-2.813-5.519-5.74-8.081-8.7a2.56,2.56,0,1,1,3.872-3.351c2.485,2.87,5.122,5.709,7.839,8.439a2.561,2.561,0,0,1-2.433,4.292Zm-15.289-17.7a2.549,2.549,0,0,1-1.439-.958c-2.3-3.1-4.454-6.251-6.411-9.382a2.59,2.59,0,0,1,3.655-3.666,98.827,98.827,0,0,0,9.893,4.278,2.56,2.56,0,1,1-1.771,4.8q-1.337-.493-2.668-1.026.7.973,1.414,1.938a2.56,2.56,0,0,1-2.673,4.012Zm15.379-1.457a2.561,2.561,0,0,1,1.21-4.976c2.961.706,5.985,1.274,8.989,1.688.535.073,1.292.178,2.246.295a2.561,2.561,0,0,1-.622,5.083c-.987-.121-1.771-.229-2.324-.305-3.167-.437-6.356-1.035-9.477-1.78Zm23.2,2.957a2.561,2.561,0,0,1,.708-5.044c3.883.137,7.743.1,11.471-.109a2.56,2.56,0,1,1,.287,5.113c-3.884.218-7.9.256-11.939.114A2.6,2.6,0,0,1,1057.657,1947.474Zm-55.2-16.867a2.562,2.562,0,0,1-.789-.345,109.982,109.982,0,0,1-9.627-7.1,2.561,2.561,0,0,1,3.26-3.95,104.845,104.845,0,0,0,9.177,6.772,2.561,2.561,0,0,1-2.021,4.626Zm78.537,15.5a2.561,2.561,0,0,1,.2-5.013,87.318,87.318,0,0,0,11.069-2.544,2.561,2.561,0,0,1,1.482,4.9,92.414,92.414,0,0,1-11.721,2.695A2.556,2.556,0,0,1,1081,1946.106Zm-74.161-20.013a2.553,2.553,0,0,1-1.685-1.359,101.719,101.719,0,0,1-4.651-11.051,2.56,2.56,0,0,1,4.833-1.694,96.682,96.682,0,0,0,4.417,10.491,2.56,2.56,0,0,1-2.913,3.613Zm-22.382-10.334a2.552,2.552,0,0,1-1.213-.7,113.561,113.561,0,0,1-7.892-8.982,2.56,2.56,0,0,1,4.02-3.172,108.279,108.279,0,0,0,7.535,8.574,2.561,2.561,0,0,1-2.449,4.275Zm118.82,23.483a2.561,2.561,0,0,1-.512-4.785,57.336,57.336,0,0,0,9.516-5.842,2.561,2.561,0,1,1,3.1,4.073,62.481,62.481,0,0,1-10.367,6.368A2.547,2.547,0,0,1,1103.275,1939.242ZM970,1897.436a2.552,2.552,0,0,1-1.551-1.122,111.2,111.2,0,0,1-5.818-10.451,2.56,2.56,0,1,1,4.6-2.245,106.2,106.2,0,0,0,5.55,9.968,2.56,2.56,0,0,1-2.783,3.849Zm29.215,6.622a2.561,2.561,0,0,1-1.9-2A70.172,70.172,0,0,1,996,1890.021a2.56,2.56,0,0,1,5.12-.1,65.024,65.024,0,0,0,1.219,11.159,2.563,2.563,0,0,1-3.127,2.978Zm122.451,21.057a2.562,2.562,0,0,1-1.338-4.139,51.532,51.532,0,0,0,5.9-8.654q.151-.278.3-.557a2.561,2.561,0,0,1,4.527,2.393q-.161.3-.326.609a56.692,56.692,0,0,1-6.49,9.515A2.561,2.561,0,0,1,1121.667,1925.116ZM959.786,1876.46a2.558,2.558,0,0,1-1.8-1.626,105.508,105.508,0,0,1-3.372-11.492,2.56,2.56,0,1,1,4.988-1.158,100.264,100.264,0,0,0,3.208,10.93,2.561,2.561,0,0,1-3.025,3.346Zm39.067,4.376a2.561,2.561,0,0,1-1.9-2.939c.224-1.241.491-2.49.793-3.712a59.254,59.254,0,0,1,2.6-8,2.56,2.56,0,1,1,4.745,1.925,54.083,54.083,0,0,0-2.376,7.307c-.276,1.115-.52,2.255-.725,3.39a2.56,2.56,0,0,1-2.974,2.065C998.961,1880.861,998.907,1880.849,998.853,1880.836Zm133.708,23.794-.108-.029a2.561,2.561,0,0,1-1.734-3.178c.236-.8.458-1.623.66-2.44a61.656,61.656,0,0,0,1.479-8.555,2.561,2.561,0,0,1,5.095.517,66.761,66.761,0,0,1-1.6,9.269c-.22.887-.461,1.78-.718,2.652A2.56,2.56,0,0,1,1132.561,1904.63Zm-178.056-50.9a2.561,2.561,0,0,1-1.928-2.194,108.444,108.444,0,0,1-.7-11.948,2.56,2.56,0,1,1,5.121-.019,103.354,103.354,0,0,0,.669,11.382,2.562,2.562,0,0,1-3.159,2.778Zm53,5.547a2.563,2.563,0,0,1-1.54-3.869,79.768,79.768,0,0,1,7.29-9.622,2.56,2.56,0,1,1,3.842,3.386,74.53,74.53,0,0,0-6.82,9A2.562,2.562,0,0,1,1007.506,1859.281Zm127.458,22.215a2.562,2.562,0,0,1-1.938-2.31,70.281,70.281,0,0,0-1.684-11.142,2.56,2.56,0,1,1,4.986-1.167,75.407,75.407,0,0,1,1.807,11.957,2.563,2.563,0,0,1-3.171,2.662ZM954.4,1830.4a2.561,2.561,0,0,1-1.928-2.746,119.191,119.191,0,0,1,1.819-11.806,2.56,2.56,0,0,1,5.016,1.032,114.121,114.121,0,0,0-1.741,11.3,2.56,2.56,0,0,1-2.808,2.286A2.6,2.6,0,0,1,954.4,1830.4Zm68.467,11.35a2.56,2.56,0,0,1-1.06-4.419,95.556,95.556,0,0,1,9.555-7.278,2.561,2.561,0,0,1,2.84,4.261,90.32,90.32,0,0,0-9.041,6.886A2.556,2.556,0,0,1,1022.864,1841.746Zm106.8,17.074a2.556,2.556,0,0,1-1.755-1.515,68.529,68.529,0,0,0-5.106-10.035,2.561,2.561,0,0,1,4.355-2.694,73.663,73.663,0,0,1,5.489,10.787,2.56,2.56,0,0,1-2.983,3.457Zm-87.381-30.009a2.561,2.561,0,0,1-.523-4.78,88.623,88.623,0,0,1,11.115-4.61,2.561,2.561,0,0,1,1.63,4.855,83.313,83.313,0,0,0-10.469,4.344A2.553,2.553,0,0,1,1042.283,1828.811Zm-83.19-21.286q-.072-.018-.144-.04a2.56,2.56,0,0,1-1.689-3.2,118.824,118.824,0,0,1,4.093-11.224,2.561,2.561,0,0,1,4.715,2,113.714,113.714,0,0,0-3.917,10.739A2.56,2.56,0,0,1,959.093,1807.525Zm158.28,31.528a2.547,2.547,0,0,1-1.286-.773,56.678,56.678,0,0,0-8.234-7.54,2.56,2.56,0,1,1,3.061-4.106,61.74,61.74,0,0,1,8.981,8.223,2.56,2.56,0,0,1-2.522,4.2Zm-52.983-17.6a2.561,2.561,0,0,1,.177-5.009,69.31,69.31,0,0,1,12.074-1.037,2.56,2.56,0,1,1-.021,5.12,64.2,64.2,0,0,0-11.179.962A2.553,2.553,0,0,1,1064.39,1821.455Zm34.332,3.789a2.619,2.619,0,0,1-.439-.152,51.177,51.177,0,0,0-10.571-3.422,2.56,2.56,0,1,1,1.041-5.014,56.257,56.257,0,0,1,11.633,3.767,2.561,2.561,0,0,1-1.664,4.821Zm-130.437-39.173a2.563,2.563,0,0,1-1.612-3.752,111.181,111.181,0,0,1,6.461-10.056,2.56,2.56,0,1,1,4.153,3,106.087,106.087,0,0,0-6.162,9.592A2.562,2.562,0,0,1,968.285,1786.071Zm13.635-18.921a2.562,2.562,0,0,1-1.289-4.194,116.663,116.663,0,0,1,8.424-8.475,2.56,2.56,0,0,1,3.443,3.791,111.457,111.457,0,0,0-8.052,8.1A2.561,2.561,0,0,1,981.92,1767.15Zm17.275-15.7a2.56,2.56,0,0,1-.907-4.543c3.169-2.348,6.509-4.579,9.926-6.632a2.561,2.561,0,0,1,2.637,4.391c-3.276,1.968-6.478,4.106-9.515,6.357A2.557,2.557,0,0,1,999.2,1751.448Zm20.018-12.038a2.561,2.561,0,0,1-.494-4.795c3.556-1.706,7.249-3.276,10.977-4.664a2.56,2.56,0,1,1,1.788,4.8c-3.582,1.335-7.132,2.844-10.549,4.483A2.553,2.553,0,0,1,1019.214,1739.41Zm21.893-8.165a2.561,2.561,0,0,1-.065-4.956c3.8-1.045,7.712-1.938,11.618-2.656a2.56,2.56,0,1,1,.925,5.036c-3.762.691-7.526,1.551-11.187,2.557A2.549,2.549,0,0,1,1041.107,1731.245Zm22.984-4.228a2.561,2.561,0,0,1,.368-5.034c3.924-.381,7.921-.6,11.882-.655a2.56,2.56,0,1,1,.069,5.12c-3.819.052-7.674.265-11.456.631A2.545,2.545,0,0,1,1064.091,1727.017Z" transform="translate(89.599 -1060.902)" fill="#083d8b"/>
    <path id="Path_98" data-name="Path 98" d="M1999.778,2223.107v217.7c0,.264-.012.529-.025.807,0,.126-.013.252-.025.379s-.013.24-.026.365c0,.051-.012.1-.012.151-.012.088-.025.164-.038.24-.013.189-.051.378-.076.568s-.063.366-.1.542a1.971,1.971,0,0,1-.063.265.572.572,0,0,1-.038.2,1.994,1.994,0,0,1-.063.265c-.038.164-.088.328-.126.479a.229.229,0,0,1-.026.088c-.088.278-.164.555-.265.82a.048.048,0,0,1-.012.038c-.051.139-.1.278-.152.4s-.1.24-.139.353a.525.525,0,0,0-.038.1c-.152.34-.3.693-.479,1.021-.051.1-.114.228-.177.34s-.126.215-.189.328-.114.215-.189.316c-.126.214-.265.429-.4.631-.088.139-.177.252-.252.379-.214.277-.416.554-.643.82q-.246.3-.492.567c-.164.189-.34.366-.517.542-.075.088-.164.164-.252.252a1.92,1.92,0,0,1-.239.214c-.089.088-.189.177-.29.265-.025.025-.063.05-.088.076-.24.214-.492.416-.744.6a.343.343,0,0,0-.076.063c-.2.139-.4.29-.618.429-.075.051-.139.1-.2.139-.113.076-.227.152-.34.215a2.023,2.023,0,0,1-.278.164,3.5,3.5,0,0,1-.3.177,14.111,14.111,0,0,1-2.219,1.022c-.05.012-.088.038-.139.05s-.114.038-.164.051c-.177.063-.354.126-.542.177-.315.1-.631.176-.946.252l-.492.113a2.644,2.644,0,0,1-.315.05c-.126.026-.265.051-.391.076-.025,0-.038,0-.05.013-.1.012-.2.025-.315.038-.05,0-.1.013-.151.013l-.278.038c-.05,0-.1.012-.163.012l-.581.038c-.278.013-.555.025-.832.025H1599.582c-.277,0-.555-.012-.832-.025l-.58-.038a5.554,5.554,0,0,1-.643-.075,3.193,3.193,0,0,1-.366-.051c-.3-.038-.605-.1-.9-.164a1.811,1.811,0,0,1-.252-.063c-.315-.076-.631-.152-.946-.252-.189-.063-.366-.114-.542-.177a16.949,16.949,0,0,1-2.447-1.072l-.568-.341c-.214-.126-.429-.265-.631-.4a15.713,15.713,0,0,1-3.317-3.014q-.34-.4-.643-.833a14.894,14.894,0,0,1-1.728-3.1c-.1-.252-.2-.529-.3-.794s-.177-.542-.265-.82-.151-.555-.214-.833-.114-.517-.164-.782c-.012-.038-.012-.088-.025-.126-.038-.252-.076-.517-.1-.769a.094.094,0,0,1-.013-.063c-.025-.2-.038-.391-.05-.592-.038-.391-.05-.782-.05-1.185v-217.7a15.518,15.518,0,0,1,5.675-12.02.758.758,0,0,1,.1-.076l.807-.618a15.456,15.456,0,0,1,8.992-2.863H1984.2a10.727,10.727,0,0,1,1.11.05.542.542,0,0,1,.2.013c.353.025.719.063,1.059.114l.24.038c.3.051.605.114.9.189a1.528,1.528,0,0,1,.227.05c.366.089.719.189,1.072.3.328.1.668.227.984.353a12.554,12.554,0,0,1,1.324.619,7.6,7.6,0,0,1,.706.378,10.158,10.158,0,0,1,1.161.757c.012-.013.012,0,.012,0l.807.618a.762.762,0,0,1,.1.076c.214.164.4.341.593.518.151.126.29.265.429.4a13.6,13.6,0,0,1,1.211,1.337q.264.321.492.643a14.626,14.626,0,0,1,1.652,2.9c.126.278.24.567.353.857,0,.013.013.025.013.038a14.411,14.411,0,0,1,.441,1.425c.063.24.114.467.164.706.038.189.076.365.1.555s.063.379.088.568a6.305,6.305,0,0,1,.076.681,4.492,4.492,0,0,1,.038.58C1999.766,2222.564,1999.778,2222.842,1999.778,2223.107Z" transform="translate(-376.288 -1419.238)" fill="#dfe5ea"/>
    <path id="Path_99" data-name="Path 99" d="M2001.459,1808.864H1587.554a15.575,15.575,0,0,1,4.742-6.7.729.729,0,0,1,.1-.075l.807-.618,191.762-145.565a15.758,15.758,0,0,1,19.082,0L1995.8,1801.474c.012-.013.012,0,.012,0l.807.618a.717.717,0,0,1,.1.075c.214.164.4.341.593.517.151.126.29.265.428.4a13.591,13.591,0,0,1,1.211,1.337q.265.321.492.643a14.612,14.612,0,0,1,1.652,2.9c.126.277.24.568.353.858C2001.447,1808.839,2001.459,1808.852,2001.459,1808.864Z" transform="translate(-378.902 -1010.318)" fill="#2689cf"/>
    <path id="Rectangle_58" data-name="Rectangle 58" d="M106.016,0H255.185A106.016,106.016,0,0,1,361.2,106.016v249.6a0,0,0,0,1,0,0H0a0,0,0,0,1,0,0v-249.6A106.016,106.016,0,0,1,106.016,0Z" transform="translate(1232.438 670.196)" fill="#fff"/>
    <path id="Rectangle_59" data-name="Rectangle 59" d="M8.2,0H270.732a8.2,8.2,0,0,1,8.2,8.2v0a8.2,8.2,0,0,1-8.2,8.2H8.2A8.2,8.2,0,0,1,0,8.2v0A8.2,8.2,0,0,1,8.2,0Z" transform="translate(1273.573 732.491)" fill="#edf9ff"/>
    <path id="Rectangle_60" data-name="Rectangle 60" d="M8.2,0H270.732a8.2,8.2,0,0,1,8.2,8.2v0a8.2,8.2,0,0,1-8.2,8.2H8.2A8.2,8.2,0,0,1,0,8.2v0A8.2,8.2,0,0,1,8.2,0Z" transform="translate(1273.573 767.517)" fill="#edf9ff"/>
    <path id="Rectangle_61" data-name="Rectangle 61" d="M8.2,0H270.732a8.2,8.2,0,0,1,8.2,8.2v0a8.2,8.2,0,0,1-8.2,8.2H8.2A8.2,8.2,0,0,1,0,8.2v0A8.2,8.2,0,0,1,8.2,0Z" transform="translate(1273.573 802.543)" fill="#edf9ff"/>
    <path id="Rectangle_62" data-name="Rectangle 62" d="M8.2,0H270.732a8.2,8.2,0,0,1,8.2,8.2v0a8.2,8.2,0,0,1-8.2,8.2H8.2A8.2,8.2,0,0,1,0,8.2v0A8.2,8.2,0,0,1,8.2,0Z" transform="translate(1273.573 837.569)" fill="#edf9ff"/>
    <path id="Rectangle_63" data-name="Rectangle 63" d="M8.2,0H270.732a8.2,8.2,0,0,1,8.2,8.2v0a8.2,8.2,0,0,1-8.2,8.2H8.2A8.2,8.2,0,0,1,0,8.2v0A8.2,8.2,0,0,1,8.2,0Z" transform="translate(1273.573 872.595)" fill="#edf9ff"/>
    <path id="Path_100" data-name="Path 100" d="M1791.9,2337.8v.012a10.182,10.182,0,0,1-2.144,1.766l-189.315,116.81h-.857a15.22,15.22,0,0,1-4.515-.668c-.2-.063-.4-.127-.593-.189a15.43,15.43,0,0,1-6.419-4.25q-.246-.265-.492-.567a14.6,14.6,0,0,1-1.3-1.829c-.139-.215-.252-.429-.378-.644s-.239-.454-.34-.681a15.494,15.494,0,0,1-1.539-6.747v-217.7a15.518,15.518,0,0,1,5.675-12.02.758.758,0,0,1,.1-.076l.807-.618a15.456,15.456,0,0,1,8.992-2.863h3.556l16.623,10.253,153.233,94.55,5.764,3.557,11,6.785a10.211,10.211,0,0,1,2.144,1.766v.012A9.963,9.963,0,0,1,1791.9,2337.8Z" transform="translate(-376.288 -1419.238)" fill="#2689cf"/>
    <path id="Path_101" data-name="Path 101" d="M2575.162,2223.107v217.7c0,.264-.012.529-.025.807,0,.126-.013.252-.025.379s-.012.24-.025.365c0,.051-.012.1-.012.151-.013.088-.026.164-.038.24-.012.189-.05.378-.075.568s-.063.366-.1.542c0,.025-.013.063-.013.088a1.368,1.368,0,0,1-.051.177.571.571,0,0,1-.038.2,2.073,2.073,0,0,1-.063.265c-.038.164-.076.315-.126.479a.237.237,0,0,1-.025.088c-.076.278-.164.555-.266.82a.048.048,0,0,1-.012.038c-.051.139-.089.265-.152.4-.038.113-.088.227-.138.353a.827.827,0,0,0-.038.1c-.151.34-.3.693-.479,1.021-.051.1-.114.228-.177.34s-.126.215-.189.328-.114.215-.19.316c-.126.214-.265.429-.4.631-.088.139-.177.252-.252.379-.214.29-.429.554-.644.82q-.246.3-.491.567c-.164.189-.341.366-.518.542-.075.088-.164.164-.252.252a1.886,1.886,0,0,1-.239.214c-.089.088-.189.177-.29.265-.025.025-.064.05-.089.076-.239.214-.492.416-.744.6a.327.327,0,0,0-.076.063c-.2.139-.4.29-.618.429-.075.051-.139.1-.2.139-.113.076-.227.152-.341.215a2.02,2.02,0,0,1-.277.164c-.1.063-.2.126-.3.177a14.134,14.134,0,0,1-2.22,1.022c-.05.012-.1.038-.139.05s-.113.038-.164.051c-.177.063-.353.126-.542.177-.315.1-.63.176-.946.252l-.492.113a2.648,2.648,0,0,1-.315.05c-.126.026-.265.051-.391.076h-.038c-.114.013-.227.038-.328.051-.05,0-.1.013-.152.013-.088.013-.177.025-.277.038-.051,0-.1.012-.164.012l-.581.038c-.278.013-.554.025-.832.025h-.857l-189.315-116.81a9.812,9.812,0,0,1-2.132-1.766v-.012a9.936,9.936,0,0,1,0-13.344v-.012a9.839,9.839,0,0,1,2.132-1.766l10.985-6.785,5.763-3.557,153.245-94.55,16.623-10.253h3.556a10.72,10.72,0,0,1,1.11.05.542.542,0,0,1,.2.013c.354.025.719.063,1.06.114l.24.038c.3.051.606.114.9.189a1.515,1.515,0,0,1,.227.05c.366.089.719.189,1.072.3.328.1.668.227.984.353a12.554,12.554,0,0,1,1.324.619,7.7,7.7,0,0,1,.707.378,10.155,10.155,0,0,1,1.16.757c.012-.013.012,0,.012,0l.807.618a.77.77,0,0,1,.1.076c.214.164.4.341.592.518.151.126.29.265.429.4a13.6,13.6,0,0,1,1.211,1.337q.265.321.492.643a14.612,14.612,0,0,1,1.652,2.9c.126.278.24.567.353.857,0,.013.013.025.013.038a14.218,14.218,0,0,1,.441,1.425c.063.24.114.467.164.706.038.189.076.365.1.555s.063.379.088.568a6.368,6.368,0,0,1,.076.681,4.58,4.58,0,0,1,.038.58C2575.149,2222.564,2575.162,2222.842,2575.162,2223.107Z" transform="translate(-951.671 -1419.238)" fill="#2689cf"/>
    <path id="Path_102" data-name="Path 102" d="M1999.778,2710.1v2.264c0,8.978-6.974,16.258-15.575,16.258H1599.582c-8.6,0-15.575-7.28-15.575-16.258V2710.1l197.828-130.157a18.183,18.183,0,0,1,20.1,0Z" transform="translate(-376.288 -1691.474)" fill="#474747" opacity="0.29"/>
    <path id="Path_103" data-name="Path 103" d="M1999.778,2728.729v2.169a15.577,15.577,0,0,1-15.575,15.576H1599.582a15.577,15.577,0,0,1-15.575-15.576v-2.169l197.828-124.693a18.849,18.849,0,0,1,20.1,0Z" transform="translate(-376.288 -1709.325)" fill="#3c99d3"/>
    <path id="Rectangle_64" data-name="Rectangle 64" d="M8.2,0H121.073a8.2,8.2,0,0,1,8.2,8.2v0a8.2,8.2,0,0,1-8.2,8.2H8.2A8.2,8.2,0,0,1,0,8.2v0A8.2,8.2,0,0,1,8.2,0Z" transform="translate(1273.573 697.465)" fill="#2689cf"/>
    <path id="Path_104" data-name="Path 104" d="M1427.569,1458.349l-204.307,27.261,49.533,37.57.776,69.149,42.684-36.256,23.985,18.085Z" transform="translate(-110.416 -867.085)" fill="#232323" opacity="0.1"/>
    <path id="Path_105" data-name="Path 105" d="M1428.329,1576.383l-1.133-101.007,155.132-32.973Z" transform="translate(-260.717 -855.333)" fill="#1259a0"/>
    <path id="Path_106" data-name="Path 106" d="M1290.08,1507.489c.785-.394,154.439-65.085,154.439-65.085l-204.307,27.261Z" transform="translate(-122.908 -855.333)" fill="#146dc6"/>
    <path id="Path_107" data-name="Path 107" d="M1448,1727.439l-16.495,56,70.747-60.093Z" transform="translate(-263.893 -1062.392)" fill="#083d8b"/>
    <path id="Path_108" data-name="Path 108" d="M1494.225,1520.381l50.174,37.831,87.33-115.809Z" transform="translate(-310.118 -855.333)" fill="#146dc6"/>
    <circle id="Ellipse_14" data-name="Ellipse 14" cx="17.896" cy="17.896" r="17.896" transform="translate(1487.664 605.648)" fill="#083d8b"/>
    <circle id="Ellipse_15" data-name="Ellipse 15" cx="9.756" cy="9.756" r="9.756" transform="translate(1380.479 407)" fill="#083d8b"/>
    <circle id="Ellipse_16" data-name="Ellipse 16" cx="10.932" cy="10.932" r="10.932" transform="translate(1803.574 834.505)" fill="#083d8b"/>
    <circle id="Ellipse_17" data-name="Ellipse 17" cx="13.798" cy="13.798" r="13.798" transform="translate(940.518 673.371)" fill="#083d8b"/>
    <circle id="Ellipse_18" data-name="Ellipse 18" cx="9.27" cy="9.27" r="9.27" transform="translate(1064.328 925.136)" fill="#083d8b"/>
    <circle id="Ellipse_19" data-name="Ellipse 19" cx="28.23" cy="28.23" r="28.23" transform="translate(1839.772 558.841)" fill="#083d8b"/>
    <circle id="Ellipse_20" data-name="Ellipse 20" cx="27.137" cy="27.137" r="27.137" transform="translate(1268.261 491.53)" fill="#cce4ed"/>
    <circle id="Ellipse_21" data-name="Ellipse 21" cx="27.137" cy="27.137" r="27.137" transform="translate(1798.302 928.978)" fill="#cce4ed"/>
  </g>
</svg>
