<?xml version="1.0" encoding="utf-8"?>
<!-- Generator: Adobe Illustrator 25.2.1, SVG Export Plug-In . SVG Version: 6.00 Build 0)  -->
<svg version="1.1" id="Layer_1" xmlns="http://www.w3.org/2000/svg" xmlns:xlink="http://www.w3.org/1999/xlink" x="0px" y="0px"
	 width="781.4px" height="1289.7px" viewBox="0 0 781.4 1289.7" style="enable-background:new 0 0 781.4 1289.7;"
	 xml:space="preserve">
<style type="text/css">
	.st0{fill:#083D8B;}
	.st1{fill:none;stroke:#2689CF;stroke-width:0.9999;stroke-miterlimit:3.9998;}
</style>
<g id="Group_35" transform="translate(616.934 154.786)">
	<path id="Path_91" class="st0" d="M-435.4,79.2c201.7,189.6,257.7,73.9,406.2-4.3C74,35.4,211.4,184,148.7,316.2
		C6.1,616.7,101.7,625.8,75.8,833.9c-10.9,87.7-60.9,154.7-125,169.3c-211.7,48.2-461.2-340.1-530.6-579.1
		C-663,156.6-574.1-72.5-435.4,79.2z"/>
	<path id="Path_434" class="st1" d="M-440.4,108.9c201.7,189.6,257.7,73.9,406.2-4.3C69.1,65.1,206.4,213.8,143.7,345.9
		C1.2,646.4,96.8,655.6,70.9,863.7C59.9,951.3,10,1018.4-54.1,1033c-211.7,48.2-461.2-340.1-530.6-579.1
		C-668,186.3-579.1-42.8-440.4,108.9z"/>
</g>
</svg>
