<?xml version="1.0" encoding="utf-8"?>
<!-- Generator: Adobe Illustrator 25.2.1, SVG Export Plug-In . SVG Version: 6.00 Build 0)  -->
<svg version="1.1" id="Layer_1" xmlns="http://www.w3.org/2000/svg" xmlns:xlink="http://www.w3.org/1999/xlink" x="0px" y="0px"
	 width="529.6px" height="916.2px" viewBox="0 0 529.6 916.2" style="enable-background:new 0 0 529.6 916.2;" xml:space="preserve"
	>
<style type="text/css">
	.st0{fill:#EDF9FF;}
	.st1{fill:none;stroke:#083D8B;}
</style>
<g id="Group_36" transform="translate(-1451.116 33.409)">
	<path id="Path_433" class="st0" d="M1455.6,214.9c-5.7,46-10.7,94,16.1,134.9c26.8,41,64.5,66.6,101.1,89.5
		c36.6,22.9,74.6,45.6,104.2,83.4c30.4,38.7,48.4,88.8,69.4,135.7c21,46.9,48.4,94.9,86.3,116.3c47.7,27,99.2,0.5,120.1-50.2
		s15.5-119.3-3.6-181.2c-19.1-61.9-50.7-118.8-82.6-174c-31.9-55.3-64.8-110.6-87.3-171.4c-18.3-49.3-30.9-104.3-63.2-142.1
		c-36.1-42.3-87.5-49.7-126.9-33.2s-73.4,47.6-98.3,87.9C1477.5,132.2,1460.2,177.5,1455.6,214.9z"/>
	<path id="Path_435" class="st1" d="M1470.1,229.6c-5.7,46-10.7,94,16.1,134.9c26.8,41,64.5,66.6,101.1,89.5
		c36.6,22.9,74.6,45.6,104.2,83.4c30.4,38.7,48.4,88.8,69.4,135.7c21,46.9,48.4,94.9,86.3,116.3c47.7,27,99.2,0.5,120.1-50.2
		c20.9-50.7,15.5-119.3-3.6-181.2c-19.1-61.9-50.7-118.8-82.6-174c-31.9-55.3-64.8-110.6-87.3-171.4
		c-18.3-49.3-30.9-104.3-63.2-142.1c-36.1-42.3-87.5-49.7-126.9-33.2s-73.4,47.6-98.3,87.9C1491.9,146.9,1474.7,192.2,1470.1,229.6z
		"/>
</g>
</svg>
