<?xml version="1.0" encoding="utf-8"?>
<!-- Generator: Adobe Illustrator 25.0.0, SVG Export Plug-In . SVG Version: 6.00 Build 0)  -->
<svg version="1.1" id="Layer_1" xmlns="http://www.w3.org/2000/svg" xmlns:xlink="http://www.w3.org/1999/xlink" x="0px" y="0px"
	 viewBox="0 0 664 226" style="enable-background:new 0 0 664 226;" xml:space="preserve">
<style type="text/css">
	.st0{fill:#F3FAFF;}
</style>
<path class="st0" d="M647.6,220.5c0.1-1.8,0.3-3.5,0.3-5.4c0-55.2-44.8-100-100-100c-15.2,0-29.5,3.5-42.4,9.5
	c0.3-3.2,0.5-6.3,0.5-9.5C506,54.6,457,5.5,396.4,5.5c-45.1,0-83.8,27.2-100.6,66.2c-11.6-5.2-24.5-8.1-38-8.1
	c-43.5,0-80,29.8-90.4,70c-14.4-7.6-30.8-12-48.3-12c-55.6,0-100.7,43.9-103,98.9H647.6z"/>
</svg>
