<?xml version="1.0" encoding="utf-8"?>
<!-- Generator: Adobe Illustrator 25.0.0, SVG Export Plug-In . SVG Version: 6.00 Build 0)  -->
<svg version="1.1" id="Layer_1" xmlns="http://www.w3.org/2000/svg" xmlns:xlink="http://www.w3.org/1999/xlink" x="0px" y="0px"
	 viewBox="0 0 731 1635" style="enable-background:new 0 0 731 1635;" xml:space="preserve">
<style type="text/css">
	.st0{fill:#023D91;}
	.st1{fill:#043C7F;}
	.st2{fill:#D3E8F4;}
</style>
<g>
	<path class="st0" d="M435.4,1561.2c-14.2-52.3-12.8-140.1,3.7-190.6c15.9-48.6,33-113.6,75.2-170.5l-57.7,12.8
		c-23.8,63.2-55,115.5-64.1,115.5c-15.6,0-35.8-97.4-46.5-126.9l-52.9,6.2c68,59.8,68.7,201.3,45.4,300.4
		c-23.4,99-53.6,106.8-44.4,115.9c9.2,9.2,26.8-3.5,61.9-4.1c50.4-0.9,99,9.2,119.1,5.5C494.9,1621.7,446.8,1603.6,435.4,1561.2z"/>
	<g>
		<path class="st1" d="M474.8,1625.4c20.2-3.7-27.9-21.8-39.4-64.1c-14.2-52.3-12.8-140.1,3.7-190.6c11.3-34.7,23.3-77.7,44.6-120.2
			l-55.5,27c-15.7,30.7-30.1,51.1-35.8,51.1c0,26.6-18.3,157.6-3.7,219.9c8.6,36.4,20.2,61.4,36.7,75.1
			C446.9,1625.5,464.5,1627.2,474.8,1625.4z"/>
	</g>
	<path class="st2" d="M547.6,385.7c5.4-13.8,8.4-28.8,8.4-44.5c0-43.1-22.4-81.1-56.4-103.5c0.9-6.6,1.4-13.4,1.4-20.2
		c0-55.9-30.5-104-74.3-125.8c0.6-3.8,0.9-7.7,0.9-11.7c0-39.9-29.4-72.3-65.6-72.3c-36.3,0-65.6,32.4-65.6,72.3
		c0,8.7,1.5,17,4,24.8c-24.6,19.1-42.7,47.4-50,80.4c-36.5,7-64,38.5-64,76.3c0,19.8,7.7,37.9,20.1,51.7
		c-19.1,17.2-31.1,41.9-31.1,69.3c0,11.2,2.1,21.8,5.7,31.8c-51.6,19.4-88.2,68.4-88.2,125.8c0,15.5,2.7,30.4,7.6,44.3
		c-22.3,30.4-35.4,67.4-35.4,107.3c0,103.2,87.4,186.9,195.2,186.9c107.8,0,195.2-83.7,195.2-186.9c0-23.9-4.7-46.7-13.2-67.7
		c6.2,0.8,12.6,1.3,19,1.3c75.9,0,137.5-60.3,137.5-134.7C598.8,448.1,578.8,410.3,547.6,385.7z"/>
	<g>
		<path class="st2" d="M289.8,357.3c10.4,58.9,74.7,104.2,152.5,104.2c52.4,0,98.7-20.6,126.5-52.1c-6.8-8.8-14.6-16.8-23.4-23.8
			c5.4-13.8,8.4-28.8,8.4-44.5c0-43.1-22.4-81.1-56.4-103.5c0.9-6.6,1.4-13.4,1.4-20.2c0-45.2-20-85.3-50.8-110.5
			c-2.3-1-4.5-1.9-6.9-2.6c0.1-0.8,0.2-1.6,0.3-2.4c-5.4-3.8-11-7.3-16.9-10.2c0.6-3.8,0.9-7.7,0.9-11.7c0-39.9-29.4-72.3-65.6-72.3
			c-36.3,0-65.6,32.4-65.6,72.3c0,8.7,1.5,17,4,24.8c-24.6,19.1-42.7,47.4-50,80.4c-36.5,7-64,38.5-64,76.3
			c0,19.8,7.7,37.9,20.2,51.7c-7,6.3-13,13.6-17.9,21.7c18.6,17.2,43.4,27.8,70.7,27.8C268.5,362.6,279.5,360.6,289.8,357.3z"/>
	</g>
	<path class="st2" d="M186.1,414.8c0,42,36.5,76.1,81.6,76.1c45,0,81.6-34,81.6-76.1c0-42-36.5-76.1-81.6-76.1
		C222.6,338.7,186.1,372.8,186.1,414.8z"/>
	<g>
		<path class="st2" d="M131.7,628.2c-4.9-13.9-7.6-28.8-7.6-44.3c0-57.4,36.6-106.3,88.2-125.8c-3.6-9.9-5.7-20.6-5.7-31.8
			c0-27.4,12-52.1,31.1-69.3c-12.5-13.7-20.1-31.8-20.1-51.7c0-37.8,27.5-69.3,64-76.3c7.3-33,25.4-61.3,50-80.4
			c-2.6-7.7-4-16-4-24.7c0-39.9,29.4-72.3,65.6-72.3c10.8,0,21,2.9,30,8c-8-30-33.1-52-63-52c-36.3,0-65.6,32.4-65.6,72.3
			c0,8.7,1.5,17,4,24.8c-24.6,19.1-42.7,47.4-50,80.4c-36.5,7-64,38.5-64,76.3c0,19.8,7.7,37.9,20.1,51.7
			c-19.1,17.2-31.1,41.9-31.1,69.3c0,11.2,2.1,21.8,5.7,31.8c-51.6,19.4-88.2,68.4-88.2,125.8c0,15.5,2.7,30.4,7.6,44.3
			c-22.3,30.4-35.4,67.4-35.4,107.3c0,50.4,20.9,96.2,54.8,129.8c-13.9-25.7-21.8-54.9-21.8-85.8
			C96.3,695.6,109.4,658.6,131.7,628.2z"/>
	</g>
	<path class="st2" d="M698.6,844c5.1-11.3,8-23.8,8-37c0-35.8-21-66.6-51.3-81c2.3-8,3.7-16.5,3.7-25.3c0-32.8-17.7-61.4-43.9-77.1
		c11.5-18,18.3-39.3,18.3-62.2c0-63.8-51.7-115.4-115.5-115.4c-60,0-109.3,45.8-114.9,104.3c-35.9,11.7-61.7,43.8-61.7,81.5
		c0,2,0.2,4,0.3,6c-47.5,14.3-82.2,58.4-82.2,110.5c0,63.8,51.7,115.5,115.5,115.5c0.1,0,0.2,0,0.3,0c11.2,25.8,31.5,46.7,56.9,58.6
		c-0.3,3.7-0.5,7.3-0.5,11c0,82,66.5,148.5,148.5,148.5c82,0,148.5-66.5,148.5-148.5C728.6,899.9,717.4,868.9,698.6,844z"/>
	<g>
		<path class="st2" d="M445,754.6c30.1-1.4,57.2-15.4,76.6-37.1c13.6,39,55.6,67.5,105.3,67.5c26,0,49.9-7.8,68.8-20.9
			c-9.1-16.6-23.2-30-40.4-38.1c2.3-8,3.7-16.5,3.7-25.3c0-32.8-17.7-61.4-43.9-77.1c11.5-18,18.3-39.3,18.3-62.2
			c0-63.8-51.7-115.4-115.5-115.4c-60,0-109.3,45.8-114.9,104.3c-35.9,11.7-61.7,43.8-61.7,81.5c0,2,0.2,4,0.3,6
			c-47.5,14.3-82.2,58.4-82.2,110.5c0,12.4,2,24.3,5.6,35.5c20,17.7,47.8,28.7,78.7,28.7C389.3,812.5,428.3,788.6,445,754.6z"/>
	</g>
	<g>
		<path class="st2" d="M376.4,681.8c-0.1-2-0.3-4-0.3-6c0-37.8,25.8-69.8,61.7-81.5c5.6-58.5,54.9-104.3,114.9-104.3
			c23.9,0,46.2,7.3,64.6,19.8c-19-37.8-58-63.8-103.1-63.8c-60,0-109.3,45.8-114.9,104.3c-35.9,11.7-61.7,43.8-61.7,81.5
			c0,2,0.2,4,0.3,6c-47.5,14.3-82.2,58.4-82.2,110.5c0,39.8,20.2,74.9,50.8,95.7c-7.8-15.6-12.3-33.1-12.3-51.7
			C294.3,740.2,328.9,696.1,376.4,681.8z"/>
	</g>
	<path class="st2" d="M572.4,1017c1.5-8.4,2.3-17,2.3-25.8c0-82-66.5-148.4-148.4-148.4c-68.3,0-125.8,46.2-143.1,109
		c-23.2-15-50.8-23.7-80.5-23.7c-82,0-148.4,66.5-148.4,148.4c0,82,66.5,148.4,148.4,148.4c25.7,0,49.8-6.5,70.9-18
		c22.8,52.6,75.2,89.5,136.2,89.5c52.6,0,98.7-27.4,125.1-68.6c7.5,1.7,15.3,2.6,23.3,2.6c59.2,0,107.2-48,107.2-107.2
		C665.4,1068.8,624.9,1024,572.4,1017z"/>
	<g>
		<path class="st2" d="M173.3,1167.2c37.5,0,71.4-14.2,95.6-37.1c6.5,0.9,13.1,1.4,19.9,1.4c35.3,0,67.3-12.6,91.1-33.1
			c23.1,36.2,66,60.6,115.1,60.6c72,0,130.7-52.4,133.2-117.9c-15.2-12.6-33.9-21.3-54.4-24c1.5-8.4,2.3-17,2.3-25.8
			c0-21.1-4.4-41.2-12.4-59.4c-0.7-0.4-1.3-0.8-2-1.1c0.1-0.9,0.2-1.9,0.2-2.8c-23.8-50.3-74.9-85.1-134.3-85.1
			c-68.3,0-125.8,46.2-143.1,109c-23.2-15-50.8-23.7-80.5-23.7c-82,0-148.4,66.5-148.4,148.4c0,10.7,1.1,21.1,3.3,31.2
			C82.1,1143.3,124.7,1167.2,173.3,1167.2z"/>
	</g>
	<path class="st2" d="M382.2,727.3c-24.3,0-47.2,5.9-67.5,16.3c-8-46.7-48.5-82.2-97.4-82.2c-54.7,0-99,44.3-99,99
		c0,0.5,0.1,1,0.1,1.5c-5.4-0.9-10.9-1.5-16.6-1.5c-54.7,0-99,44.3-99,99c0,45.7,31.1,84.1,73.3,95.5
		c19.4,59.5,75.2,102.5,141.1,102.5c41.7,0,79.4-17.3,106.4-45c18,7.7,37.7,12,58.5,12c82,0,148.5-66.5,148.5-148.5
		C530.7,793.8,464.2,727.3,382.2,727.3z"/>
	<g>
		<path class="st2" d="M381.9,727.3c-0.2,0-0.4,0-0.6,0c-4.7,0-9.4,0.3-14,0.7c-19.1,1.8-37.2,7.2-53.5,15.5
			c-8-46.7-48.5-82.2-97.4-82.2c-36.7,0-68.7,20-85.8,49.8c-2.7,5.2-5,10.5-6.9,16.1c-0.2,0-0.3-0.1-0.5-0.1
			c-3.7,10.4-5.8,21.6-5.8,33.2c0,0.5,0.1,1,0.1,1.5c-5.4-0.9-10.9-1.5-16.6-1.5c-32.7,0-61.6,15.9-79.6,40.4
			c-0.2,2.1-0.3,4.2-0.3,6.3c0,45.6,36.9,82.5,82.5,82.5c26.9,0,50.6-12.9,65.7-32.8c21.3,14.8,47.7,23.6,76.4,23.6
			c14.3,0,28.1-2.2,40.9-6.3c10,34.3,41.6,59.4,79.1,59.4c23,0,43.8-9.5,58.8-24.7c4.2,0.5,8.4,0.8,12.7,0.8
			c39.9,0,74.4-22,91.4-54.1C518.5,783.3,456.8,727.6,381.9,727.3z"/>
	</g>
	<g>
		<path class="st2" d="M407.4,767.6c44.1,0,83.7,19.2,110.9,49.7c-22.7-53-75.3-90.1-136.5-90.1c-21.7,0-42.3,4.7-60.9,13.1
			c9.6,12.5,16.3,27.3,19.1,43.4C360.2,773.5,383.1,767.6,407.4,767.6z"/>
		<path class="st2" d="M127,800.6c5.7,0,11.2,0.6,16.6,1.5c0-0.5-0.1-1-0.1-1.5c0-54.6,44.3-99,99-99c26.4,0,50.3,10.4,68,27.3
			c-13.1-39.3-50-67.6-93.7-67.6c-54.7,0-99,44.3-99,99c0,0.5,0.1,1,0.1,1.5c-5.4-0.9-10.9-1.5-16.6-1.5c-54.6,0-99,44.3-99,99
			c0,28.2,11.8,53.5,30.8,71.5c-3.3-9.8-5.1-20.3-5.1-31.2C28.1,844.9,72.4,800.6,127,800.6z"/>
	</g>
</g>
</svg>
