<?xml version="1.0" encoding="utf-8"?>
<!-- Generator: Adobe Illustrator 25.0.0, SVG Export Plug-In . SVG Version: 6.00 Build 0)  -->
<svg version="1.1" id="Layer_1" xmlns="http://www.w3.org/2000/svg" xmlns:xlink="http://www.w3.org/1999/xlink" x="0px" y="0px"
	 viewBox="0 0 1060 1635" style="enable-background:new 0 0 1060 1635;" xml:space="preserve">
<style type="text/css">
	.st0{fill:#023D91;}
	.st1{opacity:0.9;fill:#043C7F;}
	.st2{fill:#043C7F;}
	.st3{fill:#D3E8F4;}
</style>
<g>
	<path class="st0" d="M614,1613.5c12.1-15.6-18.9-145-20.6-198.7c-11.2-347.4,30.9-443,210.5-574l22.1-45.1c0,0-67,22.4-148.6,108.4
		c-54.5,57.4-72.3,81.9-84.9,89.8c-9.5,6-19.9-9.9-19.6-60.8c0.1-23.8,4.7-68.6,9-120.9c6.5-79.3,10.5-148.8,15.3-171.4l-67,2.3
		c0,0,23.9,375.6-22,366.5c-34.7-6.9-72.1-149.6-253.1-260.1l47.6,99.6c82.8,59.6,151.3,156,184.9,247.8
		c43.3,118.4,38.6,241.7,41.2,301.7c1,23.3-5.9,150.1-25,207.5C498.5,1621.5,601.6,1629.5,614,1613.5z"/>
	<g>
		<path class="st1" d="M484.5,1009.6c7.5,1.5,13.9,0.3,18.9-1.8c-21.2-11.3-45.8-69.1-104.4-136.8l-14.5,3.2
			C384.4,874.1,464.9,1005.6,484.5,1009.6z"/>
	</g>
	<g>
		<path class="st2" d="M614,1613.5c12.1-15.6-18.9-145-20.6-198.7c-11.2-347.4,30.9-443,210.5-574l20.1-41.2l-6.8-0.4
			c-20.7,9-75.7,37.3-139.9,104.9c-29.7,31.3-48.4,52.7-61.4,67.1c0.8,7.7,0.7,17.9-1.9,30c-5.9,28-36.8,83.9-45.6,164.8
			c-8.8,80.9,4.4,328.7,4.4,371.4c0,27.1-1.8,71.6-7.4,84.7C587.8,1622.7,608.8,1620.2,614,1613.5z"/>
	</g>
	<path class="st3" d="M934.8,225.6c0.2-3.9,0.4-7.8,0.4-11.8c0-109.2-88.5-197.6-197.6-197.6c-48.4,0-92.7,17.4-127.1,46.3
		C561,26.8,500.1,5.7,434.2,5.7c-132.1,0-244.1,84.7-283.9,202.2C105,222.5,72.2,265,72.2,315.1c0,54.3,38.4,99.6,89.5,110.3
		C209,527.7,313.2,598.9,434.2,598.9c122.8,0,228.3-73.2,274.5-177.9c13.6,83.2,85.8,146.6,172.8,146.6
		c96.7,0,175.1-78.4,175.1-175.1C1056.6,314.3,1005.5,248.2,934.8,225.6z"/>
	<g>
		<path class="st3" d="M171.9,247.2C211.7,129.7,323.7,45,455.8,45c65.9,0,126.8,21.1,176.3,56.9c34.4-28.9,78.7-46.3,127.1-46.3
			c66.7,0,125.6,33,161.4,83.6C891,67,820.3,16.2,737.6,16.2c-48.4,0-92.7,17.4-127.1,46.3C561,26.8,500.1,5.7,434.2,5.7
			c-132.1,0-244.1,84.7-283.9,202.2C105,222.5,72.2,265,72.2,315.1c0,27.8,10.1,53.2,26.8,72.8c-3.3-10.6-5.2-21.9-5.2-33.6
			C93.8,304.2,126.6,261.8,171.9,247.2z"/>
	</g>
	<path class="st3" d="M1021.5,629.9c0,126.5-103.5,229-231.2,229c-127.7,0-231.2-102.5-231.2-229c0-126.5,103.5-229,231.2-229
		C918,401,1021.5,503.5,1021.5,629.9z"/>
	<path class="st3" d="M844.7,678.5c0,103.7-84.9,187.8-189.6,187.8c-104.7,0-189.6-84.1-189.6-187.8c0-103.7,84.9-187.8,189.6-187.8
		C759.8,490.7,844.7,574.8,844.7,678.5z"/>
	<g>
		<path class="st3" d="M636.3,529.9c41.8-59,111-97.5,189.3-97.5c50.9,0,97.9,16.3,136.1,43.9C919.4,430,858.3,401,790.3,401
			c-78.3,0-147.4,38.6-189.3,97.5c-78.4,23.1-135.6,94.9-135.6,180c0,64,32.4,120.5,81.7,154.4c-28.9-32.9-46.4-75.9-46.4-123
			C500.8,624.8,558,553,636.3,529.9z"/>
	</g>
	<path class="st3" d="M408.9,425.3c-3.6,0-7.2,0.1-10.8,0.3c-41.8-40.9-99.2-66.2-162.5-66.2c-127.7,0-231.2,102.5-231.2,229
		c0,126.5,103.5,229,231.2,229c3.6,0,7.2-0.1,10.8-0.3c41.8,40.9,99.2,66.2,162.5,66.2c127.7,0,231.2-102.5,231.2-229
		C640.1,527.8,536.6,425.3,408.9,425.3z"/>
	<g>
		<path class="st3" d="M270.9,414.3c63.4,0,120.8,25.3,162.5,66.2c3.6-0.2,7.2-0.3,10.8-0.3c70.2,0,126.7,20.2,169.1,69.1
			C577,469.8,502.7,425.3,408.9,425.3c-3.6,0-7.2,0.1-10.8,0.3c-41.8-40.9-99.2-66.2-162.5-66.2c-127.7,0-231.2,102.5-231.2,229
			c0,56.9,21,109,55.7,149c-13.1-28.7-20.4-60.5-20.4-94C39.6,516.8,143.2,414.3,270.9,414.3z"/>
	</g>
</g>
</svg>
