<?xml version="1.0" encoding="utf-8"?>
<!-- Generator: Adobe Illustrator 25.0.0, SVG Export Plug-In . SVG Version: 6.00 Build 0)  -->
<svg version="1.1" id="Layer_1" xmlns="http://www.w3.org/2000/svg" xmlns:xlink="http://www.w3.org/1999/xlink" x="0px" y="0px"
	 viewBox="0 0 1424 1635" style="enable-background:new 0 0 1424 1635;" xml:space="preserve">
<style type="text/css">
	.st0{fill:#023D91;}
	.st1{fill:#043C7F;}
	.st2{fill:#D3E8F4;}
</style>
<g>
	<path class="st0" d="M620.5,1613.5c-7.3-6.6,34.4-67.5,38.1-91.8c24.7-160.6,28.8-448.5-70-530.9C514.3,928.9,394,922,338.4,752
		l46.3,5.7c9.4,38.4,77.2,128.3,222.5,167.4c43.6,11.7-12.4-133.5-3.1-172.1l40.2-6.3c6.2,197.1,126.7,181.5,204.9-15.6l45.3,0
		c5.4,26.4-102.7,191.9,3.1,169c129.8-28.2,175.1-107.8,166.8-128.3l40.2,6.3c-27.8,150.2-231.7,194-231.7,194
		c-83.4,62.6-73.1,180.4-73.1,263.9c0,127,4.1,212.4,8.2,288.4c2.3,42.2,53.3,77.4,43.3,89.2c-10,11.7-42.1,5.1-63.9,0
		c-28.2-6.6-53.5-9.4-104-2.1C670.2,1613.3,628.7,1620.9,620.5,1613.5z"/>
	<g>
		<path class="st1" d="M851.2,1613.5c10-11.7-40.9-46.9-43.3-89.2c-4.2-76-8.2-161.4-8.2-288.4c0-83.4-10.3-201.3,73.1-263.9
			c0,0,203.9-43.8,231.7-194l-40.2-6.3c7.7,19-31,89.2-140.7,121.6c-9.6,18-36.6,31.7-66.3,40.1c-37.1,10.4-98.9,78.2-102,166.9
			c-2.1,60.8,19.6,294.1,13.4,394.2c-3.7,60,3.5,115.4,18.5,118.9C809.1,1618.6,841.2,1625.2,851.2,1613.5z"/>
	</g>
	<path class="st2" d="M1192.8,414c0-96-84.2-173.8-188.1-173.8c-12,0-23.8,1.1-35.2,3.1c-27-50.5-79.7-87.1-142.4-95.2
		C793.6,70.7,701.2,15,592.3,15c-133.6,0-242.5,83.8-248.1,188.8c-94,9.6-167.1,83.2-167.1,172.6c0,96,84.2,173.7,188.1,173.7
		c27.1,0,52.9-5.3,76.2-14.9c2.7,4.6,5.7,9.1,8.8,13.4c-13,19.4-20.1,40.4-20.1,62.4c0,96,134.9,173.7,301.2,173.7
		c166.4,0,301.2-77.8,301.2-173.7c0-8.5-1.1-16.8-3.1-24.9C1121.6,575.1,1192.8,502.2,1192.8,414z"/>
	<g>
		<path class="st2" d="M588.1,347.5c60.8,71.2,163.8,118.1,280.7,118.1c129.8,0,242.5-57.8,299.2-142.7
			c-33.1-49.6-92.5-82.7-160.2-82.7c-12,0-23.8,1.1-35.2,3.1c-27-50.5-79.8-87.1-142.4-95.2C796.7,70.7,704.3,15,595.4,15
			c-133.6,0-242.5,83.8-248.1,188.8c-69.3,7.1-127.2,49-152.9,106.3c60.3,44.1,140.9,71,229.5,71
			C483.5,381.1,539.5,368.9,588.1,347.5z"/>
	</g>
	<g>
		<path class="st2" d="M396.7,266.4c5.5-105,114.5-188.8,248.1-188.8c71.9,0,136.5,24.4,181.8,63.1C790.5,67.2,700.7,15,595.4,15
			c-133.6,0-242.5,83.8-248.1,188.8c-94,9.6-167.1,83.2-167.1,172.6c0,52.3,25,99.1,64.6,131c-9.7-21-15.2-44.1-15.2-68.4
			C229.6,349.6,302.8,276,396.7,266.4z"/>
	</g>
	<path class="st2" d="M486.5,530.8c1.3-7.5,1.9-15.1,1.9-22.9c0-80.4-69.7-145.6-155.7-145.6c-52.6,0-99.1,24.4-127.2,61.8
		c-14.4-4.9-29.8-7.6-45.8-7.6C81.5,416.5,18,479.6,18,557.4c0,64.9,44.1,119.4,104.1,135.8c-3.4,8.1-5.2,16.8-5.2,25.8
		c0,46.7,48.9,84.6,109.3,84.6c32.3,0,61.1-10.9,81.2-28.1c20.9,6,43.5,9.3,67.1,9.3c103.9,0,188.1-63.1,188.1-140.9
		C562.6,597.6,532.7,556.4,486.5,530.8z"/>
	<g>
		<path class="st2" d="M75.7,515.2c0,62.2,49.8,112.6,111.2,112.6c33.8,0,64.1-15.3,84.5-39.5c27.2,36.8,76,61.4,131.8,61.4
			c60.4,0,112.7-28.8,138.1-70.8c-13.2-19-32-35.5-54.9-48.2c1.3-7.5,1.9-15.1,1.9-22.9c0-80.4-69.7-145.6-155.7-145.6
			c-52.6,0-99.1,24.4-127.2,61.8c-14.4-4.9-29.8-7.6-45.8-7.6c-11.2,0-22,1.3-32.4,3.7C96.3,440.3,75.7,475.3,75.7,515.2z"/>
	</g>
	<g>
		<path class="st2" d="M209.2,472.8c16,0,31.4,2.7,45.8,7.6c28.2-37.4,74.6-61.8,127.2-61.8c34.3,0,66,10.4,91.8,28
			c-24.7-49.8-78.6-84.3-141.2-84.3c-52.6,0-99.1,24.4-127.2,61.8c-14.4-4.9-29.8-7.6-45.8-7.6C81.5,416.5,18,479.6,18,557.4
			c0,49.1,25.3,92.2,63.6,117.5c-9-18.5-14.1-39.2-14.1-61.1C67.4,535.9,130.9,472.8,209.2,472.8z"/>
	</g>
	<path class="st2" d="M1286.9,528.4c2.1-8.1,3.3-16.5,3.3-25.2c0-59.7-51-108-113.9-108c-49.7,0-91.8,30.2-107.4,72.3
		C1044,443,1009.9,428,972.3,428c-75.7,0-137.1,61-137.1,136.2c0,48.5,25.6,91.1,64,115.2c-0.4,3.8-0.7,7.6-0.7,11.5
		c0,59.7,51,108,113.9,108c19.6,0,38.1-4.7,54.1-13c35,17,77.5,27,123.5,27c119.2,0,215.9-67.3,215.9-150.3
		C1406,604,1357.5,553.1,1286.9,528.4z"/>
	<g>
		<path class="st2" d="M1030.4,597.6c25.3,0,49.2-4.4,70.7-12.2c30.6,27.9,76.2,45.6,127,45.6c56.9,0,107.2-22.1,137.3-55.9
			c-20.3-19.7-47.2-35.8-78.6-46.7c2.1-8.1,3.2-16.5,3.2-25.2c0-59.7-51-108-113.9-108c-49.7,0-91.8,30.2-107.4,72.3
			C1044,443,1009.9,428,972.3,428c-43.9,0-82.9,20.5-108,52.3C872.1,546.1,943.5,597.6,1030.4,597.6z"/>
	</g>
	<g>
		<path class="st2" d="M1005.2,478c37.6,0,71.7,15.1,96.5,39.4c15.6-42.1,57.7-72.3,107.4-72.3c29.5,0,56.3,10.7,76.5,28.1
			c-13.7-45.1-57.5-78.2-109.4-78.2c-49.7,0-91.8,30.2-107.4,72.3C1044,443,1009.9,428,972.3,428c-75.7,0-137.1,61-137.1,136.2
			c0,38.3,16,72.9,41.6,97.6c-5.6-14.8-8.7-30.8-8.7-47.5C868.1,539,929.5,478,1005.2,478z"/>
	</g>
	<g>
		<path class="st1" d="M702.9,908.4c32.7,6.6,53.5-5.2,65.9-14.6c12.3-9.4,15.6-37,16.7-50c-50,58.7-101.1,58.4-125.9-6.3
			C662.6,852.7,661.7,900.1,702.9,908.4z"/>
	</g>
	<g>
		<path class="st1" d="M812.6,900.1c14.5,21.4,53.8,11.9,71.7,1.9c-70,4.9-10.2-103.3,6.4-151.7l-30.2,12.1
			C860.5,762.4,795.6,875.1,812.6,900.1z"/>
	</g>
</g>
</svg>
