<?xml version="1.0" encoding="utf-8"?>
<!-- Generator: Adobe Illustrator 16.0.0, SVG Export Plug-In . SVG Version: 6.00 Build 0)  -->
<!DOCTYPE svg PUBLIC "-//W3C//DTD SVG 1.1//EN" "http://www.w3.org/Graphics/SVG/1.1/DTD/svg11.dtd">
<svg version="1.1" id="Layer_1" xmlns="http://www.w3.org/2000/svg" xmlns:xlink="http://www.w3.org/1999/xlink" x="0px" y="0px"
	 width="127.955px" height="159.084px" viewBox="0 0 127.955 159.084" enable-background="new 0 0 127.955 159.084"
	 xml:space="preserve">
<g id="Group_650" transform="translate(-418.523 -3085.167)">
	<g id="baby" transform="translate(418.523 3091.165)">
		<path id="Path_3032" fill="#E8DAF7" d="M71.126,54.782c0.262,4.282,0.923,8.674,1.566,12.92c1.43,9.468,2.906,19.264-1.185,23.057
			c-0.827,0.766-2.241,1.647-5.858,1.647c-3.688,0-8.487-0.941-13.567-1.933c-6.9-1.35-14.717-2.879-23.131-2.879
			c-8.141,0-15.794,3.576-22.131,10.34c-1.236,1.328-2.393,2.729-3.466,4.193c-1.365-1.012-2.385-2.42-2.922-4.032
			c-1.464-4.38,0.9-9.117,5.28-10.581c0,0,0.001,0,0.001,0l16.261-5.43c0,0,4.878-2.363,13.059-0.948
			c8.181,1.415,15.196,2.632,15.196,2.632c0.151,0.025,0.29,0.065,0.437,0.1L55.1,67.58l-14.033,2.793
			c-0.539,0.106-1.086,0.161-1.636,0.162c-2.392,0-4.669-1.025-6.256-2.815l-13.1-14.776c-3.064-3.456-2.747-8.741,0.708-11.806h0
			c3.453-3.065,8.737-2.75,11.802,0.704c0.001,0.001,0.002,0.003,0.004,0.005l9.92,11.185l24.274-4.833
			c1.258-0.486,2.574-0.799,3.916-0.931C70.821,49.79,70.972,52.297,71.126,54.782z"/>
		<path id="Path_3033" fill="#E8DAF7" d="M79.253,1.988C74.5,8.865,71.735,17.33,70.803,27.86c-0.382,4.766-0.484,9.55-0.309,14.328
			c-9.09-2.754-15.308-11.133-15.309-20.632c0-11.907,9.652-21.561,21.559-21.561c0.001,0,0.001,0,0.002,0
			c1.24,0.002,2.479,0.111,3.7,0.327C80.047,0.864,79.646,1.415,79.253,1.988z"/>
	</g>
	<path id="Path_3034" fill="#FFFFFF" d="M431.331,3231.253v8.847c-0.002,2.291,1.854,4.148,4.144,4.15c0.002,0,0.004,0,0.006,0
		h76.592c2.292,0,4.15-1.857,4.15-4.15v-11.431h-84.892V3231.253z"/>
	<path id="Path_3035" fill="#FFFFFF" d="M520.088,3217.322l26.267-120.313c0.404-1.854-0.214-3.784-1.621-5.058
		c-0.306-0.276-7.616-6.785-17.713-6.785c-6.293,0-15.577,2.584-24.086,14.9c-9.2,13.306-8.095,31.371-7.028,48.841
		c0.915,14.985,7.292,32.708-1.613,40.961c-8.906,8.252-26.601-1.489-46.82-1.489c-20.22,0-28.6,27.6-28.563,28.155
		c0.182,2.784,2.495,4.949,5.286,4.946h90.723C517.405,3221.48,519.555,3219.75,520.088,3217.322z"/>
</g>
</svg>
