<?xml version="1.0" encoding="utf-8"?>
<!-- Generator: Adobe Illustrator 16.0.0, SVG Export Plug-In . SVG Version: 6.00 Build 0)  -->
<!DOCTYPE svg PUBLIC "-//W3C//DTD SVG 1.1//EN" "http://www.w3.org/Graphics/SVG/1.1/DTD/svg11.dtd">
<svg version="1.1" id="Layer_1" xmlns="http://www.w3.org/2000/svg" xmlns:xlink="http://www.w3.org/1999/xlink" x="0px" y="0px"
	 width="1000px" height="1000px" viewBox="0 0 1000 1000" enable-background="new 0 0 1000 1000" xml:space="preserve">
<path fill="#EEEBF2" d="M989.053,666.174c0.101-2.762,0.494-5.424,0.494-8.383c0-85.602-69.429-155.029-155.03-155.029
	c-23.569,0-45.759,5.424-65.778,14.793c0.395-4.932,0.789-9.861,0.789-14.793c0-93.886-76.135-170.02-170.021-170.02
	c-70.02,0-129.979,42.308-156.114,102.663c-18.047-7.988-37.969-12.623-58.975-12.623c-67.455,0-124.063,46.153-140.236,108.679
	c-22.288-11.835-47.732-18.64-74.852-18.64c-86.193,0-156.213,68.048-159.764,153.354L989.053,666.174L989.053,666.174z"/>
</svg>
