<?xml version="1.0" encoding="utf-8"?>
<!-- Generator: Adobe Illustrator 16.0.0, SVG Export Plug-In . SVG Version: 6.00 Build 0)  -->
<!DOCTYPE svg PUBLIC "-//W3C//DTD SVG 1.1//EN" "http://www.w3.org/Graphics/SVG/1.1/DTD/svg11.dtd">
<svg version="1.1" id="Layer_1" xmlns="http://www.w3.org/2000/svg" xmlns:xlink="http://www.w3.org/1999/xlink" x="0px" y="0px"
	 width="836.8px" height="1245.4px" viewBox="0 0 836.8 1245.4" enable-background="new 0 0 836.8 1245.4" xml:space="preserve">
<g id="blog-right" transform="translate(-1303.227 -827.553)">
	<path id="Path_2" fill="#250951" d="M2005.5,1727.9c-231.9-106.5-249.6,11.4-359.8,123.9c-80.7,65.1-244.1-24.6-225.2-158.9
		c43.1-305.3-44.4-285.1-79.3-475.1c-14.7-80,11-153.5,63.9-185.2c174.7-104.8,504.4,161.6,632.599,350.5
		C2186.199,1592.9,2171,1819.9,2005.5,1727.9z"/>
	<path id="Path_4" fill="none" stroke="#E6F3FB" stroke-width="1.0001" stroke-miterlimit="4.0005" d="M1971.6,1704.9
		c-231.9-106.5-249.599,11.4-359.799,123.9c-80.7,65.1-244.1-24.6-225.2-158.9c43.1-305.3-44.4-285.1-79.3-475.1
		c-14.7-80,11-153.5,63.9-185.2c174.7-104.8,504.399,161.6,632.601,350.5C2152.301,1569.9,2137,1796.9,1971.6,1704.9z"/>
</g>
</svg>
