<?xml version="1.0" encoding="utf-8"?>
<!-- Generator: Adobe Illustrator 16.0.0, SVG Export Plug-In . SVG Version: 6.00 Build 0)  -->
<!DOCTYPE svg PUBLIC "-//W3C//DTD SVG 1.1//EN" "http://www.w3.org/Graphics/SVG/1.1/DTD/svg11.dtd">
<svg version="1.1" id="Layer_1" xmlns="http://www.w3.org/2000/svg" xmlns:xlink="http://www.w3.org/1999/xlink" x="0px" y="0px"
	 width="856px" height="1222px" viewBox="0 0 856 1222" enable-background="new 0 0 856 1222" xml:space="preserve">
<g id="blog-left" transform="translate(395.553 -946.591)">
	<g id="Group_4" transform="translate(94.147 3130.152) rotate(-109)">
		<path id="Path_1-2" fill="#E8DAF7" d="M1873.8,127.298c45.8,53.2,93.5,109.9,116.9,192c23.5,82.1,12.2,196.7-38.6,236.5
			c-55.8,43.699-118.8-20.3-176.5-57c-85.4-54.5-185.599-47.3-267.599,19.2c-84.9,68.8-149.099,195.7-238.799,247.201
			c-76.3,43.901-167.6,23.101-228.501-62.1C979.8,617.899,955.6,468.498,989.5,351.299c27.002-93.299,84.9-156.5,146.299-188
			c61.4-31.5,126.801-35.499,191.301-39.2"/>
	</g>
	<g id="Group_5" transform="translate(94.147 3097.026) rotate(-109)">
		<path id="Path_1-2-2" fill="none" stroke="#250951" d="M1873.8,127.298c45.8,53.2,93.5,109.9,116.9,192
			c23.5,82.1,12.201,196.7-38.6,236.5c-55.799,43.7-118.8-20.3-176.5-57c-85.4-54.5-185.6-47.3-267.599,19.2
			c-84.9,68.8-149.099,195.7-238.8,247.201c-76.3,43.901-167.6,23.101-228.5-62.1c-60.902-85.201-85.1-234.599-51.2-351.799
			c27-93.301,84.899-156.5,146.299-188.001c61.4-31.5,126.8-35.5,191.3-39.2"/>
	</g>
</g>
</svg>
