<?xml version="1.0" encoding="utf-8"?>
<!-- Generator: Adobe Illustrator 16.0.0, SVG Export Plug-In . SVG Version: 6.00 Build 0)  -->
<!DOCTYPE svg PUBLIC "-//W3C//DTD SVG 1.1//EN" "http://www.w3.org/Graphics/SVG/1.1/DTD/svg11.dtd">
<svg version="1.1" id="Layer_1" xmlns="http://www.w3.org/2000/svg" xmlns:xlink="http://www.w3.org/1999/xlink" x="0px" y="0px"
	 width="405.5px" height="967.383px" viewBox="0 0 405.5 967.383" enable-background="new 0 0 405.5 967.383" xml:space="preserve">
<g id="Group_570" transform="translate(0 -9.844)">
	<g id="Group_568">
		<path id="Path_3077" fill="#E8DAF7" d="M287.992,42.9c-33.274,14.811-53.75,35.208-152.748,162.247
			C61.92,299.239,24.734,346.51,18.372,364.56c-39.129,111.01-7.42,208.441,18.12,286.941
			C58.23,718.3,88.435,811.114,176.362,884.268c74.32,61.84,151.592,77.764,228.638,92.957V34.561
			C338.726,28.708,316.651,30.15,287.992,42.9z"/>
	</g>
	<g id="Group_569">
		<path id="Path_3078" fill="none" stroke="#250951" d="M297.762,21.909c-33.273,14.812-53.75,35.209-152.748,162.248
			C71.69,278.252,34.5,325.523,28.142,343.573c-39.129,111.009-7.42,208.443,18.12,286.943
			C68,697.321,98.206,790.13,186.132,863.284C257.311,922.51,331.2,939.62,405,954.307V12.739
			C346.234,7.9,324.965,9.811,297.762,21.909z"/>
	</g>
</g>
</svg>
