<?xml version="1.0" encoding="utf-8"?>
<!-- Generator: Adobe Illustrator 16.0.0, SVG Export Plug-In . SVG Version: 6.00 Build 0)  -->
<!DOCTYPE svg PUBLIC "-//W3C//DTD SVG 1.1//EN" "http://www.w3.org/Graphics/SVG/1.1/DTD/svg11.dtd">
<svg version="1.1" id="Layer_1" xmlns="http://www.w3.org/2000/svg" xmlns:xlink="http://www.w3.org/1999/xlink" x="0px" y="0px"
	 width="735px" height="884.604px" viewBox="0 0 735 884.604" enable-background="new 0 0 735 884.604" xml:space="preserve">
<g id="Group_567" transform="translate(0 -0.527)">
	<g id="Group_565">
		<path id="Path_3074" fill="#E8DAF7" d="M697.431,373.275c-37.242-72.39-107.536-124.9-133.069-143.649
			c-61.282-44.989-122.61-72.734-328.345-146.054C138.862,48.947,62.789,21.837,0,0.527v862.655c12.119,1.56,23.992,3.06,35.617,4.5
			c108.129,13.51,258.331,32.282,384.934-1.938c108.619-29.362,143.049-82.377,177.34-135.196
			c6.947-10.711,8.648-16.37,15.486-30.307c51.678-105.433,78.243-114.941,94.942-166.264
			C718.039,504.1,736.138,448.495,697.431,373.275z"/>
	</g>
	<g id="Group_566">
		<path id="Path_3075" fill="none" d="M136.953,804.861c55.118,6.888,122.039,15.249,190.032,15.25
			c49.3,0,99.145-4.391,145.513-16.924c42.427-11.468,75.62-28.214,101.475-51.194c23.049-20.485,38.249-43.899,52.948-66.54
			c3.434-5.339,6.424-10.951,8.939-16.779c1.258-2.729,2.684-5.823,4.541-9.61c23.231-47.39,40.325-72.1,54.062-91.959
			c12.577-18.182,21.664-31.318,28.706-52.958c8.462-26.009,24.207-74.4-9.471-139.859C680.6,309.964,618.26,264.2,597.774,249.159
			c-53.837-39.523-110-64.507-286.2-127.3C163.967,69.252,72.009,36.481,0,15.76v769.167
			C48.956,793.859,94.911,799.606,136.953,804.861z"/>
		<path id="Path_3076" fill="#DEEAF7" d="M714.3,373.979c-33.166-64.464-95.605-110.3-116.124-125.364
			c-53.899-39.569-110.1-64.571-286.368-127.391C164.057,68.568,72.058,35.783,0,15.059v0.7
			c72.009,20.721,163.967,53.492,311.577,106.1c176.191,62.793,232.36,87.777,286.2,127.3C618.26,264.2,680.6,309.964,713.7,374.287
			c33.678,65.455,17.933,113.851,9.471,139.859c-7.042,21.64-16.129,34.775-28.706,52.958
			c-13.736,19.856-30.83,44.569-54.062,91.959c-1.857,3.787-3.283,6.881-4.541,9.61c-2.516,5.828-5.506,11.44-8.939,16.779
			c-14.7,22.643-29.899,46.055-52.948,66.54c-25.854,22.98-59.048,39.727-101.475,51.194
			c-46.368,12.533-96.218,16.926-145.513,16.924c-67.993,0-134.915-8.362-190.032-15.25c-42.042-5.255-88-11-136.953-19.934v0.684
			c48.937,8.924,94.879,14.67,136.922,19.924c55.113,6.889,122.025,15.251,190.059,15.25c49.335,0,99.265-4.399,145.693-16.947
			c42.529-11.5,75.813-28.289,101.747-51.341c23.117-20.546,38.342-44,53.065-66.677c3.452-5.366,6.457-11.007,8.985-16.865
			c1.257-2.725,2.681-5.814,4.534-9.6c23.21-47.345,40.288-72.035,54.011-91.873c12.609-18.229,21.721-31.4,28.801-53.142
			C732.3,488.252,748.1,439.683,714.3,373.979z"/>
	</g>
</g>
</svg>
