<?xml version="1.0" encoding="utf-8"?>
<!-- Generator: Adobe Illustrator 16.0.0, SVG Export Plug-In . SVG Version: 6.00 Build 0)  -->
<!DOCTYPE svg PUBLIC "-//W3C//DTD SVG 1.1//EN" "http://www.w3.org/Graphics/SVG/1.1/DTD/svg11.dtd">
<svg version="1.1" id="Group_646" xmlns="http://www.w3.org/2000/svg" xmlns:xlink="http://www.w3.org/1999/xlink" x="0px" y="0px"
	 width="1257.063px" height="491.637px" viewBox="0 0 1257.063 491.637" enable-background="new 0 0 1257.063 491.637"
	 xml:space="preserve">
<path id="Path_3842" fill="#250951" d="M902.537,374.346h-10.891c-0.006-43.593-11.018-75.777,16.653-110.523
	c25.854-32.466,72.065-34.535,116.814-34.535c77.956,0,141.152,63.196,141.152,141.152v3.906H902.537L902.537,374.346z"/>
<path id="Path_3843" fill="#250951" d="M71.187,374.346h-27.6c0-43.593,5.691-75.777,33.363-110.523
	c25.854-32.466,72.065-34.535,116.814-34.535c77.957,0,141.153,63.196,141.153,141.152v3.906H71.187L71.187,374.346z"/>
<g id="Group_633" transform="translate(0 0)">
	<path id="Path_3844" fill="#013173" d="M18.964,243.117c-8.4-123.627,96.8-189.521,115.7-199.724l-12.9-10.022l5.641-8.823
		C329.048-13.861,626.412,2.583,682.344,9.305c55.933,6.722,244.133,101.783,280.624,121.465
		c128.429,7.2,221.329,35.769,231.172,42.97c28.326,24.486,64.093,83.779,62.894,123.388c-2.734,44.9-41.492,87.168-83.943,98.271
		c-2.908,0.761-5.884-0.98-6.645-3.889c-0.118-0.451-0.178-0.914-0.178-1.38v-19.69c-0.008-77.968-63.221-141.167-141.188-141.158
		c-43.005,0.004-83.661,19.61-110.442,53.258c-27.685,34.768-22.991,48.221-22.991,91.872c-0.018,9.463-7.685,17.13-17.147,17.147
		H342.27c-9.463-0.018-17.129-7.685-17.147-17.147c0-43.649,4.695-57.101-22.991-91.872
		c-48.556-61.003-137.371-71.094-198.374-22.538c-33.646,26.78-53.25,67.436-53.256,110.438v16.33
		c0.001,3.006-2.436,5.444-5.442,5.445c-0.466,0-0.929-0.061-1.379-0.178C41.993,391.596,5.76,371.186,0,329.896V251.01
		c0.008-4.355,3.537-7.884,7.892-7.893H18.964z"/>
	<g>
		<defs>
			<path id="SVGID_1_" d="M18.964,243.117c-8.4-123.627,96.8-189.521,115.7-199.724l-12.9-10.022l5.641-8.823
				C329.048-13.861,626.412,2.583,682.344,9.305c55.933,6.722,244.133,101.783,280.624,121.465
				c128.429,7.2,221.329,35.769,231.172,42.97c28.326,24.486,64.093,83.779,62.894,123.388c-2.734,44.9-41.492,87.168-83.943,98.271
				c-2.908,0.761-5.884-0.98-6.645-3.889c-0.118-0.451-0.178-0.914-0.178-1.38v-19.69c-0.008-77.968-63.221-141.167-141.188-141.158
				c-43.005,0.004-83.661,19.61-110.442,53.258c-27.685,34.768-22.991,48.221-22.991,91.872c-0.018,9.463-7.685,17.13-17.147,17.147
				H342.27c-9.463-0.018-17.129-7.685-17.147-17.147c0-43.649,4.695-57.101-22.991-91.872
				c-48.556-61.003-137.371-71.094-198.374-22.538c-33.646,26.78-53.25,67.436-53.256,110.438v16.33
				c0.001,3.006-2.436,5.444-5.442,5.445c-0.466,0-0.929-0.061-1.379-0.178C41.993,391.596,5.76,371.186,0,329.896V251.01
				c0.008-4.355,3.537-7.884,7.892-7.893H18.964z"/>
		</defs>
		<clipPath id="SVGID_2_">
			<use xlink:href="#SVGID_1_"  overflow="visible"/>
		</clipPath>
		<g id="Group_632" clip-path="url(#SVGID_2_)">
			<rect id="Rectangle_22" x="-0.001" y="-13.859" fill="#412160" width="1258.234" height="409.7"/>
		</g>
	</g>
</g>
<g id="Group_635" transform="translate(17.637 120.066)">
	<path id="Path_3846" fill="#0C4589" d="M1.327,123.05c-1.485-21.841-3.5-43.4,5.086-60.121
		c27.2-52.958,121.385-53.792,174.041-57.88c63.536-4.934,132.942-5.69,203.874-4.635c274.057,4.078,568.753,43.217,615.948,47.646
		l80.887-20.848c20.629,3.939,38.484,8.084,53.021,11.941c15.868,29.261,32.854,59.474,32.854,59.474l-16.436,15.762
		c-18.418-16.064-49.261-27.711-89.182-36.235c-62.986-13.451-260.857-21.214-464.366-27.4c-242.892-7.388-493.812-10.5-533.023,9.6
		c-29.9,13.794-43.418,63.6-62.7,62.7"/>
	<g>
		<defs>
			<path id="SVGID_3_" d="M1.327,123.05c-1.485-21.841-3.5-43.4,5.086-60.121c27.2-52.958,121.385-53.792,174.041-57.88
				c63.536-4.934,132.942-5.69,203.874-4.635c274.057,4.078,568.753,43.217,615.948,47.646l80.887-20.848
				c20.629,3.939,38.484,8.084,53.021,11.941c15.868,29.261,32.854,59.474,32.854,59.474l-16.436,15.762
				c-18.418-16.064-49.261-27.711-89.182-36.235c-62.986-13.451-260.857-21.214-464.366-27.4
				c-242.892-7.388-493.812-10.5-533.023,9.6c-29.9,13.794-43.418,63.6-62.7,62.7"/>
		</defs>
		<clipPath id="SVGID_4_">
			<use xlink:href="#SVGID_3_"  overflow="visible"/>
		</clipPath>
		<g id="Group_634" clip-path="url(#SVGID_4_)">
			<rect id="Rectangle_23" x="-2.173" y="-0.64" fill="#2E1051" width="1169.209" height="124.59"/>
		</g>
	</g>
</g>
<g id="Group_637" transform="translate(24.645 200.614)">
	<g>
		<defs>
			<path id="SVGID_5_" d="M338.344,190.948h-20.72c-9.462-0.018-17.129-7.685-17.147-17.147c0-43.649,4.7-57.101-22.991-91.872
				C228.932,20.925,140.118,10.833,79.114,59.387c-33.647,26.78-53.253,67.438-53.258,110.442v16.33
				c0.001,3.006-2.436,5.444-5.442,5.445c-0.466,0-0.929-0.061-1.379-0.178c-0.8-0.209-9.427-4.943-18.868-14.3
				c-0.1-2.423-0.166-4.854-0.166-7.3C0.048,76.034,76.121,0.04,169.913,0.088C263.706,0.136,339.7,76.209,339.652,170.001
				c-0.004,7.004-0.44,14-1.308,20.949"/>
		</defs>
		<clipPath id="SVGID_6_">
			<use xlink:href="#SVGID_5_"  overflow="visible"/>
		</clipPath>
		<g id="Group_636" transform="translate(0)" clip-path="url(#SVGID_6_)">
			<rect id="Rectangle_24" x="0" y="0.001" fill="#2E1051" width="339.651" height="191.865"/>
		</g>
	</g>
</g>
<g id="Group_639" transform="translate(848.807 194.132)">
	<path id="Path_3849" fill="#0C4589" d="M352.137,189.281c-8.659,5.317-18.041,9.354-27.855,11.985
		c-2.908,0.762-5.884-0.979-6.645-3.889c-0.118-0.449-0.178-0.913-0.177-1.379v-19.691C317.452,98.341,254.24,35.142,176.272,35.15
		c-43.005,0.004-83.661,19.61-110.442,53.258c-27.685,34.767-22.99,48.222-22.99,91.872c-0.018,9.463-7.686,17.131-17.148,17.148
		H1.264c-0.84-7.01-1.263-14.062-1.267-21.121c0-97.371,78.936-176.307,176.308-176.307c97.371,0,176.307,78.936,176.307,176.307
		c0,4.365-0.159,8.689-0.478,12.974"/>
	<g>
		<defs>
			<path id="SVGID_7_" d="M352.137,189.281c-8.659,5.317-18.041,9.354-27.855,11.985c-2.908,0.762-5.884-0.979-6.645-3.889
				c-0.118-0.449-0.178-0.913-0.177-1.379v-19.691C317.452,98.341,254.24,35.142,176.272,35.15
				c-43.005,0.004-83.661,19.61-110.442,53.258c-27.685,34.767-22.99,48.222-22.99,91.872c-0.018,9.463-7.686,17.131-17.148,17.148
				H1.264c-0.84-7.01-1.263-14.062-1.267-21.121c0-97.371,78.936-176.307,176.308-176.307c97.371,0,176.307,78.936,176.307,176.307
				c0,4.365-0.159,8.689-0.478,12.974"/>
		</defs>
		<clipPath id="SVGID_8_">
			<use xlink:href="#SVGID_7_"  overflow="visible"/>
		</clipPath>
		<g id="Group_638" transform="translate(0)" clip-path="url(#SVGID_8_)">
			<rect id="Rectangle_25" x="0" y="0.001" fill="#2E1051" width="352.614" height="201.708"/>
		</g>
	</g>
</g>
<path id="Path_3851" fill="#0A6CB4" d="M1025.118,294.189c-42.112,0-76.25,34.138-76.25,76.25c0,42.111,34.138,76.249,76.25,76.249
	c42.111,0,76.25-34.138,76.25-76.249C1101.367,328.328,1067.229,294.189,1025.118,294.189"/>
<path id="Path_3852" fill="#323232" d="M1025.114,290.771c-44,0-79.668,35.669-79.668,79.668c0,44,35.668,79.669,79.668,79.669
	c43.999,0,79.668-35.669,79.668-79.669l0,0C1104.781,326.441,1069.113,290.772,1025.114,290.771 M1025.114,249.242
	c-66.938,0-121.2,54.263-121.2,121.199c0,66.938,54.263,121.2,121.2,121.2c66.937,0,121.2-54.263,121.2-121.2l0,0
	C1146.314,303.505,1092.051,249.242,1025.114,249.242z"/>
<path id="Path_3853" fill="#BBBBBB" d="M1025.114,308.055c-34.454,0-62.386,27.932-62.386,62.385
	c0,34.455,27.932,62.386,62.386,62.386s62.385-27.931,62.385-62.386c0.001-34.453-27.93-62.384-62.383-62.385
	C1025.115,308.055,1025.114,308.055,1025.114,308.055 M1025.114,290.771c-44,0-79.668,35.669-79.669,79.668
	c0,44,35.669,79.669,79.668,79.669c44,0,79.669-35.669,79.669-79.669l0,0C1104.781,326.441,1069.113,290.772,1025.114,290.771
	L1025.114,290.771z"/>
<path id="Path_3854" fill="#A5A5A5" d="M1025.115,308.055c-34.454,0-62.385,27.932-62.385,62.385
	c0,34.455,27.931,62.386,62.385,62.386s62.385-27.931,62.385-62.386c0.001-34.453-27.929-62.384-62.383-62.385
	C1025.116,308.055,1025.116,308.055,1025.115,308.055 M1025.115,301.372c-38.146,0.001-69.067,30.924-69.067,69.069
	c0.001,38.145,30.924,69.067,69.069,69.066c38.145,0,69.066-30.923,69.066-69.068
	C1094.184,332.295,1063.262,301.372,1025.115,301.372c0,0-0.001,0-0.002,0H1025.115z"/>
<path id="Path_3855" fill="#BBBBBB" d="M1011.229,344.286c-2.464,1.309-4.73,2.958-6.734,4.899
	c-27.246-1.893-37.33-14.68-37.748-21.267c-6.012,6.574-9.539,17.601-10.326,20.261c-0.923,2.613-4.55,13.61-3.546,22.461
	c4.208-5.084,19.876-9.507,43.03,4.959c0.479,2.75,1.345,5.416,2.572,7.922c-10.244,25.301-25.519,30.916-31.91,29.273
	c4.387,7.753,13.779,14.524,16.062,16.1c2.2,1.688,11.53,8.545,20.256,10.333c-3.53-5.575-2.878-21.848,18.063-39.38
	c1.38,0.195,2.772,0.293,4.167,0.293s2.788-0.097,4.17-0.291c20.938,17.531,21.59,33.801,18.061,39.378
	c8.727-1.788,18.058-8.646,20.256-10.333c2.282-1.572,11.677-8.345,16.062-16.1c-6.39,1.643-21.667-3.976-31.91-29.273
	c1.228-2.506,2.095-5.172,2.573-7.922c23.152-14.466,38.822-10.043,43.029-4.959c1-8.851-2.623-19.848-3.546-22.461
	c-0.788-2.656-4.313-13.687-10.325-20.261c-0.418,6.588-10.5,19.375-37.748,21.267c-2.004-1.941-4.271-3.591-6.735-4.899
	c-6.606-26.487,2.438-40.024,8.574-42.455c-8.109-3.688-19.688-3.636-22.46-3.565c-2.77-0.07-14.35-0.123-22.458,3.565
	C1008.79,304.262,1017.837,317.798,1011.229,344.286"/>
<path id="Path_3856" fill="#A5A5A5" d="M1025.117,362.364c-4.46,0.001-8.076,3.616-8.075,8.077c0.001,4.46,3.617,8.075,8.077,8.074
	c4.46,0,8.075-3.615,8.075-8.076C1033.194,365.98,1029.578,362.364,1025.117,362.364L1025.117,362.364"/>
<path id="Path_3857" fill="#195252" d="M1025.113,349.52c-1.917,0-3.472,1.555-3.472,3.471c0,1.918,1.555,3.472,3.472,3.472
	s3.471-1.554,3.471-3.471l0,0C1028.584,351.074,1027.03,349.52,1025.113,349.52"/>
<path id="Path_3858" fill="#195252" d="M1045.014,363.977c-0.591-1.824-2.549-2.823-4.372-2.232
	c-1.823,0.592-2.822,2.549-2.231,4.373c0.592,1.823,2.549,2.822,4.372,2.23c0.001,0,0.001,0,0.001,0
	C1044.606,367.757,1045.605,365.799,1045.014,363.977"/>
<path id="Path_3859" fill="#195252" d="M1037.415,387.361c1.55-1.127,1.892-3.299,0.764-4.848c-1.128-1.551-3.299-1.893-4.849-0.765
	s-1.892,3.299-0.764,4.849c1.127,1.551,3.297,1.893,4.847,0.766C1037.414,387.363,1037.414,387.362,1037.415,387.361"/>
<path id="Path_3860" fill="#195252" d="M1012.812,387.361c1.551,1.129,3.722,0.787,4.85-0.764c1.128-1.55,0.785-3.721-0.765-4.849
	s-3.721-0.786-4.849,0.765c-1.128,1.548-0.788,3.718,0.761,4.846C1012.81,387.36,1012.811,387.361,1012.812,387.361"/>
<path id="Path_3861" fill="#195252" d="M1005.213,363.977c-0.592,1.822,0.407,3.781,2.23,4.372c1.823,0.592,3.781-0.407,4.373-2.23
	c0.591-1.823-0.406-3.78-2.229-4.372s-3.781,0.405-4.374,2.229C1005.213,363.975,1005.213,363.976,1005.213,363.977"/>
<path id="Path_3862" fill="#2E1051" d="M1215.417,196.906c-12.419-0.237-29.893,0.206-42.934,1.04
	c-13.69-5.784-27.785-10.557-42.173-14.282c-51.961-13.785-106.347-18.027-131.523-19.392c-7.393-0.4-12.186-0.66-13.409-0.99
	c-4.456-1.2-13.622-5.195-23.5-9.922c-8.918-4.265-18.413-9.122-25.565-13.051c15.932-0.375,31.32-5,37.986-8.841
	c122.537,8.179,210.3,35.285,219.846,42.272c7.839,7.002,14.966,14.761,21.277,23.165"/>
<path id="Path_3863" fill="#2E1051" d="M1186.486,174.321c-41.29-14.4-190.12-41.289-249.654-42.49l-6.328,7.529l11.49,5.914
	C983.043,146.715,1096.827,155.838,1186.486,174.321"/>
<path id="Path_3864" fill="#250951" d="M276.994,124.055c10.437,2.654,21.022,4.684,31.7,6.078
	c13.178,1.812,26.474,2.993,39.739,3.929c16.669,1.175,33.38,1.961,50.075,2.642c20.9,0.851,41.8,1.525,62.706,2.205
	c57.5,1.869,114.963,3.847,172.436,6.484c83.502,3.831,166.936,8.791,250.3,14.88c3.748,0.277,7.011-2.536,7.288-6.284
	c0.156-2.104-0.673-4.162-2.244-5.57c-7.108-6.362-14.585-12.389-22.146-18.2c-9.312-7.154-18.854-14.028-28.531-20.679
	c-22.361-15.386-45.491-29.622-69.301-42.655c-16.845-9.206-34.114-17.81-51.781-25.332c-15.97-6.8-32.605-12.9-49.475-17.044
	c-6.509-1.6-13.142-2.821-19.764-3.849c-7.924-1.231-15.9-2.184-23.876-2.979c-19.181-1.916-38.517-2.956-57.78-3.618
	c-22.394-0.767-44.821-0.986-67.227-0.879c-23.979,0.115-47.952,0.582-71.923,1.4c-45.088,1.485-90.238,3.944-135.208,7.554
	c-18.887,1.516-37.771,3.242-56.6,5.34c-14.5,1.617-29.079,3.422-43.473,5.838c-12.497,2.418-24.173,7.977-33.928,16.153
	l-1.125,0.992l0.893,1.207c0.985,1.231,2.091,2.362,3.3,3.374c1.772,1.568,3.643,3.051,5.522,4.491
	c5.429,4.161,11.108,8.086,16.788,11.9c15.549,10.426,31.7,20.258,48,29.465c14.72,8.48,29.874,16.183,45.4,23.077l0.115,0.05
	L276.994,124.055z"/>
<path id="Path_3865" fill="#CECECE" d="M805.792,95.356c13.933,20.012,25.964,43.229,30.844,55.6
	c-67.533-4.563-135.104-8.414-202.715-11.552c-25.095-1.15-50.188-2.19-75.281-3.122c-5.542-29.853-23.187-116.988-23.187-116.988
	c10.239,0.15,20.467,0.399,30.684,0.746c19.132,0.656,38.338,1.689,57.391,3.59c14.178,1.416,28.957,3.28,42.8,6.686
	c16.554,4.071,32.889,10.067,48.561,16.74c17.486,7.445,34.581,15.964,51.257,25.076c13.41,7.328,26.624,15.068,39.643,23.219"/>
<path id="Path_3866" fill="#250951" d="M824.387,122.803c-5.1-9.2-11.1-19.057-17.479-28.223l-0.159-0.226l-0.241-0.152
	c-6.479-4.053-13.069-8.043-19.772-11.971c-6.601-3.867-13.246-7.628-19.938-11.284c-8.345-4.559-16.804-8.956-25.377-13.19
	c-8.589-4.222-17.258-8.224-26-11.945c-7.853-3.344-15.882-6.522-24.034-9.378c-8.151-2.856-16.419-5.387-24.732-7.432
	c-6.979-1.715-14.178-3.041-21.406-4.115c-7.181-1.067-14.453-1.891-21.589-2.6c-9.563-0.953-19.143-1.689-28.719-2.266
	c-9.539-0.577-19.143-1-28.764-1.329c-5.087-0.174-10.201-0.323-15.342-0.448c-5.098-0.124-10.22-0.224-15.367-0.3l-1.678-0.025
	l0.333,1.647c0.052,0.251,17.631,87.068,23.182,116.966l0.2,1.07l1.089,0.04c12.51,0.471,25.055,0.966,37.634,1.485
	c12.512,0.517,25.057,1.063,37.636,1.639c33.755,1.548,67.547,3.29,101.375,5.227c33.715,1.926,67.484,4.034,101.308,6.325
	l2.143,0.144l-0.786-1.995C833.959,140.982,829.446,131.744,824.387,122.803 M804.833,96.36c6.295,9.06,12.184,18.746,17.185,27.763
	c4.625,8.219,8.812,16.676,12.543,25.337c-32.986-2.222-66.045-4.281-99.175-6.178c-33.743-1.928-67.545-3.67-101.405-5.227
	c-12.513-0.575-25.062-1.122-37.646-1.639c-12.148-0.501-24.335-0.982-36.559-1.443C554.498,106.7,539.538,32.642,537.117,20.68
	c4.538,0.07,9.091,0.161,13.658,0.273c5.089,0.122,10.196,0.271,15.321,0.446c9.513,0.328,19.077,0.749,28.688,1.329
	c9.572,0.577,19.122,1.309,28.611,2.257c7.041,0.7,14.25,1.52,21.462,2.591c7.166,1.063,14.284,2.373,21.151,4.061
	c8.238,2.026,16.419,4.531,24.488,7.358c8.069,2.827,16.046,5.984,23.864,9.313c8.748,3.724,17.371,7.684,25.869,11.881
	c8.514,4.185,16.939,8.586,25.27,13.137c6.667,3.644,13.288,7.391,19.863,11.242C791.854,88.372,798.344,92.303,804.833,96.36
	L804.833,96.36z"/>
<path id="Path_3867" fill="#424444" d="M301.656,95.229c0,0,25.872-46.638,43.5-70.83c27.399-1.667,54.81-2.944,82.23-3.831
	c25.779-0.849,51.662-1.408,77.533-1.458c1.078,13.959,6.584,85.645,8.23,115.538c-17.246-0.595-34.496-1.171-51.748-1.727
	c-20.887-0.679-41.776-1.353-62.656-2.2c-16.637-0.677-33.287-1.46-49.9-2.632c-13.134-0.926-26.3-2.093-39.345-3.887
	c-2.619-0.359-5.236-0.748-7.852-1.165L301.656,95.229z"/>
<path id="Path_3868" fill="#250951" d="M344.065,23.603c-17.689,24.27-43.521,70.833-43.595,70.969l-0.176,0.314v29.306l1.149,0.182
	c1.466,0.236,2.776,0.438,3.941,0.61c1.165,0.172,2.491,0.361,3.942,0.56c6.529,0.9,13.1,1.64,19.693,2.274
	c6.647,0.64,13.22,1.165,19.737,1.625c8.253,0.582,16.575,1.082,24.966,1.5c8.271,0.423,16.611,0.789,24.975,1.13
	c20.146,0.821,40.37,1.478,60.591,2.135l2.076,0.068c8.626,0.28,17.252,0.564,25.877,0.851c8.625,0.287,17.249,0.579,25.872,0.876
	l1.479,0.052l-0.082-1.481c-0.828-15.014-2.614-40.4-4.329-63.767c-1.724-23.5-3.365-44.846-3.899-51.8l-0.101-1.256h-1.259
	c-12.951,0.025-25.892,0.169-38.822,0.43c-12.962,0.252-25.88,0.595-38.753,1.028c-13.738,0.454-27.45,0.997-41.135,1.63
	c-13.768,0.639-27.479,1.372-41.134,2.2l-0.638,0.038L344.065,23.603z M303.017,95.573c2.272-4.081,26.125-46.745,42.863-69.857
	c13.529-0.817,27.014-1.538,40.452-2.162c13.733-0.637,27.434-1.18,41.1-1.629c12.908-0.427,25.811-0.77,38.709-1.028
	c12.509-0.244,25.016-0.387,37.522-0.428c0.62,8.067,2.187,28.479,3.8,50.532c1.664,22.677,3.395,47.2,4.247,62.243
	c-8.133-0.279-16.264-0.555-24.392-0.826c-8.624-0.286-17.249-0.569-25.875-0.849l-2.077-0.068
	c-20.167-0.655-40.34-1.312-60.569-2.135c-8.272-0.337-16.587-0.715-24.943-1.132c-8.257-0.422-16.561-0.922-24.911-1.5
	c-6.618-0.467-13.2-0.988-19.674-1.614c-6.536-0.629-13.07-1.368-19.587-2.264c-1.168-0.159-2.464-0.346-3.912-0.56
	c-0.988-0.145-1.911-0.286-2.76-0.418L303.017,95.573z"/>
<path id="Path_3869" fill="#250951" d="M518.934,13.177c0.058,0.37,21.187,135.039,22.141,156.047l0.164,3.493
	c1.542,32.269,8.846,196.846-13.708,218.846h2.699c23.43-22.855,15.268-186.504,13.718-218.973l-0.166-3.483
	c-0.965-21.241-22.07-155.545-22.127-155.915L518.934,13.177z"/>
<path id="Path_3870" fill="#250951" d="M866.242,159.009c0.042,0.137,14.188,51.04,6.379,122.887l3.4-5.6
	c7.867-72.388-6.808-116.945-6.848-117.083L866.242,159.009z"/>
<path id="Path_3871" fill="#250951" d="M328.414,19.465l-71.1,104.587c-9.135,13.028-12.308,29.323-8.726,44.826l19.606,90.792
	l2.657-0.575l-19.6-90.79c-3.426-14.778-0.404-30.315,8.311-42.731l72.291-106.336L328.414,19.465z"/>
<path id="Path_3872" fill="#424444" d="M301.049,27.434l-44.774,80.158c-7.434-3.822-14.77-7.84-21.975-11.909
	c-16.165-9.132-32.186-18.885-47.608-29.226c-5.574-3.739-11.154-7.589-16.481-11.674c-1.56-1.2-3.117-2.423-4.608-3.708
	c2.089-1.487,4.251-2.868,6.48-4.136c6.434-3.771,13.481-6.383,20.819-7.714c14.284-2.4,28.75-4.188,43.144-5.792
	c18.77-2.092,37.593-3.81,56.419-5.322c2.861-0.23,5.722-0.456,8.582-0.675"/>
<path id="Path_3873" fill="#250951" d="M257.458,108.25l46.01-82.366l-6.818,0.528l-4.29,0.341
	c-9.238,0.741-18.634,1.548-28.246,2.448c-9.51,0.891-18.915,1.851-28.215,2.879c-7.141,0.8-14.345,1.644-21.64,2.6
	c-7.248,0.953-14.458,2-21.578,3.2c-3.628,0.622-7.191,1.583-10.639,2.872c-3.675,1.372-7.231,3.044-10.632,5
	c-1.073,0.615-2.232,1.313-3.444,2.087c-1.069,0.682-2.128,1.4-3.152,2.13l-1.4,1l1.3,1.124c0.716,0.619,1.5,1.261,2.316,1.916l0,0
	c0.788,0.63,1.575,1.242,2.356,1.841c2.686,2.06,5.427,4.054,8.189,6c2.715,1.911,5.526,3.822,8.36,5.723
	c7.743,5.191,15.601,10.225,23.573,15.1c7.912,4.847,15.976,9.577,24.126,14.182c3.662,2.068,7.311,4.1,10.916,6.058
	c3.715,2.018,7.416,3.978,11.1,5.879l1.167,0.6L257.458,108.25z M298.629,28.984l-42.9,76.8c-3.351-1.733-6.644-3.482-9.88-5.245
	c-3.72-2.021-7.349-4.034-10.886-6.037c-8.014-4.528-16.027-9.241-24.04-14.138c-7.952-4.871-15.778-9.882-23.478-15.034
	c-2.739-1.838-5.507-3.722-8.306-5.692c-2.75-1.936-5.464-3.911-8.104-5.935c-0.776-0.6-1.548-1.2-2.3-1.8l0,0
	c-0.294-0.236-0.594-0.478-0.9-0.727c0.528-0.358,1.059-0.707,1.592-1.047c1.072-0.684,2.2-1.361,3.337-2.011
	c3.269-1.881,6.687-3.489,10.219-4.809c3.29-1.232,6.688-2.151,10.149-2.745c7.165-1.2,14.331-2.249,21.483-3.19
	c7.108-0.935,14.334-1.784,21.587-2.593c9.482-1.054,18.869-2.014,28.161-2.877c9.2-0.861,18.627-1.67,28.214-2.44L298.629,28.984z"
	/>
<g id="Group_641" transform="translate(537.116 20.681)">
	<path id="Path_3874" fill="#E6E6E6" d="M8.682,43.148C4.614,22.825,1.073,5.303,0-0.002c4.537,0.07,9.09,0.161,13.658,0.273
		c5.089,0.122,10.196,0.271,15.321,0.446c9.513,0.328,19.077,0.749,28.688,1.329c9.572,0.577,19.123,1.309,28.611,2.257
		c7.041,0.7,14.249,1.52,21.463,2.591c7.166,1.063,14.283,2.373,21.151,4.061c8.238,2.026,16.419,4.531,24.488,7.358
		c8.069,2.827,16.046,5.984,23.864,9.313c8.748,3.723,17.371,7.684,25.869,11.881c8.514,4.185,16.939,8.586,25.27,13.137
		c6.667,3.643,13.288,7.391,19.863,11.242c0.395,0.232,0.791,0.463,1.185,0.7C161.006,50.948,80.557,45.409,8.682,43.148"/>
	<g>
		<defs>
			<path id="SVGID_9_" d="M8.682,43.148C4.614,22.825,1.073,5.303,0-0.002c4.537,0.07,9.09,0.161,13.658,0.273
				c5.089,0.122,10.196,0.271,15.321,0.446c9.513,0.328,19.077,0.749,28.688,1.329c9.572,0.577,19.123,1.309,28.611,2.257
				c7.041,0.7,14.249,1.52,21.463,2.591c7.166,1.063,14.283,2.373,21.151,4.061c8.238,2.026,16.419,4.531,24.488,7.358
				c8.069,2.827,16.046,5.984,23.864,9.313c8.748,3.723,17.371,7.684,25.869,11.881c8.514,4.185,16.939,8.586,25.27,13.137
				c6.667,3.643,13.288,7.391,19.863,11.242c0.395,0.232,0.791,0.463,1.185,0.7C161.006,50.948,80.557,45.409,8.682,43.148"/>
		</defs>
		<clipPath id="SVGID_10_">
			<use xlink:href="#SVGID_9_"  overflow="visible"/>
		</clipPath>
		<g id="Group_640" transform="translate(0)" clip-path="url(#SVGID_10_)">
			<rect id="Rectangle_26" x="0.001" y="-0.001" fill="#E6E6E6" width="249.433" height="64.587"/>
		</g>
	</g>
</g>
<g id="Group_643" transform="translate(322.816 20.469)">
	<g>
		<defs>
			<path id="SVGID_11_" d="M180.85,0c0.544,7.066,1.813,23.6,3.205,42.416c-70.791-1.251-132.36,0.028-184.057-1.453
				c7.5-12.456,15.928-25.864,23.063-35.717c13.529-0.817,27.014-1.538,40.452-2.162c13.733-0.638,27.434-1.181,41.1-1.629
				c12.907-0.426,25.811-0.769,38.709-1.028c12.508-0.244,25.016-0.387,37.522-0.428"/>
		</defs>
		<use xlink:href="#SVGID_11_"  overflow="visible" fill="#5F6666"/>
		<clipPath id="SVGID_12_">
			<use xlink:href="#SVGID_11_"  overflow="visible"/>
		</clipPath>
		<g id="Group_642" transform="translate(0)" clip-path="url(#SVGID_12_)">
			<rect id="Rectangle_27" x="0" y="0.001" fill="#5F6666" width="184.056" height="42.443"/>
		</g>
	</g>
</g>
<g id="Group_645" transform="translate(191.789 28.984)">
	<g>
		<defs>
			<path id="SVGID_13_" d="M106.842,0l-17,30.432C53.56,27.718,23.507,22.375,0,11.823c0.444-0.087,0.89-0.167,1.337-0.242
				c7.165-1.2,14.331-2.249,21.483-3.19c7.108-0.935,14.334-1.784,21.587-2.593c9.482-1.055,18.869-2.014,28.161-2.877
				c9.2-0.861,18.627-1.67,28.215-2.44L106.842,0z"/>
		</defs>
		<clipPath id="SVGID_14_">
			<use xlink:href="#SVGID_13_"  overflow="visible"/>
		</clipPath>
		<g id="Group_644" transform="translate(0)" clip-path="url(#SVGID_14_)">
			<rect id="Rectangle_28" x="0" y="0.001" fill="#5F6666" width="106.841" height="30.431"/>
		</g>
	</g>
</g>
<path id="Path_3878" fill="#2F8080" d="M197.383,294.189c-42.111,0-76.25,34.138-76.25,76.25c0,42.111,34.139,76.249,76.25,76.249
	c42.112,0,76.25-34.138,76.25-76.249C273.633,328.327,239.495,294.189,197.383,294.189L197.383,294.189"/>
<path id="Path_3879" fill="#323232" d="M194.47,290.771c-44,0-79.668,35.669-79.668,79.668c0,44,35.669,79.669,79.668,79.669
	c44,0,79.668-35.669,79.668-79.669l0,0C274.138,326.441,238.469,290.772,194.47,290.771 M194.47,249.242
	c-66.937,0-121.2,54.263-121.2,121.199c0,66.938,54.263,121.2,121.2,121.2c66.937,0,121.2-54.263,121.2-121.2l0,0
	C315.67,303.505,261.407,249.242,194.47,249.242z"/>
<path id="Path_3880" fill="#BBBBBB" d="M194.47,308.055c-34.454,0-62.385,27.932-62.385,62.385
	c0,34.455,27.931,62.386,62.385,62.386c34.455,0,62.385-27.931,62.385-62.386c0-34.453-27.929-62.384-62.383-62.385
	C194.471,308.055,194.471,308.055,194.47,308.055 M194.47,290.771c-43.999,0-79.668,35.669-79.668,79.668
	c0,44,35.669,79.669,79.668,79.669c44,0,79.668-35.669,79.668-79.669l0,0C274.137,326.441,238.469,290.772,194.47,290.771
	L194.47,290.771z"/>
<path id="Path_3881" fill="#A5A5A5" d="M194.47,308.055c-34.454,0-62.385,27.932-62.385,62.385
	c0,34.455,27.931,62.386,62.385,62.386c34.455,0,62.385-27.931,62.385-62.386c0-34.453-27.929-62.384-62.383-62.385
	C194.471,308.055,194.471,308.055,194.47,308.055 M194.47,301.372c-38.145,0.001-69.067,30.924-69.067,69.069
	c0,38.145,30.924,69.067,69.069,69.066c38.145,0,69.067-30.923,69.067-69.068C263.539,332.295,232.616,301.372,194.47,301.372
	C194.47,301.372,194.47,301.372,194.47,301.372L194.47,301.372z"/>
<path id="Path_3882" fill="#BBBBBB" d="M180.583,344.286c-2.463,1.31-4.73,2.959-6.735,4.899
	c-27.245-1.893-37.328-14.68-37.746-21.267c-6.012,6.574-9.539,17.601-10.326,20.261c-0.925,2.613-4.549,13.61-3.546,22.461
	c4.208-5.084,19.877-9.507,43.03,4.959c0.478,2.75,1.344,5.418,2.573,7.922c-10.244,25.301-25.521,30.916-31.91,29.273
	c4.385,7.753,13.779,14.524,16.061,16.1c2.2,1.688,11.53,8.545,20.256,10.333c-3.53-5.575-2.877-21.848,18.062-39.38
	c1.381,0.195,2.773,0.293,4.167,0.293c1.396,0,2.789-0.097,4.17-0.291c20.938,17.531,21.59,33.801,18.061,39.378
	c8.726-1.788,18.057-8.646,20.256-10.333c2.282-1.572,11.675-8.345,16.061-16.1c-6.39,1.643-21.667-3.976-31.909-29.273
	c1.228-2.506,2.094-5.172,2.573-7.922c23.154-14.466,38.822-10.043,43.03-4.959c1-8.851-2.623-19.848-3.546-22.461
	c-0.789-2.656-4.315-13.687-10.326-20.261c-0.418,6.588-10.5,19.375-37.748,21.267c-2.003-1.941-4.271-3.591-6.735-4.899
	c-6.606-26.487,2.439-40.024,8.574-42.455c-8.109-3.688-19.688-3.636-22.459-3.565c-2.771-0.07-14.351-0.123-22.458,3.565
	c6.134,2.431,15.18,15.967,8.572,42.455"/>
<path id="Path_3883" fill="#A5A5A5" d="M194.468,362.364c-4.46,0.001-8.075,3.616-8.075,8.077c0,4.46,3.617,8.075,8.077,8.074
	c4.459,0,8.075-3.615,8.075-8.076C202.545,365.98,198.929,362.364,194.468,362.364C194.469,362.364,194.468,362.364,194.468,362.364
	"/>
<path id="Path_3884" fill="#1F5E5E" d="M194.469,349.52c-1.917,0-3.471,1.555-3.471,3.471c0,1.918,1.554,3.472,3.471,3.472
	s3.471-1.554,3.471-3.471l0,0C197.94,351.074,196.386,349.52,194.469,349.52"/>
<path id="Path_3885" fill="#1F5E5E" d="M214.37,363.977c-0.591-1.824-2.549-2.824-4.373-2.233s-2.824,2.548-2.233,4.372
	c0.591,1.824,2.549,2.824,4.373,2.234c0.001-0.001,0.002-0.002,0.003-0.002C213.963,367.756,214.961,365.799,214.37,363.977"/>
<path id="Path_3886" fill="#1F5E5E" d="M206.771,387.361c1.549-1.128,1.89-3.299,0.762-4.849c-1.129-1.55-3.3-1.891-4.849-0.762
	c-1.549,1.128-1.891,3.298-0.764,4.847C203.048,388.148,205.22,388.49,206.771,387.361
	C206.771,387.362,206.771,387.362,206.771,387.361"/>
<path id="Path_3887" fill="#1F5E5E" d="M182.168,387.361c1.55,1.129,3.721,0.787,4.849-0.764c1.128-1.55,0.786-3.721-0.764-4.849
	c-1.55-1.128-3.721-0.786-4.849,0.765c-1.128,1.548-0.788,3.718,0.761,4.846C182.166,387.36,182.167,387.361,182.168,387.361"/>
<path id="Path_3888" fill="#1F5E5E" d="M174.568,363.977c-0.591,1.822,0.407,3.781,2.23,4.372c1.824,0.592,3.781-0.407,4.373-2.23
	c0.592-1.823-0.406-3.78-2.229-4.372c-1.823-0.592-3.781,0.405-4.374,2.229C174.568,363.975,174.568,363.976,174.568,363.977"/>
<path id="Path_3889" fill="#2E1051" d="M891.345,347.602c0.03,7.685,0.3,16.385,0.3,26.813c-0.018,9.463-7.685,17.13-17.147,17.147
	H342.27c-9.462-0.018-17.129-7.685-17.147-17.147c0-10.429,0.268-19.129,0.3-26.813H891.345z"/>
<path id="Path_3890" fill="#D05050" d="M18.715,238.523c-0.531-11.219-0.104-22.463,1.274-33.61
	c7.929-24.347,23.306-46.989,69.541-61.646c0,0,13.971,21.172,12.963,21.172C26.935,184.777,47.568,230.531,18.715,238.523"/>
<path id="Path_3891" fill="#EA8989" d="M18.865,217.031c0.25-4.113,0.625-8.153,1.124-12.119
	c7.929-24.347,23.306-46.989,69.541-61.646c0,0,1.291,1.956,3.058,4.677C27.858,165.873,35.167,202.732,18.865,217.031"/>
<path id="Path_3892" fill="#250951" d="M929.123,139.36c7.139,4.218,19.841,10.833,31.58,16.447
	c10.032,4.8,19.371,8.868,23.971,10.1c1.479,0.4,6.393,0.662,13.975,1.073c25.082,1.361,79.8,4.329,131.506,18.046l0.154-1.364
	c-51.962-13.785-106.347-18.027-131.523-19.392c-7.395-0.4-12.186-0.66-13.409-0.99c-4.456-1.2-13.621-5.195-23.5-9.922
	c-11.634-5.564-24.25-12.135-31.368-16.34L929.123,139.36z"/>
<path id="Path_3893" fill="#E6E6E6" d="M729.5,22.631c77.984,28.405,204.277,92.391,233.468,108.14
	c3.808,0.214,7.583,0.447,11.326,0.7c-10,5.763-39.634,13.291-61.281,5.581c-24.6-8.761-145.231-92.659-205.245-109.942
	c7.01-2.465,14.32-3.97,21.732-4.476"/>
<path id="Path_3894" fill="#2E1051" d="M812.374,114.166c-15.551-7.325-35.951-13.78-42.659-6.546
	c-10.96,11.818-11.09,37,2.546,39.2c6.052,0.978,19.328,3.053,32.05,2.488c19.855-0.883,30.65-3.12,31.786-9.55
	C837.092,134.117,830.815,122.858,812.374,114.166"/>
<path id="Path_3895" fill="#ECECEC" d="M1232.118,241.69c-16.179-0.179-54.322-1.516-61.53-5.619
	c-7.8-4.441-26.646-28.086-69.616-38.049c3.819-3.23,15.824-10.895,29.338-14.359C1171.646,194.609,1211.11,212.401,1232.118,241.69
	"/>
<path id="Path_3896" fill="#CFCBCB" d="M1232.118,241.692c-16.178-0.179-54.322-1.516-61.53-5.619
	c-6.907-3.931-22.471-22.911-55.762-34.127c1.341-1.619,5.18-1.769,12.848,0.465c25.628,7.465,42.774,5.686,57,1.222
	c19.443,9.835,36.123,22.278,47.446,38.059"/>
<path id="Path_3897" fill="#FFFFFF" d="M1189.846,239.69c-9.013-0.853-16.46-2.028-19.256-3.618
	c-7.8-4.441-26.646-28.086-69.615-38.049c2.698-2.149,5.571-4.07,8.588-5.742C1130.893,198.83,1170.79,222.381,1189.846,239.69"/>
<path id="Path_3898" fill="#250951" d="M1172.482,197.946c13.041-0.834,30.515-1.277,42.934-1.04
	c10.65,13.927,19.789,28.947,27.265,44.806c-3.727,0-8.765,0-9.293-0.008l-1.271-0.012c-13.627-19-35.014-33.154-59.637-43.745"/>
</svg>
