<?xml version="1.0" encoding="utf-8"?>
<!-- Generator: Adobe Illustrator 16.0.0, SVG Export Plug-In . SVG Version: 6.00 Build 0)  -->
<!DOCTYPE svg PUBLIC "-//W3C//DTD SVG 1.1//EN" "http://www.w3.org/Graphics/SVG/1.1/DTD/svg11.dtd">
<svg version="1.1" id="Layer_1" xmlns="http://www.w3.org/2000/svg" xmlns:xlink="http://www.w3.org/1999/xlink" x="0px" y="0px"
	 width="165.339px" height="125.375px" viewBox="0 0 165.339 125.375" enable-background="new 0 0 165.339 125.375"
	 xml:space="preserve">
<g id="Group_652" transform="translate(-244.268 -769.974)">
	<g id="Group_647" transform="translate(0 8.914)">
		<g id="Group_421" transform="translate(269.173 798.539)">
			<g id="Group_420" transform="translate(0 0)">
				<g id="Group_419">
					<g id="Group_418">
						<g id="Group_417">
							<g id="Group_416">
								<g id="Group_415">
									<g id="Group_414">
										<path id="Path_2954" fill="#250951" d="M140.401,6.166C140.22,2.732,137.4,0.032,133.962,0H6.474
											c-1.563,0.008-3.07,0.586-4.238,1.625l0,0C2.232,1.632,2.225,1.638,2.218,1.643C2.193,1.66,2.171,1.679,2.15,1.7h0.012
											C1.504,2.292,0.97,3.01,0.594,3.811c-0.026,0.065-0.048,0.132-0.066,0.2C0.371,4.357,0.247,4.717,0.157,5.086
											C0.086,5.441,0.046,5.801,0.038,6.163l0,0C0.038,6.269,0,6.363,0,6.47v74.953c0.013,1.822,0.803,3.553,2.172,4.755
											l-0.024,0.017c0.052,0.045,0.105,0.08,0.165,0.127c0.016,0.017,0.03,0.041,0.05,0.052h0.011
											c1.143,0.978,2.596,1.52,4.1,1.528h127.487c0.419,0.002,0.837-0.041,1.247-0.127c0.276-0.063,0.549-0.143,0.814-0.242
											c0.104-0.035,0.217-0.057,0.316-0.1c0.346-0.145,0.681-0.314,1-0.512c0.006-0.007,0.015-0.012,0.023-0.013
											c1.899-1.175,3.059-3.245,3.068-5.478V6.145L140.401,6.166z"/>
									</g>
								</g>
							</g>
						</g>
					</g>
				</g>
			</g>
		</g>
		<g id="Group_428" transform="translate(269.171 852.708)">
			<g id="Group_427" transform="translate(0 0)">
				<g id="Group_426">
					<g id="Group_425">
						<g id="Group_424">
							<g id="Group_423">
								<g id="Group_422">
									<rect id="Rectangle_8" x="0" fill="#332F2F" width="140.437" height="18.2"/>
								</g>
							</g>
						</g>
					</g>
				</g>
			</g>
		</g>
		<g id="Group_435" transform="translate(269.173 798.539)">
			<g id="Group_434" transform="translate(0 0)">
				<g id="Group_433">
					<g id="Group_432">
						<g id="Group_431">
							<g id="Group_430">
								<g id="Group_429">
									<path id="Path_2955" fill="#E8DAF7" d="M138.754,35.605l-12.3-35.601H6.474C4.911,0.012,3.405,0.59,2.237,1.629l0,0
										C2.232,1.636,2.225,1.642,2.218,1.647C2.193,1.664,2.171,1.683,2.15,1.704h0.012C1.504,2.296,0.97,3.014,0.594,3.815
										c-0.026,0.065-0.048,0.132-0.066,0.2C0.371,4.361,0.247,4.721,0.157,5.09C0.086,5.445,0.046,5.805,0.038,6.167
										C0.038,6.273,0,6.367,0,6.474v74.953c0.013,1.822,0.803,3.553,2.172,4.756l-0.024,0.016
										c0.052,0.045,0.105,0.08,0.165,0.127c0.016,0.017,0.03,0.041,0.05,0.052h0.011c1.143,0.978,2.596,1.52,4.1,1.528h20.5
										l103.8-35.84c0.781-0.27,1.533-0.617,2.244-1.039c0.429-0.25,0.838-0.531,1.226-0.842l0.435-0.313
										c0,0,0.611-0.537,0.783-0.7l0.207-0.11l1.074-1.334C139.426,44.289,140.182,39.725,138.754,35.605z"/>
								</g>
							</g>
						</g>
					</g>
				</g>
			</g>
		</g>
		<g id="Group_443" transform="translate(244.268 761.06)">
			<g id="Group_442" transform="translate(0 0)">
				<g id="Group_441">
					<g id="Group_440">
						<g id="Group_439">
							<g id="Group_438">
								<g id="Group_437">
									<g id="Group_436">
										<path id="Path_2956" fill="#37226B" d="M132.947,4.074c-0.635-1.589-1.876-2.861-3.449-3.536
											c-1.472-0.645-3.131-0.712-4.65-0.19h-0.014L4.352,41.948H4.338c-1.477,0.519-2.713,1.559-3.477,2.925l0,0
											c-0.006,0.007-0.01,0.016-0.011,0.025c-0.018,0.027-0.041,0.052-0.052,0.074h0.019c-0.433,0.774-0.702,1.629-0.792,2.511
											c-0.004,0.07-0.004,0.139,0,0.209c-0.031,0.375-0.031,0.752,0,1.128c0.046,0.358,0.125,0.712,0.235,1.056l0,0
											c0.028,0.1,0.032,0.2,0.066,0.306l24.462,70.844c0.608,1.721,1.922,3.101,3.611,3.791l-0.02,0.022
											c0.064,0.029,0.127,0.041,0.2,0.064c0.023,0.011,0.045,0.022,0.067,0.036l0.013-0.015
											c1.396,0.552,2.943,0.592,4.366,0.111l120.509-41.609c0.395-0.139,0.774-0.316,1.133-0.532
											c0.242-0.149,0.474-0.317,0.692-0.5c0.094-0.06,0.184-0.127,0.269-0.2c0.284-0.248,0.546-0.52,0.782-0.814
											c0.006-0.006,0.012-0.012,0.02-0.016c1.412-1.729,1.831-4.066,1.105-6.179L133.083,4.341l-0.109-0.313L132.947,4.074z"/>
									</g>
								</g>
							</g>
						</g>
					</g>
				</g>
			</g>
		</g>
		<g id="Group_450" transform="translate(342.11 774.839)">
			<g id="Group_449" transform="translate(0 0)">
				<g id="Group_448">
					<g id="Group_447">
						<g id="Group_446">
							<g id="Group_445">
								<g id="Group_444">
									<path id="Path_2957" fill="#DFF1FA" d="M31.611,16.45c0.578,1.689-0.314,3.529-2,4.12L9.216,27.606
										c-1.688,0.582-3.529-0.313-4.115-2L0.177,11.333c-0.58-1.69,0.313-3.53,2-4.12l20.389-7.037
										c1.688-0.577,3.523,0.316,4.111,2L31.611,16.45z"/>
								</g>
							</g>
						</g>
					</g>
				</g>
			</g>
		</g>
		<g id="Group_457" transform="translate(288.735 799.796)">
			<g id="Group_456" transform="translate(0 0)">
				<g id="Group_455">
					<g id="Group_454">
						<g id="Group_453">
							<g id="Group_452">
								<g id="Group_451">
									<path id="Path_2958" fill="#E8DAF7" d="M27.95,9.679c2.59,7.5-1.389,15.68-8.888,18.271
										c-7.5,2.591-15.68-1.389-18.271-8.888c0,0,0,0,0-0.001C-1.8,11.562,2.178,3.382,9.677,0.791c0,0,0.001,0,0.002-0.001l0,0
										C17.179-1.8,25.359,2.179,27.95,9.679z"/>
								</g>
							</g>
						</g>
					</g>
				</g>
			</g>
		</g>
		<g id="Group_482" transform="translate(274.683 824.758)">
			<g id="Group_463" transform="translate(0 31.241)">
				<g id="Group_462">
					<g id="Group_461">
						<g id="Group_460">
							<g id="Group_459">
								<g id="Group_458">
									<path id="Path_2959" fill="#DDDDDC" d="M23.362,9.35L3.233,16.3L0.001,6.947l20.129-6.951L23.362,9.35z"/>
								</g>
							</g>
						</g>
					</g>
				</g>
			</g>
			<g id="Group_469" transform="translate(30.162 20.825)">
				<g id="Group_468" transform="translate(0 0)">
					<g id="Group_467" transform="translate(0 0)">
						<g id="Group_466" transform="translate(0)">
							<g id="Group_465" transform="translate(0)">
								<g id="Group_464">
									
										<rect id="Rectangle_9" x="1.031" y="3.21" transform="matrix(-0.9453 0.3261 -0.3261 -0.9453 25.364 12.0573)" fill="#DDDDDC" width="21.281" height="9.89"/>
								</g>
							</g>
						</g>
					</g>
				</g>
			</g>
			<g id="Group_475" transform="translate(60.317 10.409)">
				<g id="Group_474">
					<g id="Group_473">
						<g id="Group_472">
							<g id="Group_471">
								<g id="Group_470">
									<path id="Path_2960" fill="#DDDDDC" d="M23.352,9.352l-20.12,6.95L0,6.949l20.129-6.951L23.352,9.352z"/>
								</g>
							</g>
						</g>
					</g>
				</g>
			</g>
			<g id="Group_481" transform="translate(90.473 0)">
				<g id="Group_480" transform="translate(0 0)">
					<g id="Group_479" transform="translate(0)">
						<g id="Group_478" transform="translate(0)">
							<g id="Group_477">
								<g id="Group_476">
									
										<rect id="Rectangle_10" x="1.032" y="3.204" transform="matrix(-0.9452 0.3265 -0.3265 -0.9452 25.3746 12.044)" fill="#DDDDDC" width="21.289" height="9.895"/>
								</g>
							</g>
						</g>
					</g>
				</g>
			</g>
		</g>
	</g>
</g>
</svg>
