<?xml version="1.0" encoding="utf-8"?>
<!-- Generator: Adobe Illustrator 16.0.0, SVG Export Plug-In . SVG Version: 6.00 Build 0)  -->
<!DOCTYPE svg PUBLIC "-//W3C//DTD SVG 1.1//EN" "http://www.w3.org/Graphics/SVG/1.1/DTD/svg11.dtd">
<svg version="1.1" id="Layer_1" xmlns="http://www.w3.org/2000/svg" xmlns:xlink="http://www.w3.org/1999/xlink" x="0px" y="0px"
	 width="165.218px" height="177.148px" viewBox="0 0 165.218 177.148" enable-background="new 0 0 165.218 177.148"
	 xml:space="preserve">
<g id="Group_651" transform="translate(-905.431 -3073.537)">
	<path id="Path_3039" fill="#E8DAF7" d="M1021.58,3152.546c-27.092-0.008-49.061,21.947-49.069,49.039c0,0.01,0,0.021,0,0.03
		c-0.002,27.099,21.964,49.068,49.064,49.07c0.002,0,0.004,0,0.005,0c27.099-0.006,49.064-21.972,49.069-49.07
		c0.002-27.099-21.965-49.068-49.064-49.069C1021.583,3152.546,1021.581,3152.546,1021.58,3152.546z M1005.832,3238.772
		c-10.794-4.58-19.065-13.626-22.66-24.787c-0.961-2.987-0.48-4.291,2.943-4.542l8.647-0.639c1.674-0.257,3.34,0.517,4.223,1.963
		c8.627,12.074,9.471,11.138,12.029,25.904C1011.54,3239.708,1007.636,3239.547,1005.832,3238.772L1005.832,3238.772z
		 M993.42,3192.944c-3.653,1.849-13.011,6.6-10.888-1.574c4.667-17.739,20.707-30.103,39.05-30.1
		c18.335,0.005,34.362,12.367,39.024,30.1c2.148,8.171-7.233,3.423-10.862,1.574c-7.187-3.653-17.161-5.91-28.162-5.91
		C1010.556,3187.034,1000.606,3189.291,993.42,3192.944z M1059.994,3213.985c-3.612,11.152-11.879,20.192-22.664,24.787
		c-1.825,0.774-5.729,0.937-5.2-2.101c2.58-14.767,3.424-13.831,12.051-25.904c0.875-1.441,2.531-2.216,4.199-1.963l8.676,0.639
		c3.393,0.25,3.893,1.554,2.936,4.542H1059.994z"/>
	<path id="Path_3040" fill="#FFFFFF" d="M995.242,3132.074l-16.16,6.827c-3.659,1.6-6.712,4.325-8.716,7.779
		c0.8,0.343,1.688,0.686,2.1,0.848l16.136,6.822c1.076,0.445,2.113,0.98,3.1,1.6c8.879-5.812,19.263-8.898,29.874-8.881
		c14.36-0.022,28.146,5.639,38.347,15.749c0.227-1.057,0.281-2.144,0.16-3.217l-0.893-8.034c-0.617-5.431-5.34-10.545-10.362-12.664
		l-16.155-6.827c-4.291-1.825-6.759-2.418-6.484-7.759c1.119-1.667,2.625-6,3.605-10.157h0.049c1.207,0.275,2.805-2.237,3.561-5.591
		c0.73-3.33,0.363-6.253-0.824-6.572c0.301-1.687,0.5-3.286,0.662-4.792c0.481-3.247,0.389-6.555-0.275-9.77
		c-3.561-12.825-27.773-21-34-5.225c-1.6,0.183-3.31,2.943-3.928,4.949c-0.706,2.329-0.818,5.753-0.363,10.044
		c0.157,1.506,0.363,3.1,0.662,4.792c-1.188,0.319-1.554,3.242-0.822,6.572c0.754,3.354,2.349,5.866,3.561,5.591h0.044
		c0.985,4.154,2.491,8.49,3.608,10.157C1001.996,3129.656,999.533,3130.249,995.242,3132.074z"/>
	<path id="Path_3041" fill="#FFFFFF" d="M911.208,3187.329h57.721c2.939-10.896,9.202-20.604,17.916-27.773
		c-0.137-0.044-0.25-0.113-0.367-0.161l-16.156-6.822c-4.291-1.8-6.758-2.418-6.483-7.739c1.118-1.687,2.624-6.022,3.6-10.177h0.049
		c1.207,0.274,2.806-2.236,3.557-5.591c0.731-3.331,0.367-6.253-0.82-6.572c0.295-1.692,0.5-3.286,0.662-4.771
		c0.432-4.131,0.363-7.465-0.274-9.766c-3.561-12.829-27.774-21.021-34.008-5.252c-1.595,0.183-3.306,2.947-3.924,4.953
		c-0.707,2.329-0.82,5.753-0.363,10.064c0.157,1.485,0.363,3.079,0.662,4.771c-1.187,0.319-1.554,3.242-0.8,6.572
		c0.731,3.354,2.325,5.866,3.536,5.591h0.044c0.981,4.154,2.491,8.49,3.609,10.177c0.271,5.321-2.192,5.935-6.483,7.739
		l-16.16,6.822c-5.018,2.123-9.745,7.233-10.339,12.668l-0.888,8.034C905.048,3184.18,906.691,3187.329,911.208,3187.329z"/>
</g>
</svg>
