<?xml version="1.0" encoding="utf-8"?>
<!-- Generator: Adobe Illustrator 16.0.0, SVG Export Plug-In . SVG Version: 6.00 Build 0)  -->
<!DOCTYPE svg PUBLIC "-//W3C//DTD SVG 1.1//EN" "http://www.w3.org/Graphics/SVG/1.1/DTD/svg11.dtd">
<svg version="1.1" id="Layer_1" xmlns="http://www.w3.org/2000/svg" xmlns:xlink="http://www.w3.org/1999/xlink" x="0px" y="0px"
	 width="183.037px" height="215.307px" viewBox="0 0 183.037 215.307" enable-background="new 0 0 183.037 215.307"
	 xml:space="preserve">
<g id="Group_653" transform="translate(-361.279 -1084.918)">
	
		<rect id="Rectangle_14" x="491.194" y="1117.352" transform="matrix(-0.5139 0.8579 -0.8579 -0.5139 1727.073 1272.0969)" fill="#311663" width="23.84" height="16.055"/>
	<path id="Rectangle_15" fill="#37226B" d="M495.769,1112.194L495.769,1112.194c2.14-3.572,6.772-4.733,10.345-2.594l9.49,5.686
		c3.573,2.141,4.734,6.771,2.594,10.345l0,0c-2.141,3.572-6.771,4.733-10.344,2.593l-9.49-5.685
		C494.79,1120.398,493.63,1115.766,495.769,1112.194z"/>
	<path id="Path_3073" fill="#250951" d="M520.173,1118.013l-18.638-11.154c-1.048-0.627-2.405-0.286-3.032,0.762l-2.736,4.572
		l22.43,13.425l2.737-4.572C521.56,1119.999,521.219,1118.64,520.173,1118.013L520.173,1118.013z"/>
	
		<rect id="Rectangle_16" x="394.481" y="1113.449" transform="matrix(-0.8485 0.5293 -0.5293 -0.8485 1339.6176 1867.1543)" fill="#311663" width="16.044" height="23.822"/>
	<path id="Rectangle_17" fill="#37226B" d="M389.833,1115.5l9.38-5.852c3.531-2.203,8.18-1.126,10.382,2.404l0,0
		c2.203,3.531,1.126,8.18-2.405,10.383l-9.38,5.851c-3.531,2.203-8.18,1.127-10.382-2.404l0,0
		C385.225,1122.35,386.301,1117.702,389.833,1115.5z"/>
	<path id="Path_3074" fill="#250951" d="M403.74,1106.819l-18.425,11.5c-1.036,0.646-1.352,2.009-0.706,3.045
		c0,0,0,0.001,0.001,0.001l2.821,4.521l22.176-13.84l-2.821-4.521C406.14,1106.489,404.776,1106.173,403.74,1106.819z"/>
	<rect id="Rectangle_18" x="440.435" y="1089.789" fill="#311663" width="24.725" height="36.713"/>
	<path id="Rectangle_19" fill="#37226B" d="M441.805,1084.919h21.985c5.049,0,9.141,4.093,9.141,9.141v4.946
		c0,5.048-4.092,9.141-9.141,9.141h-21.985c-5.048,0-9.14-4.093-9.14-9.141v-4.946
		C432.665,1089.011,436.757,1084.919,441.805,1084.919z"/>
	<path id="Path_3075" fill="#250951" d="M470.719,1084.918h-35.843c-1.221,0-2.211,0.99-2.211,2.211v9.4h40.266v-9.4
		C472.93,1085.908,471.94,1084.918,470.719,1084.918z"/>
	<ellipse id="Ellipse_7" fill="#250951" cx="452.797" cy="1208.706" rx="91.518" ry="91.518"/>
	<ellipse id="Ellipse_8" fill="#37226B" cx="452.798" cy="1208.706" rx="75.987" ry="75.987"/>
	<ellipse id="Ellipse_9" fill="#FFFFFF" cx="452.797" cy="1208.706" rx="71.841" ry="71.841"/>
	<g id="Group_623" transform="translate(383.002 1138.96)">
		<g id="Group_564" transform="translate(67.032)">
			<path id="Path_3076" fill="#37226B" d="M0.818,16.191H4.71L5.528,0H0.001L0.818,16.191z"/>
		</g>
		<g id="Group_565" transform="translate(59.634 0.101)">
			<path id="Path_3077" fill="#E8DAF7" d="M2.534,16.6l3.87-0.414L5.496-0.001l-5.5,0.588L2.534,16.6z"/>
		</g>
		<g id="Group_566" transform="translate(52.351 0.992)">
			<path id="Path_3078" fill="#E8DAF7" d="M4.221,16.821l3.8-0.823l-2.623-16l-5.4,1.168L4.221,16.821z"/>
		</g>
		<g id="Group_567" transform="translate(45.266 2.661)">
			<path id="Path_3079" fill="#E8DAF7" d="M5.862,16.85l3.7-1.222L5.253,0L0.005,1.736L5.862,16.85z"/>
		</g>
		<g id="Group_568" transform="translate(38.459 5.091)">
			<path id="Path_3080" fill="#E8DAF7" d="M7.435,16.691l3.544-1.608L5.033,0.001L0,2.285L7.435,16.691z"/>
		</g>
		<g id="Group_569" transform="translate(32.006 8.253)">
			<path id="Path_3081" fill="#E8DAF7" d="M8.924,16.34l3.353-1.976L4.762-0.001L0,2.805L8.924,16.34z"/>
		</g>
		<g id="Group_570" transform="translate(25.982 12.112)">
			<path id="Path_3082" fill="#E8DAF7" d="M10.313,15.806l3.124-2.32L4.437,0L0,3.3L10.313,15.806z"/>
		</g>
		<g id="Group_571" transform="translate(20.455 16.624)">
			<path id="Path_3083" fill="#E8DAF7" d="M11.583,15.092l2.86-2.64L4.061,0L0,3.749L11.583,15.092z"/>
		</g>
		<g id="Group_572" transform="translate(15.486 21.738)">
			<path id="Path_3084" fill="#E8DAF7" d="M12.723,14.206l2.563-2.929L3.639,0l-3.64,4.16L12.723,14.206z"/>
		</g>
		<g id="Group_573" transform="translate(11.133 27.396)">
			<path id="Path_3085" fill="#E8DAF7" d="M13.719,13.16l2.237-3.186L3.176-0.001l-3.177,4.522L13.719,13.16z"/>
		</g>
		<g id="Group_574" transform="translate(7.445 33.533)">
			<path id="Path_3086" fill="#E8DAF7" d="M14.555,11.966l1.886-3.399L2.678,0.004L0,4.839L14.555,11.966z"/>
		</g>
		<g id="Group_575" transform="translate(4.462 40.081)">
			<path id="Path_3087" fill="#E8DAF7" d="M15.235,10.635l1.513-3.586L2.148,0l-2.149,5.092L15.235,10.635z"/>
		</g>
		<g id="Group_576" transform="translate(2.221 46.965)">
			<path id="Path_3088" fill="#E8DAF7" d="M15.738,9.183l1.124-3.727L1.596,0l-1.6,5.292L15.738,9.183z"/>
		</g>
		<g id="Group_577" transform="translate(0.744 54.107)">
			<path id="Path_3089" fill="#E8DAF7" d="M16.063,7.629l0.721-3.825l-15.76-3.8L0,5.436L16.063,7.629z"/>
		</g>
		<g id="Group_578" transform="translate(0.051 61.427)">
			<path id="Path_3090" fill="#E8DAF7" d="M16.205,5.987l0.311-3.88L0.441,0L0,5.51L16.205,5.987z"/>
		</g>
		<g id="Group_579" transform="translate(0 68.84)">
			<path id="Path_3091" fill="#E8DAF7" d="M16.311,4.277l-0.1-3.891L0.004,0l0.147,5.525L16.311,4.277z"/>
		</g>
		<g id="Group_580" transform="translate(0.299 74.926)">
			<path id="Path_3092" fill="#E8DAF7" d="M16.673,3.858L16.156,0l-16.157,1.34l0.734,5.478L16.673,3.858z"/>
		</g>
		<g id="Group_581" transform="translate(1.386 80.566)">
			<path id="Path_3093" fill="#E8DAF7" d="M16.846,3.78L15.922,0L0.002,3.048l1.312,5.369L16.846,3.78z"/>
		</g>
		<g id="Group_582" transform="translate(3.247 86.084)">
			<path id="Path_3094" fill="#E8DAF7" d="M16.829,3.662l-1.32-3.661L0,4.725l1.875,5.199L16.829,3.662z"/>
		</g>
		<g id="Group_583" transform="translate(5.863 91.416)">
			<path id="Path_3095" fill="#E8DAF7" d="M16.621,3.5l-1.7-3.5L0.002,6.345l2.417,4.971L16.621,3.5z"/>
		</g>
		<g id="Group_584" transform="translate(9.203 96.503)">
			<path id="Path_3096" fill="#E8DAF7" d="M16.224,3.299L14.159,0l-14.16,7.9l2.932,4.686L16.224,3.299z"/>
		</g>
		<g id="Group_585" transform="translate(13.229 101.287)">
			<path id="Path_3097" fill="#E8DAF7" d="M15.641,3.061L13.241,0L0.001,9.355l3.413,4.348L15.641,3.061z"/>
		</g>
		<g id="Group_586" transform="translate(17.897 105.714)">
			<path id="Path_3098" fill="#E8DAF7" d="M14.886,2.788l-2.715-2.789L0,10.712l3.856,3.96L14.886,2.788z"/>
		</g>
		<g id="Group_587" transform="translate(23.152 109.733)">
			<path id="Path_3099" fill="#E8DAF7" d="M13.959,2.485l-3-2.483L-0.004,11.944l4.255,3.528L13.959,2.485z"/>
		</g>
		<g id="Group_588" transform="translate(28.936 113.299)">
			<path id="Path_3100" fill="#E8DAF7" d="M12.876,2.156L9.633,0.003L0.001,13.044L4.607,16.1L12.876,2.156z"/>
		</g>
		<g id="Group_589" transform="translate(35.183 116.371)">
			<path id="Path_3101" fill="#E8DAF7" d="M11.645,1.795L8.191,0L0,13.99l4.9,2.549L11.645,1.795z"/>
		</g>
		<g id="Group_590" transform="translate(41.822 118.916)">
			<path id="Path_3102" fill="#E8DAF7" d="M10.282,1.417L6.657,0l-6.658,14.782l5.148,2.013L10.282,1.417z"/>
		</g>
		<g id="Group_591" transform="translate(48.779 120.903)">
			<path id="Path_3103" fill="#E8DAF7" d="M8.803,1.023L5.048-0.002l-5.049,15.406l5.333,1.454L8.803,1.023z"/>
		</g>
		<g id="Group_592" transform="translate(55.973 122.31)">
			<path id="Path_3104" fill="#E8DAF7" d="M7.225,0.618L3.383,0.004L0,15.859l5.457,0.879L7.225,0.618z"/>
		</g>
		<g id="Group_593" transform="translate(63.324 123.122)">
			<path id="Path_3105" fill="#E8DAF7" d="M5.565,0.208L1.678,0.001L0,16.126l5.519,0.294L5.565,0.208z"/>
		</g>
		<g id="Group_594" transform="translate(70.702 123.122)">
			<path id="Path_3106" fill="#E8DAF7" d="M3.887,0l-3.888,0.207l0.045,16.212l5.519-0.294L3.887,0z"/>
		</g>
		<g id="Group_595" transform="translate(76.393 122.31)">
			<path id="Path_3107" fill="#E8DAF7" d="M3.843,0.004L0,0.623l1.768,16.114l5.457-0.879L3.843,0.004z"/>
		</g>
		<g id="Group_596" transform="translate(82.008 120.903)">
			<path id="Path_3108" fill="#E8DAF7" d="M3.754,0L0,1.024L3.471,16.86l5.332-1.454L3.754,0z"/>
		</g>
		<g id="Group_597" transform="translate(87.485 118.916)">
			<path id="Path_3109" fill="#E8DAF7" d="M3.625,0L0,1.417l5.135,15.377l5.148-2.013L3.625,0z"/>
		</g>
		<g id="Group_598" transform="translate(92.762 116.371)">
			<path id="Path_3110" fill="#E8DAF7" d="M3.455,0L0.002,1.795l6.74,14.745l4.899-2.549L3.455,0z"/>
		</g>
		<g id="Group_599" transform="translate(97.779 113.299)">
			<path id="Path_3111" fill="#E8DAF7" d="M3.243,0L0,2.152l8.269,13.944l4.606-3.056L3.243,0z"/>
		</g>
		<g id="Group_600" transform="translate(102.478 109.733)">
			<path id="Path_3112" fill="#E8DAF7" d="M2.997-0.002l-3,2.483l9.699,12.987l4.256-3.528L2.997-0.002z"/>
		</g>
		<g id="Group_601" transform="translate(106.808 105.714)">
			<path id="Path_3113" fill="#E8DAF7" d="M2.715,0l-2.716,2.789L11.03,14.67l3.855-3.96L2.715,0z"/>
		</g>
		<g id="Group_602" transform="translate(110.717 101.287)">
			<path id="Path_3114" fill="#E8DAF7" d="M2.403,0l-2.4,3.062l12.23,10.642l3.413-4.348L2.403,0z"/>
		</g>
		<g id="Group_603" transform="translate(114.164 96.503)">
			<path id="Path_3115" fill="#E8DAF7" d="M2.065,0l-2.064,3.3l13.293,9.281l2.932-4.686L2.065,0z"/>
		</g>
		<g id="Group_604" transform="translate(117.107 91.416)">
			<path id="Path_3116" fill="#E8DAF7" d="M1.702,0l-1.7,3.5l14.2,7.816l2.417-4.971L1.702,0z"/>
		</g>
		<g id="Group_605" transform="translate(119.514 86.084)">
			<path id="Path_3117" fill="#E8DAF7" d="M1.321,0L0,3.661l14.955,6.262l1.875-5.199L1.321,0z"/>
		</g>
		<g id="Group_606" transform="translate(121.358 80.566)">
			<path id="Path_3118" fill="#E8DAF7" d="M0.923,0l-0.924,3.78l15.535,4.638l1.312-5.369L0.923,0z"/>
		</g>
		<g id="Group_607" transform="translate(122.618 74.926)">
			<path id="Path_3119" fill="#E8DAF7" d="M0.515,0l-0.517,3.858l15.94,2.959l0.734-5.479L0.515,0z"/>
		</g>
		<g id="Group_608" transform="translate(123.28 68.84)">
			<path id="Path_3120" fill="#37226B" d="M0.103,0.386L0.003,4.277l16.164,1.248L16.314,0L0.103,0.386z"/>
		</g>
		<g id="Group_609" transform="translate(123.024 61.427)">
			<path id="Path_3121" fill="#37226B" d="M0,2.107l0.311,3.88L16.516,5.51L16.075,0L0,2.107z"/>
		</g>
		<g id="Group_610" transform="translate(122.062 54.107)">
			<path id="Path_3122" fill="#37226B" d="M0,3.804l0.721,3.825l16.063-2.2L15.76-0.003L0,3.804z"/>
		</g>
		<g id="Group_611" transform="translate(120.508 46.965)">
			<path id="Path_3123" fill="#37226B" d="M0,5.457l1.123,3.727l15.738-3.893l-1.6-5.292L0,5.457z"/>
		</g>
		<g id="Group_612" transform="translate(118.38 40.081)">
			<path id="Path_3124" fill="#37226B" d="M-0.001,7.049l1.514,3.586l15.234-5.542l-2.148-5.092L-0.001,7.049z"/>
		</g>
		<g id="Group_613" transform="translate(115.7 33.533)">
			<path id="Path_3125" fill="#37226B" d="M0,8.561l1.887,3.399l14.56-7.13l-2.679-4.827L0,8.561z"/>
		</g>
		<g id="Group_614" transform="translate(112.501 27.396)">
			<path id="Path_3126" fill="#37226B" d="M0,9.976l2.237,3.186l13.72-8.639L12.779,0L0,9.976z"/>
		</g>
		<g id="Group_615" transform="translate(108.818 21.738)">
			<path id="Path_3127" fill="#37226B" d="M0,11.276l2.563,2.93l12.72-10.047l-3.64-4.16L0,11.276z"/>
		</g>
		<g id="Group_616" transform="translate(104.692 16.624)">
			<path id="Path_3128" fill="#37226B" d="M0,12.452l2.859,2.64L14.443,3.75l-4.061-3.749L0,12.452z"/>
		</g>
		<g id="Group_617" transform="translate(100.172 12.112)">
			<path id="Path_3129" fill="#37226B" d="M0,13.485l3.123,2.32L13.436,3.297l-4.438-3.3L0,13.485z"/>
		</g>
		<g id="Group_618" transform="translate(95.307 8.253)">
			<path id="Path_3130" fill="#37226B" d="M0,14.364l3.353,1.976l8.925-13.534L7.515-0.001L0,14.364z"/>
		</g>
		<g id="Group_619" transform="translate(90.153 5.091)">
			<path id="Path_3131" fill="#37226B" d="M0,15.083l3.544,1.608l7.435-14.407L5.946,0L0,15.083z"/>
		</g>
		<g id="Group_620" transform="translate(84.768 2.661)">
			<path id="Path_3132" fill="#37226B" d="M0.003,15.626l3.7,1.222L9.565,1.733L4.317-0.003L0.003,15.626z"/>
		</g>
		<g id="Group_621" transform="translate(79.214 0.992)">
			<path id="Path_3133" fill="#37226B" d="M-0.001,15.998L3.8,16.821L8.022,1.168L2.622,0L-0.001,15.998z"/>
		</g>
		<g id="Group_622" transform="translate(73.553 0.101)">
			<path id="Path_3134" fill="#37226B" d="M0,16.186L3.869,16.6L6.405,0.587l-5.5-0.588L0,16.186z"/>
		</g>
	</g>
	<g id="Group_624" transform="translate(438.402 1238.955)">
		<path id="Path_3135" fill="#250951" d="M0,3.96h1.97v1.037h0.038c0.625-0.763,1.569-1.192,2.555-1.16
			c0.566-0.012,1.128,0.107,1.64,0.35c0.418,0.253,0.796,0.567,1.122,0.933c0.78-0.873,1.914-1.345,3.083-1.282
			c0.821,0.004,1.613,0.31,2.225,0.858c0.701,0.656,1.079,1.587,1.037,2.546v6.5H11.7V7.915c0.04-0.573-0.154-1.138-0.538-1.564
			c-0.366-0.368-0.868-0.566-1.386-0.548c-0.522-0.019-1.029,0.18-1.4,0.548C7.981,6.771,7.78,7.339,7.82,7.915v5.826H5.849V7.915
			c0.04-0.573-0.154-1.138-0.537-1.564c-0.371-0.368-0.878-0.566-1.4-0.548C3.394,5.784,2.892,5.982,2.526,6.35
			C2.125,6.768,1.92,7.337,1.96,7.915v5.826h-1.97L0,3.96z"/>
		<path id="Path_3136" fill="#250951" d="M16.394,0h1.971v1.971h-1.971V0z M16.394,3.96h1.971v9.786h-1.971V3.96z"/>
		<path id="Path_3137" fill="#250951" d="M20.967,3.96h1.972v1.037h0.037c0.622-0.762,1.563-1.19,2.545-1.16
			c0.822,0.004,1.613,0.31,2.226,0.858c0.7,0.657,1.083,1.586,1.047,2.546v6.5h-1.97V7.915c0.039-0.574-0.158-1.141-0.547-1.565
			c-0.365-0.367-0.868-0.565-1.387-0.547c-0.521-0.019-1.029,0.18-1.4,0.547c-0.395,0.422-0.596,0.989-0.555,1.565v5.826h-1.972
			L20.967,3.96z"/>
	</g>
	<g id="Group_630" transform="translate(429.823 1184.173)">
		<path id="Path_3840" fill="#37226B" d="M0,10.082v-6l5.595-4.081h5.649v39.407H5.595V5.973L0,10.082z"/>
		<path id="Path_3841" fill="#37226B" d="M24.189,0h21v5.649H29.511v8.919c1.788-1.425,4.014-2.188,6.3-2.162
			c1.426,0.02,2.835,0.294,4.162,0.812c1.09,0.487,2.073,1.186,2.893,2.054c1.077,1.048,1.893,2.335,2.378,3.757
			c0.281,0.924,0.463,1.875,0.541,2.838c0.108,1.134,0.162,2.53,0.162,4.19c0.058,1.979-0.124,3.957-0.541,5.892
			c-0.362,1.321-1.009,2.548-1.892,3.595c-0.927,1.155-2.076,2.111-3.38,2.812c-1.556,0.914-3.331,1.39-5.136,1.378
			c-2.633,0.011-5.199-0.823-7.324-2.379c-2.252-1.622-3.649-4.244-4.189-7.865h5.648c0.613,3.027,2.496,4.56,5.649,4.595
			c1.138,0.057,2.266-0.226,3.243-0.811c0.749-0.49,1.318-1.212,1.621-2.054c0.332-0.885,0.533-1.814,0.595-2.758
			c0.036-0.973,0.054-1.919,0.054-2.838c0.11-1.888-0.252-3.773-1.054-5.486c-0.421-0.689-1.03-1.243-1.757-1.596
			c-0.923-0.35-1.905-0.515-2.893-0.485c-0.98-0.013-1.949,0.229-2.811,0.699c-0.974,0.625-1.759,1.504-2.27,2.541h-5.325L24.189,0z
			"/>
	</g>
</g>
</svg>
