<?xml version="1.0" encoding="utf-8"?>
<!-- Generator: Adobe Illustrator 16.0.0, SVG Export Plug-In . SVG Version: 6.00 Build 0)  -->
<!DOCTYPE svg PUBLIC "-//W3C//DTD SVG 1.1//EN" "http://www.w3.org/Graphics/SVG/1.1/DTD/svg11.dtd">
<svg version="1.1" id="Layer_1" xmlns="http://www.w3.org/2000/svg" xmlns:xlink="http://www.w3.org/1999/xlink" x="0px" y="0px"
	 width="1129.1px" height="2188.7px" viewBox="0 0 1129.1 2188.7" enable-background="new 0 0 1129.1 2188.7" xml:space="preserve">
<g id="Group_4" transform="translate(409.692 -321.394)">
	
		<path id="Path_93" opacity="0.5" fill="none" stroke="#37226B" stroke-width="0.9997" stroke-miterlimit="3.9986" enable-background="new    " d="
		M690,1971.5c95.2,204.6-52.7,491.5-270.9,356.9c-160.6-99.1-295.1-63.701-405.2-105.6c-210.2-80.201-272.8-213.4-166.6-410.9
		c300.3-558.701-98-254.301-233.5-704.5c-135.5-450.2,351.3-856.1,508.7-541c157.399,315.1,440.5,326,570.3,572
		C777.5,1298.9,379,1302.8,690,1971.5z"/>
	<path id="Path_86" opacity="0.5" fill="#E8DAF7" enable-background="new    " d="M682.201,1817.1
		c81.6,175.201-45.601,421.1-233,305.9c-137.9-84.801-253.501-54.301-348.101-90.199c-180.6-68.602-234.2-182.602-142.9-351.9
		C216.6,1202-125.9,1463-242,1077.4C-358.1,691.8,60.4,343.7,195.5,613.6c135.1,269.899,378.3,279,489.7,489.7
		C757.8,1240.8,415.3,1244.4,682.201,1817.1z"/>
</g>
</svg>
