<?xml version="1.0" encoding="utf-8"?>
<!-- Generator: Adobe Illustrator 16.0.0, SVG Export Plug-In . SVG Version: 6.00 Build 0)  -->
<!DOCTYPE svg PUBLIC "-//W3C//DTD SVG 1.1//EN" "http://www.w3.org/Graphics/SVG/1.1/DTD/svg11.dtd">
<svg version="1.1" id="Layer_1" xmlns="http://www.w3.org/2000/svg" xmlns:xlink="http://www.w3.org/1999/xlink" x="0px" y="0px"
	 width="701.4px" height="1324.4px" viewBox="0 0 701.4 1324.4" enable-background="new 0 0 701.4 1324.4" xml:space="preserve">
<g id="Group_7" transform="translate(-1442.713 219.2)">
	<path id="Path_85" opacity="0.5" fill="#E8DAF7" enable-background="new    " d="M2117.1,781.1
		c54.9,123.7-36.8,294.102-166.198,211.102C1855.6,931.1,1774.7,950.9,1709.1,924.6c-125.2-50.3-161.3-130.8-95.6-248.1
		c185.9-331.8-56.1-153.5-132.6-424.9c-76.5-271.4,219.6-509.6,310.7-319c91.102,190.6,260.7,200.1,335.9,348.9
		C2176.6,378.7,1937.6,376.9,2117.1,781.1z"/>
	
		<path id="Path_90" opacity="0.5" fill="none" stroke="#37226B" stroke-width="1.0001" stroke-miterlimit="4.0005" enable-background="new    " d="
		M2123.6,765.9c61.3,120.601-21.3,295.7-154.899,219.601c-98.4-56-178.2-32-245.101-54.8c-127.7-43.7-168-122.2-108.5-242.802
		C1783.401,346.7,1551,537.5,1460.4,270.5S1653-250.2,1754-64.6s270.9,186.2,353.8,331C2161.898,360.8,1923.1,371.5,2123.6,765.9z"
		/>
</g>
</svg>
