<?xml version="1.0" encoding="utf-8"?>
<!-- Generator: Adobe Illustrator 16.0.0, SVG Export Plug-In . SVG Version: 6.00 Build 0)  -->
<!DOCTYPE svg PUBLIC "-//W3C//DTD SVG 1.1//EN" "http://www.w3.org/Graphics/SVG/1.1/DTD/svg11.dtd">
<svg version="1.1" id="Layer_1" xmlns="http://www.w3.org/2000/svg" xmlns:xlink="http://www.w3.org/1999/xlink" x="0px" y="0px"
	 width="1250.9px" height="784.4px" viewBox="0 0 1250.9 784.4" enable-background="new 0 0 1250.9 784.4" xml:space="preserve">
<g id="Group_6" transform="translate(-835.042 -2285.438)">
	<path id="Path_92" opacity="0.5" fill="none" stroke="#37226B" enable-background="new    " d="M1458.3,2830.4
		c142.801-56.399,87.301,153.8,238.5,117.399C1848,2911.4,2194.4,2398,2051.601,2361C2038.3,2357.5,1809.8,2498.4,1243,2299.6
		c-205.3-72-306.3,154.8-356.3,336.1C676.2,3398.9,1164,2946.6,1458.3,2830.4z"/>
	<path id="Path_89" opacity="0.5" fill="#E8DAF7" enable-background="new    " d="M1399.3,2767.1
		c126.801-47.5,77.5,129.6,211.7,98.9c134.2-30.701,441.601-463.2,315-494.301c-11.8-2.899-214.6,115.7-717.7-51.7
		c-182.3-60.6-271.9,130.5-316.3,283.2C705.1,3246,1138.1,2865,1399.3,2767.1z"/>
</g>
</svg>
