<svg xmlns="http://www.w3.org/2000/svg" width="145.823" height="143.824" viewBox="0 0 145.823 143.824">
  <g id="Group_651" data-name="Group 651" transform="translate(-893.352 -408.371)">
    <path id="Path_3058" data-name="Path 3058" d="M204.951,516.955a3.345,3.345,0,0,1,.8-.165v7.128c-1.557.625-3.328,1.47-5.156,2.344-8.222,3.93-17.424,8.325-24.3,1.457a14.45,14.45,0,0,1-1.916-2.373c-8.792,2.81-17.45,10.077-26.109,3.768a14.318,14.318,0,0,1-3.548-3.761c-8.209,2.7-16.754,10.035-25.455,3.836a14.294,14.294,0,0,1-3.671-3.865c-8.811,2.8-17.531,10.112-26.209,3.79a14.214,14.214,0,0,1-3.561-3.774c-5.995,1.884-13.31,6.293-19.046,6.293a14.964,14.964,0,0,1-6.694-1.69V521.5a9.66,9.66,0,0,0,6.694,3.3c2.4,0,5.972-1.528,9.669-3.108a54.721,54.721,0,0,1,10.332-3.635,3.416,3.416,0,0,1,4.02,2.094,6.759,6.759,0,0,0,6.212,4.648c4.425,0,12.465-5.383,19.694-6.781a3.4,3.4,0,0,1,3.839,2.111,6.862,6.862,0,0,0,6.374,4.668c2.292-.039,5.409-1.486,8.665-3a45.533,45.533,0,0,1,10.083-3.742,3.417,3.417,0,0,1,4.02,2.094A6.759,6.759,0,0,0,155.9,524.8c2.366,0,5.729-1.5,9.222-3.046a50.213,50.213,0,0,1,10.206-3.693,3.409,3.409,0,0,1,4.02,2.091c2.826,7.412,10.931,3.47,18.311-.055a65.669,65.669,0,0,1,7.29-3.143Zm.8-13.424c-9.876,5.017-24.9,14.508-32.583,6.824a14.288,14.288,0,0,1-1.916-2.37c-8.792,2.81-17.45,10.073-26.109,3.768a14.32,14.32,0,0,1-3.548-3.761c-8.209,2.7-16.754,10.035-25.455,3.833a14.236,14.236,0,0,1-3.671-3.862c-8.811,2.8-17.531,10.112-26.209,3.79a14.251,14.251,0,0,1-3.557-3.774c-6,1.884-13.31,6.293-19.046,6.293a13.843,13.843,0,0,1-3.567-.486v-7.27a8.13,8.13,0,0,0,3.567.922c2.392,0,5.972-1.528,9.665-3.1A54.487,54.487,0,0,1,83.653,500.7a3.411,3.411,0,0,1,4.02,2.094,6.759,6.759,0,0,0,6.212,4.645c4.428,0,12.465-5.38,19.694-6.778a3.4,3.4,0,0,1,3.839,2.111,6.868,6.868,0,0,0,6.374,4.668c2.292-.042,5.409-1.486,8.665-3a45.6,45.6,0,0,1,10.083-3.742,3.412,3.412,0,0,1,4.02,2.094,6.755,6.755,0,0,0,6.212,4.645c2.366,0,5.729-1.492,9.222-3.043a50.459,50.459,0,0,1,10.209-3.7,3.409,3.409,0,0,1,4.017,2.094,7.868,7.868,0,0,0,1.748,2.732c3.23,3.231,13.242-2.033,21.244-6.241,2.356-1.24,4.567-2.4,6.539-3.3v7.542Z" transform="translate(833.264 20.564)" fill="#a2d1e8"/>
    <path id="Path_3067" data-name="Path 3067" d="M204.054,532.523h-14.8l-34.713-48.386H140.83l-10.436-20.885a2.268,2.268,0,1,0-4.056,2.03l9.714,19.438-5.412,11.371H98.779l-5.691-11.954H84.553l.57,11.954H83.983L78.3,484.138H69.76l.57,11.954q-1.675,3.447-3.127,6.833h5.108a60.865,60.865,0,0,1,1.123,6.83H64.519q-.816,2.292-1.5,4.554H73.741a38.509,38.509,0,0,1-.382,6.83H61.292q-.466,2.292-.757,4.555h11.64c-1.576,4-4.509,6.83-9.623,6.83H60.088v8.555c0,16.35,6.778,25.53,11.556,32.577a55.449,55.449,0,0,1,10.546-3.6,10.265,10.265,0,0,1,11.863,6.335,1.254,1.254,0,0,0,.1.2c3.24-.605,10.724-5.2,18.15-6.616a10.275,10.275,0,0,1,11.485,6.354,1.37,1.37,0,0,0,.136.262c3.017-.6,9.607-4.9,17.153-6.539a10.269,10.269,0,0,1,11.867,6.335,1.464,1.464,0,0,0,.1.207c3.052-.55,10.368-4.949,17.693-6.542a10.273,10.273,0,0,1,11.5,5.49,44.407,44.407,0,0,0,8.468-3.528l14.767-36.959C205.967,533.821,205.391,532.523,204.054,532.523ZM80.568,554.156a4.554,4.554,0,1,1,4.554-4.555A4.554,4.554,0,0,1,80.568,554.156Zm79.046-51.231,4.9,6.83h-59.87c-.9-2.327-1.877-4.613-2.891-6.83Zm-56,51.231a4.554,4.554,0,1,1,4.551-4.555A4.555,4.555,0,0,1,103.612,554.156Zm2.671-39.847h61.5l4.9,6.83H108.205C107.681,518.848,107.027,516.565,106.282,514.309Zm20.467,39.847A4.554,4.554,0,1,1,131.3,549.6,4.554,4.554,0,0,1,126.749,554.156Zm23.141,0a4.554,4.554,0,1,1,4.551-4.555A4.554,4.554,0,0,1,149.89,554.156Zm23.141,0a4.554,4.554,0,1,1,4.551-4.555A4.552,4.552,0,0,1,173.031,554.156Zm-63.444-21.633a46.416,46.416,0,0,0-.521-6.83h66.878l4.9,6.83Z" transform="translate(833.528 -53.629)" fill="#fff"/>
  </g>
</svg>
