<?xml version="1.0" encoding="utf-8"?>
<!-- Generator: Adobe Illustrator 16.0.0, SVG Export Plug-In . SVG Version: 6.00 Build 0)  -->
<!DOCTYPE svg PUBLIC "-//W3C//DTD SVG 1.1//EN" "http://www.w3.org/Graphics/SVG/1.1/DTD/svg11.dtd">
<svg version="1.1" id="Layer_1" xmlns="http://www.w3.org/2000/svg" xmlns:xlink="http://www.w3.org/1999/xlink" x="0px" y="0px"
	 width="129.199px" height="180.477px" viewBox="0 0 129.199 180.477" enable-background="new 0 0 129.199 180.477"
	 xml:space="preserve">
<g id="Group_649" transform="translate(-731.003 -432.253)">
	<g id="Group_648" transform="translate(745.251 432.253)">
		<path id="Path_3899" fill="#37226B" d="M38.848,9.619c-2.22,0-3.66,1.963-3.66,4.918c0,3.042,1.44,4.91,3.709,4.91
			s3.6-2.031,3.6-4.945C42.501,11.718,41.148,9.619,38.848,9.619z"/>
		<path id="Path_3900" fill="#37226B" d="M95.232,0H5.468C2.45-0.003,0.002,2.442-0.001,5.459c0,0.002,0,0.003,0,0.005v22.683h100.7
			V5.464c0-3.018-2.445-5.464-5.464-5.464C95.234,0,95.233,0,95.232,0z M26.385,22.6h-4.724v-6.38h-5.713v6.38h-4.729V6.5h4.729
			v5.947h5.713V6.491h4.727L26.385,22.6z M38.657,22.866c-5.449,0-8.455-3.765-8.455-8.227c0-4.7,3.343-8.428,8.748-8.428
			c5.655,0,8.537,3.844,8.537,8.166c0.001,5.186-3.398,8.484-8.826,8.484L38.657,22.866z M63.257,10.124h-4.566V22.6H53.97V10.12
			h-4.488V6.493h13.779L63.257,10.124z M78.539,22.6H66.738V6.5h11.43v3.542h-6.701v2.577h6.32v3.49h-6.326v2.961h7.078V22.6z
			 M93.938,22.6H82.461V6.5h4.728V19h6.75V22.6z"/>
	</g>
	<path id="Path_3901" fill="#E8DAF7" d="M735.5,476.252L731,612.729h49.255V577.2h30.687v35.529H860.2l-4.492-136.477
		c-0.25-5.378-4.652-9.628-10.035-9.687H745.53C740.148,466.627,735.749,470.876,735.5,476.252z M823.635,493.222h16.604v19.374
		h-16.608L823.635,493.222z M823.635,527.942h16.604v19.378h-16.608L823.635,527.942z M823.635,562.665h16.604v19.374h-16.608
		L823.635,562.665z M787.3,493.222h16.609v19.374H787.3V493.222z M787.3,527.942h16.609v19.378H787.3V527.942z M750.965,493.222
		h16.609v19.374h-16.612L750.965,493.222z M750.965,527.942h16.609v19.378h-16.612L750.965,527.942z M750.965,562.665h16.609v19.374
		h-16.612L750.965,562.665z"/>
</g>
</svg>
