<?xml version="1.0" encoding="utf-8"?>
<!-- Generator: Adobe Illustrator 16.0.0, SVG Export Plug-In . SVG Version: 6.00 Build 0)  -->
<!DOCTYPE svg PUBLIC "-//W3C//DTD SVG 1.1//EN" "http://www.w3.org/Graphics/SVG/1.1/DTD/svg11.dtd">
<svg version="1.1" id="Layer_1" xmlns="http://www.w3.org/2000/svg" xmlns:xlink="http://www.w3.org/1999/xlink" x="0px" y="0px"
	 width="1000px" height="1000px" viewBox="0 0 1000 1000" enable-background="new 0 0 1000 1000" xml:space="preserve">
<path id="Path_3071" fill="none" stroke="#FFFFFF" stroke-width="12" stroke-miterlimit="10" d="M927.504,685.943l-68.622-27.67
	l7.748-19.923l68.622,27.671c17.709-45.933,27.67-95.186,29.884-144.438h-73.603v-43.166h73.603
	c-2.214-51.466-12.729-101.826-32.098-149.418l-68.068,28.777l-8.302-19.369l68.069-28.777
	c-47.593-105.7-133.37-190.371-239.624-236.857l-27.67,69.176l-19.923-8.301l27.67-68.622
	c-45.932-17.709-95.185-27.67-144.438-29.884v73.603h-42.612V35.141c-51.467,2.213-101.826,12.729-149.419,32.097l28.776,68.069
	l-19.922,8.301L308.799,75.54c-44.825,20.476-86.884,47.593-123.409,80.797l52.02,52.02L208.08,238.24l-52.02-52.02
	c-34.311,38.185-62.534,81.35-83.563,128.39l69.175,28.224l-8.301,19.922l-68.622-27.67c-17.709,45.933-27.67,94.632-29.884,143.885
	h73.603v43.165H34.864c2.214,51.467,12.729,101.827,32.098,149.419l68.068-28.776l8.301,19.923l-68.069,28.776
	c20.476,44.826,47.593,86.331,80.797,122.855l52.02-52.02l30.437,30.437l-52.02,52.021
	c85.777,78.583,197.564,122.302,313.779,122.302s228.003-43.719,313.78-122.302l-52.021-52.021l30.438-30.437l52.021,52.02
	C878.805,776.148,907.028,732.982,927.504,685.943L927.504,685.943z"/>
<g id="Group_653" transform="translate(-419.656 -398.555)">
	<g id="Group_650">
		<path id="Path_3070" fill="#E8DAF7" d="M952.827,853.425l235.196-209.74L979.944,881.649c6.641,11.621,9.961,24.903,10.515,38.185
			c0,43.165-34.864,78.03-78.029,78.03c-43.166,0-78.03-34.864-78.03-78.03l0,0c0-43.165,34.864-78.03,78.03-78.03l0,0
			C926.817,841.803,940.652,846.231,952.827,853.425L952.827,853.425z"/>
		<path id="Path_3071_1_" fill="none" stroke="#FFFFFF" stroke-width="12" stroke-miterlimit="10" d="M1347.404,1083.641
			l-68.623-27.67l7.748-19.923l68.622,27.67c17.709-45.933,27.671-95.186,29.884-144.438h-73.602v-43.165h73.602
			c-2.213-51.467-12.728-101.826-32.097-149.419l-68.069,28.777l-8.301-19.369l68.068-28.777
			c-47.592-105.7-133.369-190.371-239.623-236.856l-27.67,69.175l-19.923-8.301l27.671-68.622
			c-45.934-17.709-95.186-27.67-144.438-29.884v73.603h-42.612v-73.603c-51.467,2.214-101.826,12.729-149.419,32.098l28.776,68.068
			l-19.922,8.301l-28.777-68.068c-44.825,20.476-86.884,47.593-123.409,80.797l52.02,52.02l-30.438,30.437l-52.02-52.02
			c-34.312,38.185-62.535,81.351-83.564,128.39l69.176,28.224l-8.301,19.922l-68.622-27.67
			c-17.709,45.933-27.67,94.633-29.884,143.885h73.603v43.166h-73.603c2.213,51.467,12.728,101.826,32.097,149.419l68.069-28.777
			l8.301,19.923l-68.068,28.777c20.476,44.825,47.593,86.33,80.797,122.855l52.02-52.021l30.438,30.438l-52.02,52.02
			c86.331,77.477,198.118,121.195,314.333,121.195s228.002-43.719,313.779-122.302l-52.02-52.021l30.438-30.437l52.02,52.02
			C1298.151,1173.845,1326.375,1130.68,1347.404,1083.641L1347.404,1083.641z"/>
		<rect id="Rectangle_13" x="780.165" y="1101.35" fill="#E8DAF7" width="287.217" height="56.447"/>
	</g>
</g>
</svg>
