<?xml version="1.0" encoding="utf-8"?>
<!-- Generator: Adobe Illustrator 16.0.0, SVG Export Plug-In . SVG Version: 6.00 Build 0)  -->
<!DOCTYPE svg PUBLIC "-//W3C//DTD SVG 1.1//EN" "http://www.w3.org/Graphics/SVG/1.1/DTD/svg11.dtd">
<svg version="1.1" id="Layer_1" xmlns="http://www.w3.org/2000/svg" xmlns:xlink="http://www.w3.org/1999/xlink" x="0px" y="0px"
	 width="955.714px" height="664.085px" viewBox="0 0 955.714 664.085" enable-background="new 0 0 955.714 664.085"
	 xml:space="preserve">
<g id="Group_34" transform="translate(-940.518 -407)">
	<circle id="Ellipse_8" fill="#E8DAF7" cx="1625.705" cy="794.41" r="250.389"/>
	<path id="Path_92" fill="#E8DAF7" d="M1121.146,1045.55h432.04c73.563-62.969,115.865-154.99,115.764-251.823
		c0-183.239-148.545-331.783-331.783-331.783c-183.239,0-331.783,148.544-331.783,331.783
		C1005.282,890.56,1047.584,982.582,1121.146,1045.55z"/>
	<circle id="Ellipse_9" fill="#BCA7D8" cx="1173.089" cy="829.424" r="22.005"/>
	<circle id="Ellipse_10" fill="#CCE4ED" cx="1708.373" cy="722.751" r="11.558"/>
	<circle id="Ellipse_11" fill="#CCE4ED" cx="1080.712" cy="642.374" r="11.558"/>
	<circle id="Ellipse_12" fill="#BCA7D8" cx="1615.645" cy="496.661" r="22.005"/>
	<ellipse id="Ellipse_13" fill="#37226B" cx="1449.574" cy="1049.485" rx="351.133" ry="21.599"/>
	<g id="Group_33" transform="translate(1115.834 829.514)">
		<path id="Path_93" fill="#37226B" d="M0,214.45c0,0,21.837-6.771,65.357-13.563l-0.952-13.328
			C56.953,113.073,106.198,1.614,106.914-0.001c-19.1,55.916-28.185,114.762-26.839,173.832c-0.001-0.002-0.001-0.006,0-0.01
			c6.677-11.643,19.572-24.199,44.355-31.908c0,0-32.24,27.646-41.468,56.4c42.325-5.607,84.91-9.035,127.586-10.275l-11.09-25.492
			l21.261,21.26c0,0,8.754-63.779,27.517-66.281l-13.759,62.529c0,0,16.256-12.5,20.011-11.256l-9.253,18.5
			c62.3-0.643,187.5,2.172,273.392,11.199l-10.461-24.066l21.258,21.26c0,0,8.756-63.777,27.512-66.279l-13.752,62.523l0.01-0.01
			c0.469-0.359,16.299-12.475,20-11.24L552.387,202.3c28.066,3.332,57.305,7.383,87.717,12.15H0z"/>
		<path id="Path_94" fill="#37226B" d="M124.433,141.917c0,0-32.24,27.645-41.468,56.4l-6.04,1.174l3.148-25.656
			c0-0.004,0.002-0.006,0.005-0.01C86.755,162.183,99.65,149.624,124.433,141.917z"/>
		<path id="Path_95" fill="#37226B" d="M199.462,162.55l21.26,21.26l1.899,3.508l-12.074,0.725L199.462,162.55z"/>
		<path id="Path_96" fill="#37226B" d="M563.187,180.685l-10.807,21.613c0,0-13.17-1.164-13.17-1.533
			c0-0.371,3.973-8.828,3.973-8.828l0.01-0.01C543.66,191.568,559.492,179.45,563.187,180.685z"/>
	</g>
	<path id="Path_97" fill="#250951" d="M1183.066,939.167l-0.1-0.027c-3.821-1.109-7.619-2.398-11.288-3.846
		c-1.309-0.535-1.937-2.031-1.402-3.34c0.525-1.285,1.979-1.918,3.277-1.426c3.523,1.385,7.171,2.629,10.841,3.693
		c1.356,0.404,2.128,1.83,1.725,3.186C1185.73,938.712,1184.39,939.486,1183.066,939.167L1183.066,939.167z M1194.42,941.923
		c-1.38-0.307-2.251-1.676-1.944-3.057c0.307-1.379,1.675-2.25,3.056-1.943c3.7,0.729,7.515,1.313,11.343,1.734
		c1.403,0.182,2.393,1.467,2.21,2.869c-0.177,1.365-1.403,2.348-2.774,2.221c-3.969-0.439-7.928-1.045-11.766-1.799
		C1194.499,941.943,1194.461,941.933,1194.42,941.923z M1161.336,930.615c-0.188-0.047-0.371-0.113-0.544-0.201
		c-3.531-1.789-7.022-3.77-10.377-5.885c-1.183-0.775-1.514-2.363-0.74-3.547c0.757-1.154,2.293-1.502,3.473-0.785
		c3.219,2.031,6.569,3.932,9.958,5.648c1.262,0.641,1.766,2.182,1.127,3.443c-0.539,1.063-1.741,1.615-2.898,1.328L1161.336,930.615
		z M1217.636,944.513c-1.373-0.34-2.209-1.73-1.868-3.102c0.292-1.172,1.361-1.98,2.567-1.943c3.78,0.119,7.65,0.094,11.5-0.074
		c1.413-0.061,2.608,1.035,2.669,2.447c0.062,1.412-1.034,2.607-2.447,2.668c-3.979,0.174-7.976,0.201-11.883,0.078
		C1217.993,944.582,1217.813,944.556,1217.636,944.513L1217.636,944.513z M1240.989,943.513c-1.373-0.34-2.21-1.729-1.87-3.102
		c0.257-1.037,1.132-1.805,2.193-1.928c3.787-0.436,7.62-1.008,11.396-1.699c1.391-0.258,2.726,0.662,2.982,2.053
		c0.256,1.391-0.663,2.727-2.054,2.982l0,0c-3.888,0.719-7.838,1.309-11.74,1.756c-0.304,0.033-0.611,0.014-0.908-0.061V943.513z
		 M1141.56,918.173c-0.336-0.084-0.652-0.234-0.928-0.443c-3.092-2.342-6.189-4.869-9.206-7.514
		c-1.057-0.939-1.152-2.559-0.212-3.615c0.931-1.047,2.53-1.152,3.589-0.236c2.924,2.566,5.925,5.014,8.92,7.281
		c1.127,0.855,1.348,2.461,0.494,3.588C1143.599,918.05,1142.555,918.419,1141.56,918.173L1141.56,918.173z M1263.982,939.261
		c-1.373-0.338-2.211-1.727-1.872-3.1c0.226-0.914,0.934-1.631,1.846-1.865c3.393-0.877,6.644-1.84,9.663-2.861
		c1.332-0.477,2.797,0.219,3.272,1.551s-0.219,2.797-1.551,3.271c-0.026,0.01-0.054,0.02-0.08,0.027
		c-3.137,1.063-6.51,2.061-10.024,2.971c-0.41,0.107-0.842,0.109-1.254,0.008V939.261z M1123.969,902.769
		c-0.455-0.113-0.87-0.348-1.2-0.68c-2.8-2.813-5.519-5.74-8.081-8.699c-0.925-1.07-0.809-2.688,0.261-3.613
		c1.069-0.924,2.686-0.809,3.611,0.262l0,0c2.485,2.869,5.122,5.709,7.839,8.439c0.998,1.002,0.994,2.623-0.008,3.621
		c-0.635,0.633-1.555,0.887-2.424,0.67H1123.969z M1108.68,885.068c-0.577-0.143-1.085-0.48-1.439-0.957
		c-2.3-3.102-4.454-6.252-6.411-9.383c-0.977-1.045-0.921-2.684,0.124-3.66c0.993-0.928,2.535-0.932,3.531-0.006
		c3.217,1.605,6.52,3.033,9.893,4.277c1.344,0.439,2.078,1.885,1.639,3.229s-1.884,2.078-3.229,1.639
		c-0.061-0.02-0.122-0.041-0.182-0.066c-0.891-0.328-1.78-0.67-2.668-1.025c0.467,0.648,0.938,1.295,1.414,1.938
		c0.844,1.135,0.608,2.738-0.526,3.582c-0.615,0.457-1.403,0.615-2.147,0.43V885.068z M1124.059,883.611
		c-1.367-0.361-2.182-1.764-1.82-3.131c0.352-1.328,1.689-2.143,3.03-1.846c2.961,0.707,5.985,1.275,8.989,1.689
		c0.535,0.072,1.292,0.178,2.246,0.295c1.4,0.199,2.373,1.498,2.172,2.898c-0.195,1.359-1.427,2.322-2.793,2.184
		c-0.987-0.121-1.771-0.229-2.324-0.305c-3.167-0.438-6.356-1.035-9.477-1.779L1124.059,883.611z M1147.259,886.568
		c-1.372-0.344-2.206-1.734-1.863-3.105c0.293-1.172,1.364-1.979,2.571-1.938c3.883,0.137,7.743,0.1,11.471-0.109
		c1.412-0.08,2.621,1,2.7,2.412c0.079,1.412-1.001,2.621-2.413,2.701c-3.884,0.217-7.9,0.256-11.939,0.113
		c-0.179-0.006-0.356-0.029-0.53-0.07L1147.259,886.568z M1092.059,869.701c-0.281-0.068-0.547-0.186-0.789-0.344
		c-3.335-2.191-6.549-4.561-9.627-7.102c-1.078-0.914-1.21-2.531-0.295-3.609c0.897-1.057,2.473-1.207,3.555-0.34
		c2.934,2.422,5.998,4.684,9.177,6.771c1.182,0.777,1.509,2.365,0.732,3.547c-0.596,0.908-1.699,1.34-2.753,1.08V869.701z
		 M1170.596,885.201c-1.373-0.34-2.21-1.729-1.87-3.102c0.246-0.992,1.06-1.744,2.07-1.91c3.741-0.607,7.438-1.457,11.069-2.545
		c1.366-0.365,2.77,0.447,3.135,1.814c0.348,1.303-0.375,2.652-1.653,3.086c-3.844,1.152-7.76,2.053-11.721,2.695
		c-0.341,0.057-0.69,0.045-1.027-0.035L1170.596,885.201z M1096.435,865.189c-0.735-0.182-1.353-0.68-1.685-1.359
		c-1.766-3.59-3.319-7.279-4.651-11.051c-0.468-1.336,0.235-2.797,1.569-3.264c1.335-0.469,2.796,0.234,3.264,1.568
		c1.265,3.582,2.74,7.084,4.417,10.492c0.623,1.27,0.099,2.803-1.17,3.426C1097.638,865.267,1097.021,865.333,1096.435,865.189
		L1096.435,865.189z M1074.053,854.855c-0.462-0.117-0.882-0.359-1.213-0.701c-2.787-2.854-5.421-5.852-7.892-8.982
		c-0.876-1.109-0.686-2.719,0.424-3.596c1.11-0.875,2.72-0.686,3.596,0.424l0,0c2.359,2.988,4.874,5.852,7.535,8.574
		c0.988,1.012,0.969,2.633-0.042,3.621c-0.635,0.621-1.545,0.867-2.406,0.654L1074.053,854.855z M1192.873,878.337
		c-1.373-0.34-2.21-1.729-1.87-3.102c0.182-0.734,0.679-1.35,1.358-1.684c3.354-1.633,6.542-3.59,9.516-5.842
		c1.093-0.898,2.707-0.74,3.604,0.354c0.898,1.094,0.739,2.707-0.354,3.605c-0.049,0.039-0.099,0.078-0.15,0.113
		c-3.24,2.455-6.712,4.588-10.367,6.369c-0.539,0.266-1.153,0.332-1.736,0.188L1192.873,878.337z M1059.599,836.535
		c-0.643-0.158-1.199-0.561-1.551-1.123c-2.125-3.377-4.067-6.865-5.818-10.451c-0.65-1.256-0.159-2.799,1.097-3.449
		c1.256-0.65,2.8-0.16,3.45,1.096c0.019,0.037,0.036,0.072,0.053,0.109c1.67,3.42,3.522,6.746,5.55,9.969
		c0.753,1.195,0.395,2.775-0.801,3.529c-0.59,0.371-1.305,0.486-1.981,0.318L1059.599,836.535z M1088.814,843.156
		c-0.969-0.238-1.71-1.02-1.9-2c-0.784-3.967-1.224-7.994-1.315-12.037c-0.028-1.414,1.096-2.582,2.51-2.609
		c1.414-0.027,2.583,1.096,2.61,2.51c0.084,3.748,0.492,7.482,1.219,11.158c0.27,1.391-0.637,2.736-2.027,3.006
		c-0.364,0.07-0.74,0.063-1.1-0.027H1088.814z M1211.265,864.212c-1.373-0.342-2.209-1.732-1.867-3.105
		c0.095-0.379,0.276-0.732,0.529-1.033c2.255-2.676,4.232-5.576,5.9-8.654c0.101-0.186,0.201-0.371,0.3-0.557
		c0.691-1.234,2.251-1.674,3.486-0.984c1.192,0.668,1.651,2.154,1.042,3.377c-0.107,0.201-0.216,0.404-0.326,0.609
		c-1.835,3.385-4.009,6.572-6.49,9.516c-0.628,0.744-1.625,1.068-2.572,0.834L1211.265,864.212z M1049.385,815.558
		c-0.835-0.205-1.512-0.816-1.8-1.627c-1.34-3.764-2.466-7.6-3.372-11.49c-0.32-1.379,0.538-2.754,1.915-3.074
		c1.377-0.319,2.753,0.538,3.073,1.916c0.861,3.701,1.932,7.35,3.208,10.93c0.475,1.332-0.221,2.797-1.553,3.271
		C1050.383,815.652,1049.871,815.677,1049.385,815.558L1049.385,815.558z M1088.452,819.933c-1.308-0.326-2.139-1.611-1.9-2.938
		c0.224-1.242,0.491-2.49,0.793-3.713c0.676-2.725,1.545-5.398,2.6-8c0.532-1.311,2.025-1.941,3.335-1.41
		c1.31,0.531,1.941,2.025,1.41,3.336c-0.964,2.375-1.758,4.818-2.376,7.307c-0.276,1.115-0.52,2.256-0.725,3.391
		c-0.251,1.391-1.583,2.314-2.974,2.064l0,0c-0.055-0.012-0.109-0.023-0.163-0.035V819.933z M1222.16,843.728l-0.108-0.029
		c-1.356-0.398-2.132-1.822-1.734-3.178c0.236-0.801,0.458-1.623,0.66-2.439c0.693-2.814,1.188-5.672,1.479-8.555
		c0.169-1.404,1.444-2.406,2.848-2.238c1.368,0.164,2.361,1.381,2.247,2.754c-0.315,3.123-0.85,6.221-1.6,9.27
		c-0.22,0.887-0.461,1.779-0.718,2.652C1224.848,843.281,1223.492,844.058,1222.16,843.728L1222.16,843.728z M1044.104,792.828
		c-1.038-0.257-1.806-1.131-1.928-2.193c-0.453-3.967-0.687-7.955-0.7-11.948c-0.005-1.414,1.137-2.565,2.551-2.569
		c1.414-0.006,2.565,1.137,2.57,2.551c0.013,3.803,0.237,7.603,0.669,11.381c0.16,1.406-0.849,2.676-2.255,2.836
		c-0.303,0.035-0.609,0.016-0.904-0.057H1044.104z M1097.104,798.375c-1.374-0.342-2.21-1.732-1.869-3.105
		c0.067-0.271,0.178-0.528,0.329-0.764c2.184-3.387,4.621-6.604,7.29-9.621c0.935-1.061,2.553-1.163,3.614-0.229
		c1.061,0.936,1.163,2.553,0.228,3.614l0,0c-2.498,2.823-4.777,5.832-6.82,9c-0.591,0.925-1.705,1.371-2.771,1.108L1097.104,798.375
		z M1224.562,820.589c-1.079-0.268-1.861-1.201-1.938-2.309c-0.262-3.754-0.825-7.48-1.684-11.143
		c-0.322-1.377,0.533-2.754,1.91-3.076s2.754,0.531,3.077,1.908c0.921,3.932,1.525,7.93,1.807,11.957
		c0.096,1.412-0.971,2.635-2.383,2.73C1225.085,820.677,1224.819,820.654,1224.562,820.589z M1043.999,769.498
		c-1.236-0.308-2.058-1.479-1.928-2.746c0.409-3.963,1.016-7.902,1.819-11.805c0.285-1.386,1.639-2.277,3.024-1.992
		s2.277,1.639,1.992,3.023l0,0c-0.769,3.735-1.35,7.507-1.741,11.301c-0.144,1.406-1.401,2.43-2.807,2.285c0,0,0,0-0.001,0
		C1044.236,769.55,1044.117,769.529,1043.999,769.498z M1112.466,780.848c-1.373-0.341-2.208-1.729-1.868-3.102
		c0.127-0.512,0.409-0.972,0.808-1.317c3.029-2.624,6.22-5.055,9.555-7.277c1.195-0.758,2.777-0.404,3.535,0.791
		c0.733,1.156,0.427,2.684-0.694,3.469c-3.155,2.104-6.175,4.404-9.041,6.887c-0.631,0.546-1.488,0.75-2.297,0.546L1112.466,780.848
		z M1219.266,797.921c-0.793-0.195-1.446-0.758-1.755-1.514c-1.424-3.48-3.132-6.836-5.106-10.035
		c-0.719-1.219-0.314-2.789,0.904-3.508c1.182-0.697,2.704-0.338,3.451,0.813c2.122,3.438,3.958,7.047,5.489,10.786
		c0.537,1.309-0.088,2.805-1.396,3.341C1220.35,798.011,1219.794,798.052,1219.266,797.921z M1131.885,767.914
		c-1.373-0.34-2.21-1.729-1.871-3.102c0.181-0.73,0.673-1.344,1.348-1.68c3.596-1.786,7.31-3.326,11.115-4.609
		c1.348-0.428,2.788,0.318,3.216,1.666c0.418,1.316-0.284,2.729-1.586,3.189c-3.584,1.209-7.082,2.66-10.469,4.344
		c-0.544,0.27-1.167,0.336-1.756,0.188L1131.885,767.914z M1048.695,746.626c-0.048-0.012-0.096-0.025-0.144-0.039
		c-1.35-0.418-2.105-1.85-1.689-3.2c1.176-3.808,2.542-7.554,4.093-11.224c0.567-1.296,2.077-1.886,3.373-1.319
		c1.275,0.558,1.871,2.032,1.342,3.319c-1.485,3.512-2.792,7.096-3.917,10.739c-0.404,1.293-1.746,2.049-3.061,1.721
		L1048.695,746.626z M1206.975,778.156c-0.497-0.123-0.945-0.393-1.286-0.773c-2.49-2.778-5.248-5.305-8.234-7.541
		c-1.134-0.845-1.368-2.449-0.522-3.582c0.845-1.135,2.45-1.369,3.583-0.523c3.257,2.438,6.266,5.193,8.981,8.223
		c0.948,1.049,0.867,2.668-0.182,3.617c-0.634,0.572-1.511,0.791-2.34,0.584V778.156z M1153.992,760.555
		c-1.373-0.341-2.21-1.729-1.871-3.102c0.244-0.985,1.047-1.733,2.047-1.907c3.987-0.697,8.027-1.045,12.074-1.037
		c1.414,0.006,2.555,1.156,2.549,2.57s-1.157,2.555-2.57,2.549c-3.748-0.006-7.488,0.316-11.179,0.963
		c-0.35,0.061-0.709,0.047-1.054-0.038L1153.992,760.555z M1188.324,764.343c-0.151-0.037-0.298-0.088-0.439-0.151
		c-3.389-1.521-6.934-2.669-10.571-3.422c-1.385-0.288-2.274-1.644-1.986-3.028c0.287-1.384,1.643-2.273,3.027-1.986l0,0
		c4.003,0.83,7.904,2.094,11.633,3.768c1.289,0.583,1.861,2.1,1.278,3.389C1190.758,764.035,1189.521,764.636,1188.324,764.343
		L1188.324,764.343z M1057.887,725.171c-1.374-0.341-2.211-1.731-1.87-3.105c0.056-0.226,0.143-0.444,0.258-0.647
		c1.972-3.465,4.129-6.822,6.461-10.056c0.829-1.147,2.43-1.405,3.577-0.577s1.405,2.43,0.577,3.577
		c-2.225,3.084-4.282,6.286-6.162,9.592c-0.569,0.995-1.73,1.491-2.843,1.214L1057.887,725.171z M1071.522,706.25
		c-1.373-0.343-2.208-1.733-1.865-3.106c0.101-0.404,0.299-0.777,0.576-1.087c2.662-2.967,5.473-5.796,8.424-8.475
		c1.047-0.951,2.666-0.873,3.617,0.174s0.873,2.667-0.174,3.617l0,0c-2.821,2.561-5.508,5.264-8.052,8.1
		c-0.634,0.708-1.607,1.006-2.529,0.776L1071.522,706.25z M1088.797,690.55c-1.372-0.34-2.209-1.728-1.869-3.1
		c0.143-0.578,0.483-1.088,0.962-1.443c3.169-2.348,6.509-4.579,9.926-6.632c1.215-0.725,2.787-0.328,3.512,0.887
		c0.722,1.21,0.332,2.776-0.875,3.504c-3.276,1.968-6.478,4.106-9.515,6.357c-0.614,0.453-1.398,0.608-2.139,0.423L1088.797,690.55z
		 M1108.815,678.512c-1.373-0.339-2.211-1.728-1.872-3.101c0.184-0.742,0.689-1.364,1.378-1.695
		c3.556-1.706,7.249-3.276,10.977-4.664c1.326-0.494,2.8,0.18,3.294,1.506c0.494,1.326-0.181,2.8-1.506,3.294
		c-3.582,1.335-7.132,2.844-10.549,4.483c-0.537,0.257-1.147,0.317-1.724,0.172L1108.815,678.512z M1130.708,670.347
		c-1.373-0.339-2.212-1.727-1.873-3.1c0.222-0.9,0.914-1.61,1.808-1.856c3.8-1.045,7.712-1.938,11.618-2.656
		c1.391-0.255,2.725,0.665,2.98,2.056s-0.665,2.725-2.056,2.98c-3.762,0.691-7.526,1.551-11.187,2.557
		c-0.422,0.116-0.868,0.121-1.293,0.015L1130.708,670.347z M1153.692,666.119c-1.373-0.341-2.208-1.731-1.867-3.104
		c0.262-1.052,1.157-1.825,2.235-1.931c3.924-0.381,7.921-0.6,11.882-0.655c1.414-0.019,2.576,1.112,2.595,2.526
		c0.019,1.414-1.112,2.575-2.525,2.594c-3.819,0.052-7.674,0.265-11.456,0.631c-0.29,0.028-0.583,0.006-0.865-0.065
		L1153.692,666.119z"/>
	<path id="Path_98" fill="#DFE5EA" d="M1623.49,803.869v217.699c0,0.266-0.012,0.529-0.025,0.809c0,0.125-0.014,0.252-0.025,0.379
		s-0.012,0.238-0.025,0.363c0,0.053-0.012,0.102-0.012,0.152c-0.012,0.088-0.025,0.164-0.039,0.24
		c-0.012,0.188-0.051,0.377-0.076,0.566c-0.023,0.191-0.063,0.367-0.1,0.543c-0.014,0.09-0.035,0.178-0.063,0.266
		c0,0.068-0.014,0.135-0.037,0.199c-0.016,0.09-0.037,0.178-0.064,0.266c-0.037,0.164-0.088,0.326-0.125,0.479
		c-0.004,0.031-0.012,0.061-0.027,0.088c-0.088,0.277-0.162,0.555-0.264,0.82c0.002,0.014-0.004,0.027-0.012,0.037
		c-0.051,0.139-0.102,0.279-0.152,0.4c-0.053,0.121-0.1,0.24-0.139,0.354c-0.018,0.031-0.029,0.064-0.039,0.1
		c-0.152,0.34-0.299,0.693-0.479,1.021c-0.051,0.1-0.113,0.227-0.178,0.34c-0.063,0.111-0.125,0.215-0.188,0.328
		c-0.064,0.111-0.115,0.215-0.189,0.314c-0.127,0.215-0.266,0.43-0.4,0.633c-0.088,0.139-0.178,0.252-0.252,0.379
		c-0.215,0.275-0.416,0.553-0.643,0.818c-0.164,0.201-0.328,0.391-0.492,0.568c-0.164,0.188-0.34,0.365-0.518,0.541
		c-0.074,0.088-0.164,0.164-0.252,0.252c-0.072,0.078-0.152,0.15-0.238,0.215c-0.09,0.088-0.189,0.176-0.291,0.264
		c-0.023,0.025-0.063,0.051-0.088,0.076c-0.24,0.215-0.492,0.416-0.744,0.602c-0.027,0.016-0.053,0.037-0.076,0.063
		c-0.199,0.139-0.398,0.289-0.617,0.428c-0.074,0.053-0.139,0.102-0.199,0.141c-0.113,0.074-0.229,0.15-0.34,0.215
		c-0.09,0.061-0.182,0.117-0.279,0.164c-0.096,0.063-0.197,0.123-0.299,0.176c-0.709,0.404-1.451,0.746-2.219,1.023
		c-0.051,0.012-0.09,0.037-0.141,0.049s-0.113,0.039-0.164,0.051c-0.176,0.064-0.354,0.127-0.541,0.178
		c-0.314,0.1-0.631,0.176-0.945,0.252l-0.492,0.113c-0.105,0.023-0.209,0.039-0.316,0.049c-0.125,0.027-0.264,0.053-0.391,0.076
		c-0.025,0-0.037,0-0.049,0.014c-0.102,0.012-0.201,0.025-0.316,0.037c-0.049,0-0.1,0.014-0.15,0.014l-0.277,0.039
		c-0.051,0-0.1,0.012-0.164,0.012l-0.58,0.037c-0.279,0.014-0.555,0.025-0.832,0.025h-384.632c-0.277,0-0.555-0.012-0.832-0.025
		l-0.58-0.037c-0.216-0.014-0.431-0.039-0.643-0.076c-0.123-0.01-0.245-0.025-0.366-0.051c-0.3-0.037-0.605-0.1-0.9-0.164
		c-0.085-0.014-0.169-0.035-0.252-0.063c-0.315-0.076-0.631-0.152-0.946-0.252c-0.188-0.063-0.366-0.113-0.542-0.178
		c-0.842-0.291-1.661-0.65-2.447-1.072l-0.568-0.34c-0.214-0.127-0.429-0.266-0.631-0.4c-1.244-0.842-2.361-1.855-3.317-3.014
		c-0.227-0.268-0.441-0.545-0.643-0.834c-0.698-0.959-1.278-2-1.729-3.1c-0.1-0.252-0.2-0.529-0.3-0.793
		c-0.1-0.266-0.177-0.543-0.265-0.82c-0.088-0.279-0.151-0.555-0.214-0.834c-0.063-0.277-0.114-0.516-0.164-0.781
		c-0.012-0.039-0.012-0.088-0.025-0.127c-0.038-0.252-0.076-0.516-0.1-0.768c-0.011-0.02-0.016-0.041-0.013-0.064
		c-0.025-0.199-0.038-0.391-0.05-0.592c-0.038-0.391-0.05-0.781-0.05-1.184V803.865c-0.007-4.654,2.076-9.066,5.675-12.02
		c0.031-0.027,0.064-0.053,0.1-0.076l0.807-0.617c2.625-1.869,5.77-2.869,8.992-2.863h384.62c0.371-0.002,0.74,0.014,1.109,0.05
		c0.066-0.009,0.135-0.003,0.201,0.013c0.352,0.025,0.719,0.063,1.059,0.114l0.24,0.038c0.299,0.051,0.604,0.113,0.898,0.189
		c0.078,0.01,0.154,0.027,0.229,0.049c0.365,0.09,0.719,0.189,1.072,0.301c0.328,0.1,0.668,0.227,0.982,0.354
		c0.453,0.18,0.896,0.387,1.324,0.619c0.242,0.113,0.479,0.238,0.707,0.377c0.404,0.227,0.791,0.479,1.16,0.758
		c0.012-0.014,0.012,0,0.012,0l0.809,0.617c0.035,0.023,0.068,0.049,0.1,0.076c0.213,0.164,0.4,0.342,0.592,0.518
		c0.152,0.127,0.291,0.266,0.43,0.4c0.434,0.418,0.838,0.865,1.211,1.337c0.176,0.214,0.34,0.429,0.492,0.644
		c0.66,0.9,1.213,1.873,1.652,2.899c0.125,0.278,0.24,0.567,0.352,0.856c0,0.014,0.014,0.025,0.014,0.039
		c0.172,0.467,0.318,0.941,0.441,1.424c0.063,0.24,0.113,0.468,0.164,0.707c0.037,0.189,0.076,0.365,0.1,0.555
		s0.063,0.379,0.088,0.568c0.037,0.225,0.063,0.453,0.076,0.681c0.025,0.192,0.037,0.386,0.037,0.579
		C1623.479,803.326,1623.49,803.603,1623.49,803.869z"/>
	<path id="Path_99" fill="#250951" d="M1622.557,798.546h-413.905c0.953-2.617,2.591-4.932,4.742-6.7
		c0.031-0.028,0.064-0.053,0.1-0.075l0.807-0.617l191.762-145.566c5.638-4.289,13.445-4.289,19.082,0l191.754,145.568
		c0.012-0.013,0.012,0,0.012,0l0.807,0.619c0.035,0.021,0.068,0.047,0.1,0.074c0.215,0.164,0.4,0.341,0.594,0.518
		c0.15,0.125,0.289,0.264,0.428,0.399c0.434,0.419,0.838,0.864,1.211,1.337c0.178,0.215,0.34,0.428,0.492,0.643
		c0.66,0.9,1.213,1.874,1.652,2.9c0.125,0.277,0.24,0.568,0.354,0.857C1622.545,798.521,1622.557,798.535,1622.557,798.546z"/>
	<path id="Rectangle_58" fill="#FFFFFF" d="M1338.454,670.196h149.169c58.551,0,106.016,47.465,106.016,106.017v249.6l0,0h-361.201
		l0,0v-249.6C1232.438,717.661,1279.903,670.196,1338.454,670.196z"/>
	<path id="Rectangle_59" fill="#E8DAF7" d="M1281.773,732.491h262.532c4.529,0,8.201,3.671,8.201,8.2l0,0l0,0
		c0,4.529-3.672,8.2-8.201,8.2l0,0h-262.532c-4.528,0-8.2-3.671-8.2-8.2l0,0C1273.573,736.162,1277.245,732.491,1281.773,732.491z"
		/>
	<path id="Rectangle_60" fill="#E8DAF7" d="M1281.773,767.517h262.532c4.529,0,8.201,3.672,8.201,8.199l0,0l0,0
		c0,4.529-3.672,8.201-8.201,8.201l0,0h-262.532c-4.528,0-8.2-3.672-8.2-8.201l0,0
		C1273.573,771.189,1277.245,767.517,1281.773,767.517z"/>
	<path id="Rectangle_61" fill="#E8DAF7" d="M1281.773,802.542h262.532c4.529,0,8.201,3.672,8.201,8.201l0,0l0,0
		c0,4.527-3.672,8.199-8.201,8.199l0,0h-262.532c-4.528,0-8.2-3.672-8.2-8.199l0,0
		C1273.573,806.214,1277.245,802.542,1281.773,802.542z"/>
	<path id="Rectangle_62" fill="#E8DAF7" d="M1281.773,837.57h262.532c4.529,0,8.201,3.67,8.201,8.199l0,0l0,0
		c0,4.529-3.672,8.199-8.201,8.199l0,0h-262.532c-4.528,0-8.2-3.67-8.2-8.199l0,0C1273.573,841.24,1277.245,837.57,1281.773,837.57z
		"/>
	<path id="Rectangle_63" fill="#E8DAF7" d="M1281.773,872.595h262.532c4.529,0,8.201,3.672,8.201,8.199l0,0l0,0
		c0,4.529-3.672,8.201-8.201,8.201l0,0h-262.532c-4.528,0-8.2-3.672-8.2-8.201l0,0
		C1273.573,876.267,1277.245,872.595,1281.773,872.595z"/>
	<path id="Path_100" fill="#250951" d="M1415.612,918.562v0.012c-0.631,0.684-1.352,1.277-2.144,1.766l-189.315,116.811h-0.857
		c-1.53,0.006-3.052-0.219-4.515-0.668c-0.2-0.063-0.4-0.127-0.593-0.189c-2.464-0.852-4.673-2.313-6.419-4.25
		c-0.164-0.176-0.328-0.365-0.492-0.566c-0.479-0.576-0.914-1.188-1.3-1.828c-0.139-0.217-0.252-0.43-0.378-0.645
		c-0.126-0.215-0.239-0.455-0.34-0.682c-1.015-2.104-1.541-4.41-1.539-6.746V803.875c-0.007-4.654,2.076-9.066,5.675-12.02
		c0.031-0.027,0.064-0.053,0.1-0.076l0.807-0.617c2.625-1.869,5.769-2.869,8.992-2.863h3.556l16.623,10.253l153.232,94.55
		l5.765,3.557l11,6.785c0.792,0.488,1.513,1.082,2.144,1.766v0.012C1419.031,909.013,1419.031,914.773,1415.612,918.562z"/>
	<path id="Path_101" fill="#250951" d="M1623.49,803.869v217.699c0,0.266-0.012,0.529-0.023,0.809c0,0.125-0.014,0.252-0.025,0.379
		s-0.012,0.238-0.025,0.363c0,0.053-0.012,0.102-0.012,0.152c-0.014,0.088-0.025,0.164-0.037,0.24
		c-0.014,0.188-0.051,0.377-0.076,0.566c-0.025,0.191-0.063,0.367-0.1,0.543c0,0.025-0.014,0.063-0.014,0.088
		c-0.012,0.061-0.029,0.119-0.051,0.178c0,0.068-0.014,0.135-0.037,0.199c-0.016,0.09-0.037,0.178-0.064,0.266
		c-0.037,0.164-0.074,0.314-0.125,0.479c-0.002,0.029-0.012,0.061-0.025,0.088c-0.076,0.277-0.164,0.555-0.266,0.82
		c0.002,0.014-0.002,0.027-0.012,0.037c-0.051,0.139-0.09,0.266-0.152,0.4c-0.039,0.113-0.088,0.227-0.139,0.354
		c-0.014,0.031-0.027,0.064-0.037,0.1c-0.15,0.34-0.301,0.693-0.479,1.021c-0.053,0.1-0.115,0.227-0.178,0.34
		c-0.063,0.111-0.127,0.215-0.189,0.328c-0.063,0.111-0.113,0.215-0.189,0.314c-0.127,0.215-0.266,0.43-0.4,0.633
		c-0.088,0.139-0.176,0.252-0.252,0.379c-0.213,0.289-0.428,0.553-0.645,0.818c-0.164,0.201-0.326,0.391-0.49,0.568
		c-0.164,0.188-0.342,0.365-0.518,0.541c-0.076,0.088-0.164,0.164-0.252,0.252c-0.074,0.078-0.154,0.15-0.24,0.215
		c-0.088,0.088-0.188,0.176-0.289,0.264c-0.025,0.025-0.064,0.051-0.09,0.076c-0.238,0.215-0.492,0.416-0.744,0.602
		c-0.027,0.016-0.053,0.037-0.074,0.063c-0.201,0.139-0.4,0.289-0.619,0.428c-0.074,0.053-0.139,0.102-0.199,0.141
		c-0.113,0.074-0.227,0.15-0.342,0.215c-0.088,0.061-0.18,0.117-0.277,0.164c-0.1,0.063-0.199,0.125-0.299,0.176
		c-0.709,0.404-1.453,0.746-2.221,1.023c-0.051,0.012-0.1,0.037-0.139,0.049s-0.113,0.039-0.164,0.051
		c-0.178,0.064-0.354,0.127-0.543,0.178c-0.314,0.1-0.629,0.176-0.945,0.252l-0.492,0.113c-0.104,0.023-0.209,0.039-0.314,0.049
		c-0.127,0.027-0.266,0.053-0.391,0.076h-0.039c-0.113,0.014-0.227,0.039-0.328,0.051c-0.049,0-0.1,0.014-0.152,0.014
		c-0.088,0.014-0.176,0.025-0.275,0.039c-0.053,0-0.102,0.012-0.164,0.012l-0.582,0.037c-0.277,0.014-0.555,0.025-0.832,0.025
		h-0.857L1417.75,920.324c-0.791-0.484-1.509-1.08-2.133-1.766v-0.012c-3.431-3.787-3.431-9.559,0-13.344v-0.012
		c0.624-0.688,1.342-1.281,2.133-1.768l10.984-6.785l5.764-3.557l153.244-94.549l16.623-10.254h3.557
		c0.371-0.002,0.742,0.015,1.109,0.051c0.068-0.008,0.135-0.004,0.201,0.013c0.354,0.024,0.719,0.063,1.061,0.114l0.238,0.037
		c0.301,0.052,0.607,0.115,0.9,0.189c0.078,0.012,0.152,0.027,0.227,0.051c0.367,0.088,0.721,0.188,1.072,0.299
		c0.328,0.102,0.668,0.229,0.984,0.354c0.453,0.181,0.895,0.387,1.324,0.619c0.242,0.113,0.479,0.24,0.707,0.378
		c0.402,0.226,0.791,0.479,1.16,0.757c0.012-0.013,0.012,0,0.012,0l0.807,0.618c0.035,0.022,0.068,0.048,0.1,0.075
		c0.215,0.164,0.4,0.342,0.592,0.52c0.152,0.125,0.291,0.264,0.43,0.398c0.434,0.42,0.838,0.865,1.211,1.338
		c0.176,0.214,0.34,0.428,0.492,0.643c0.66,0.9,1.213,1.873,1.652,2.9c0.125,0.277,0.24,0.566,0.354,0.857
		c0,0.012,0.012,0.023,0.012,0.037c0.172,0.467,0.32,0.943,0.441,1.426c0.063,0.24,0.113,0.467,0.164,0.705
		c0.037,0.189,0.076,0.365,0.1,0.555c0.025,0.191,0.063,0.379,0.088,0.568c0.037,0.227,0.063,0.453,0.076,0.682
		c0.025,0.191,0.037,0.386,0.039,0.58C1623.479,803.326,1623.49,803.603,1623.49,803.869z"/>
	<path id="Path_102" opacity="0.29" fill="#474747" enable-background="new    " d="M1623.49,1018.626v2.264
		c0,8.979-6.975,16.258-15.576,16.258h-384.62c-8.6,0-15.575-7.279-15.575-16.258v-2.264l197.828-130.158
		c6.091-4.039,14.009-4.039,20.099,0L1623.49,1018.626z"/>
	<path id="Path_103" fill="#2D1659" d="M1623.49,1019.404v2.17c0,8.602-6.973,15.574-15.576,15.574h-384.62
		c-8.602,0-15.574-6.973-15.575-15.574v-2.17l197.828-124.693c6.141-3.869,13.958-3.869,20.099,0L1623.49,1019.404z"/>
	<path id="Rectangle_64" fill="#250951" d="M1281.773,697.465h112.873c4.528,0,8.2,3.671,8.2,8.2l0,0c0,4.529-3.672,8.2-8.2,8.2
		h-112.873c-4.528,0-8.2-3.671-8.2-8.2l0,0C1273.573,701.136,1277.245,697.465,1281.773,697.465z"/>
	<path id="Path_104" opacity="0.1" fill="#232323" enable-background="new    " d="M1317.153,591.264l-204.307,27.261l49.533,37.57
		l0.776,69.149l42.684-36.256l23.985,18.085L1317.153,591.264z"/>
	<path id="Path_105" fill="#2D1659" d="M1167.612,721.05l-1.133-101.007l155.132-32.973L1167.612,721.05z"/>
	<path id="Path_106" fill="#250951" d="M1167.172,652.156c0.785-0.395,154.439-65.085,154.439-65.085l-204.307,27.261
		L1167.172,652.156z"/>
	<path id="Path_107" fill="#260E60" d="M1184.107,665.047l-16.495,56l70.747-60.093L1184.107,665.047z"/>
	<path id="Path_108" fill="#250951" d="M1184.107,665.048l50.174,37.831l87.33-115.809L1184.107,665.048z"/>
	<circle id="Ellipse_14" fill="#2D1659" cx="1505.561" cy="623.544" r="17.896"/>
	<circle id="Ellipse_15" fill="#2D1659" cx="1390.235" cy="416.756" r="9.756"/>
	<circle id="Ellipse_16" fill="#2D1659" cx="1814.506" cy="845.437" r="10.932"/>
	<circle id="Ellipse_17" fill="#2D1659" cx="954.316" cy="687.169" r="13.798"/>
	<circle id="Ellipse_18" fill="#2D1659" cx="1073.598" cy="934.406" r="9.27"/>
	<circle id="Ellipse_19" fill="#2D1659" cx="1868.002" cy="587.071" r="28.23"/>
	<circle id="Ellipse_20" fill="#BCA7D8" cx="1295.398" cy="518.667" r="27.137"/>
	<circle id="Ellipse_21" fill="#BCA7D8" cx="1825.439" cy="956.115" r="27.137"/>
</g>
</svg>
