<svg xmlns="http://www.w3.org/2000/svg" width="44" height="44" viewBox="0 0 44 44">
  <g id="Group_37" data-name="Group 37" transform="translate(-405 -832)">
    <path id="Path_432" data-name="Path 432" d="M559.147-195.6v-11.282h-2.976v-4.257h2.971c0-.653,0-1.269,0-1.884a5.369,5.369,0,0,1,.539-2.437,4.628,4.628,0,0,1,3.434-2.5,16.431,16.431,0,0,1,2.388-.229c.861-.038,1.725-.009,2.611-.009v4.253c-.46,0-.9-.005-1.343,0-.7.01-1.409.02-2.112.044a.5.5,0,0,0-.517.521c-.016.728,0,1.456,0,2.232h4l-.49,4.262h-3.989V-195.6Z" transform="translate(-134.784 1060.697)" fill="#083d8b" stroke="#083d8b" stroke-width="1"/>
    <g id="Ellipse_22" data-name="Ellipse 22" transform="translate(405 832)" fill="none" stroke="#083d8b" stroke-width="0.5">
      <circle cx="22" cy="22" r="22" stroke="none"/>
      <circle cx="22" cy="22" r="21.75" fill="none"/>
    </g>
  </g>
</svg>
