<?xml version="1.0" encoding="utf-8"?>
<!-- Generator: Adobe Illustrator 16.0.0, SVG Export Plug-In . SVG Version: 6.00 Build 0)  -->
<!DOCTYPE svg PUBLIC "-//W3C//DTD SVG 1.1//EN" "http://www.w3.org/Graphics/SVG/1.1/DTD/svg11.dtd">
<svg version="1.1" id="Layer_1" xmlns="http://www.w3.org/2000/svg" xmlns:xlink="http://www.w3.org/1999/xlink" x="0px" y="0px"
	 width="781.4px" height="1289.7px" viewBox="0 0 781.4 1289.7" enable-background="new 0 0 781.4 1289.7" xml:space="preserve">
<g id="Group_35" transform="translate(616.934 154.786)">
	<path id="Path_91" fill="#250951" d="M-435.4,79.2c201.7,189.6,257.7,73.9,406.2-4.3C74,35.4,211.4,184,148.7,316.2
		c-142.6,300.5-47,309.6-72.899,517.7c-10.9,87.699-60.9,154.699-125,169.301C-260.9,1051.4-510.4,663.099-579.8,424.1
		C-663,156.6-574.1-72.5-435.4,79.2z"/>
	<path id="Path_434" fill="none" stroke="#250951" stroke-width="0.9999" stroke-miterlimit="3.9998" d="M-440.4,108.9
		c201.7,189.6,257.7,73.9,406.2-4.3C69.1,65.1,206.4,213.8,143.7,345.9C1.2,646.4,96.8,655.599,70.9,863.701
		C59.9,951.3,10,1018.4-54.1,1033c-211.7,48.201-461.2-340.1-530.6-579.1C-668,186.3-579.1-42.8-440.4,108.9z"/>
</g>
</svg>
