<?xml version="1.0" encoding="utf-8"?>
<!-- Generator: Adobe Illustrator 16.0.0, SVG Export Plug-In . SVG Version: 6.00 Build 0)  -->
<!DOCTYPE svg PUBLIC "-//W3C//DTD SVG 1.1//EN" "http://www.w3.org/Graphics/SVG/1.1/DTD/svg11.dtd">
<svg version="1.1" id="Layer_1" xmlns="http://www.w3.org/2000/svg" xmlns:xlink="http://www.w3.org/1999/xlink" x="0px" y="0px"
	 width="529.6px" height="916.2px" viewBox="0 0 529.6 916.2" enable-background="new 0 0 529.6 916.2" xml:space="preserve">
<g id="Group_36" transform="translate(-1451.116 33.409)">
	<path id="Path_433" fill="#E8DAF7" d="M1455.6,214.9c-5.7,46-10.7,94,16.1,134.9c26.8,41,64.5,66.6,101.1,89.5
		c36.6,22.9,74.6,45.6,104.2,83.4c30.4,38.699,48.4,88.799,69.4,135.699s48.399,94.9,86.3,116.301c47.7,27,99.2,0.5,120.1-50.201
		c20.9-50.699,15.5-119.299-3.6-181.199s-50.7-118.8-82.6-174c-31.9-55.3-64.801-110.6-87.301-171.4
		c-18.3-49.3-30.899-104.3-63.2-142.1c-36.1-42.3-87.5-49.7-126.9-33.2s-73.4,47.6-98.3,87.9
		C1477.5,132.2,1460.2,177.5,1455.6,214.9z"/>
	<path id="Path_435" fill="none" stroke="#250951" d="M1470.1,229.6c-5.7,46-10.7,94,16.1,134.9c26.8,41,64.5,66.599,101.1,89.5
		s74.6,45.6,104.2,83.4c30.4,38.699,48.4,88.801,69.4,135.699c21,46.9,48.399,94.9,86.3,116.301c47.7,27,99.2,0.5,120.1-50.199
		c20.9-50.701,15.5-119.301-3.6-181.201s-50.7-118.799-82.6-174c-31.9-55.3-64.801-110.6-87.301-171.4
		c-18.3-49.3-30.899-104.3-63.2-142.1c-36.1-42.3-87.5-49.7-126.899-33.2s-73.4,47.6-98.3,87.9
		C1491.9,146.9,1474.7,192.2,1470.1,229.6z"/>
</g>
</svg>
