<?xml version="1.0" encoding="utf-8"?>
<!-- Generator: Adobe Illustrator 25.0.0, SVG Export Plug-In . SVG Version: 6.00 Build 0)  -->
<svg version="1.1" id="Layer_1" xmlns="http://www.w3.org/2000/svg" xmlns:xlink="http://www.w3.org/1999/xlink" x="0px" y="0px"
	 viewBox="0 0 188 111.9" style="enable-background:new 0 0 188 111.9;" xml:space="preserve">
<style type="text/css">
	.st0{fill:#FFFFFF;}
	.st1{fill:#A2D1E8;}
	.st2{fill:#002B70;}
	.st3{fill:none;}
</style>
<g id="Group_652" transform="translate(-1333.508 -423.436)">
	<g id="Group_626" transform="translate(1357.849 423.436)">
		<path id="Path_3138" class="st0" d="M154.6,60.3H90.7l55.8-53.2c1.7-1.6,1.7-4.2,0.1-5.9c-1.3-1.4-3.5-1.7-5.2-0.7L43.8,60.3v10.9
			h110.8V60.3z"/>
		<path id="Path_3139" class="st1" d="M144.4,13.3v6c0,1.1,0.5,2.1,1.4,2.7c-0.1,0.2-0.2,0.4-0.2,0.5c-0.2,0.5-0.5,0.9-0.9,1.3
			c-0.1,0.1-0.2,0.2-0.3,0.3l-0.1,0.1c-0.1,0.1-0.1,0.1-0.2,0.2l0,0c-0.1,0.1-0.1,0.1-0.2,0.2c-0.3,0.2-0.6,0.5-0.8,0.7
			c-1.6,1.6-2.3,3.8-1.9,6l0.1,0.5c0,0.1,0,0.1,0,0.2l0.2,0.5l0.2,0.4l0.1,0.2c0,0.1,0.1,0.1,0.1,0.2l0.2,0.3l0,0.1
			c0.1,0.1,0.1,0.2,0.2,0.3l0.1,0.1c0.1,0.1,0.2,0.2,0.2,0.3c1.3,1.7,3.2,2.7,5.3,2.8c0.1,0,0.1,0,0.2,0h0.2h0.1c0.1,0,0.2,0,0.3,0
			c0.2,0,0.4,0,0.7-0.1c0.4-0.1,0.8-0.2,1.2-0.3l0,0c0.7-0.2,1.4-0.6,2-1.1c0.5-0.5,1-1.1,1.5-1.7c0.1-0.2,0.2-0.4,0.3-0.6l0.1-0.3
			c0.4-0.8,0-1.8-0.8-2.2c-0.6-0.3-1.4-0.2-1.9,0.3l0,0c0,0-0.1,0.1-0.3,0.3l0,0l-0.1,0l-0.1,0.1l0,0l-0.1,0l-0.2,0.2
			c-0.2,0.2-0.5,0.3-0.7,0.4c-0.3,0.1-0.6,0.2-0.9,0.3l-0.1,0l-0.1,0l-1-0.1c-0.3-0.1-0.6-0.2-0.9-0.4l-0.1,0
			c-0.1,0-0.1-0.1-0.2-0.1l0,0l-0.1-0.1l-0.1-0.1l-0.1-0.1c0,0,0,0-0.1-0.1l0,0c-0.1-0.1-0.1-0.1-0.1-0.2l-0.1-0.1l0,0l-0.1-0.1
			l-0.1-0.1l0-0.1l-0.1-0.2l0-0.2c0-0.1,0-0.1,0-0.2l0-0.2l0-0.1c0-0.1,0-0.1,0-0.2c0-0.2,0-0.3,0.1-0.5l0-0.2l0,0l0-0.1
			c0-0.1,0.1-0.1,0.1-0.2c0.1-0.2,0.2-0.3,0.3-0.5l0.1-0.1l0,0l0.4-0.4c0.1-0.1,0.3-0.3,0.4-0.4l0.1-0.1l0.1-0.1
			c0.1-0.2,0.3-0.4,0.5-0.6l0,0c0.3-0.4,0.5-0.8,0.8-1.2c0.2-0.4,0.4-0.8,0.5-1.2c0.2-0.6,0.4-1.3,0.5-2c1.3-0.5,2.2-1.7,2.2-3.1v-6
			c0-1.8-1.5-3.3-3.3-3.3h-1.2C145.9,10,144.4,11.4,144.4,13.3z"/>
		<path id="Path_3140" class="st2" d="M17.2,77.5C7.7,77.5,0,85.2,0,94.7s7.7,17.2,17.2,17.2s17.2-7.7,17.2-17.2l0,0
			C34.3,85.2,26.6,77.5,17.2,77.5z M17.2,107.8c-7.2,0-13.1-5.9-13.1-13.1s5.9-13.1,13.1-13.1c7.2,0,13.1,5.9,13.1,13.1l0,0
			C30.2,101.9,24.4,107.8,17.2,107.8z"/>
		<path id="Path_3141" class="st1" d="M130.7,82.7c-6.6,0-12,5.4-12,12c0,6.6,5.4,12,12,12c6.6,0,12-5.4,12-12l0,0
			C142.7,88.1,137.4,82.7,130.7,82.7z"/>
	</g>
	<path id="Path_3142" class="st2" d="M1371.6,436.8c-4.8,0-8.6,3.9-8.6,8.6l0,0h17.3C1380.3,440.6,1376.4,436.8,1371.6,436.8z"/>
	<path id="Path_3143" class="st3" d="M1381.3,452.9h-17.5c-3.2,0-6.1,1.9-7.4,4.8l-8.2,17.6c-0.5,1.1,0,2.4,1.1,2.9
		c0.3,0.1,0.6,0.2,0.9,0.2l31.2,0.1c1.5,0,2.6-1.2,2.6-2.6c0,0,0,0,0,0v-20.3C1384,454.1,1382.8,452.9,1381.3,452.9z"/>
	<path id="Path_3144" class="st1" d="M1375,506.1c-6.6,0-12,5.4-12,12c0,6.6,5.4,12,12,12s12-5.4,12-12c0,0,0,0,0,0
		C1387,511.5,1381.6,506.1,1375,506.1z"/>
	<path id="Path_3145" class="st2" d="M1505.3,518.1c0-9.2-7.4-16.7-16.7-16.7c-9.2,0-16.7,7.4-16.7,16.7c0,9.2,7.4,16.7,16.7,16.7
		c0,0,0,0,0,0C1497.8,534.8,1505.3,527.3,1505.3,518.1z M1475.9,518.1c0-7,5.7-12.7,12.7-12.8c7,0,12.7,5.7,12.8,12.7
		c0,7-5.7,12.7-12.7,12.8c0,0,0,0,0,0C1481.6,530.8,1475.9,525.2,1475.9,518.1z"/>
	<path id="Path_3146" class="st0" d="M1513.6,496.9h-115.3v-43.3c0-3.7-3-6.8-6.8-6.8c0,0,0,0,0,0h-30.8c-4.9,0-9.4,2.9-11.3,7.4
		l-8.6,19.8c-2,4.5-3,9.3-3,14.2v19.1h-1.7c-1.5,0-2.7,1.2-2.7,2.7v6.1c0,1.5,1.2,2.7,2.7,2.7h19.4c0-0.2,0-0.5,0-0.7
		c0-10.7,8.7-19.3,19.4-19.3c10.7,0,19.3,8.7,19.3,19.3c0,0.2,0,0.5,0,0.7h74.9c0-0.2,0-0.5,0-0.7c0-10.7,8.7-19.4,19.3-19.4
		c10.7,0,19.4,8.7,19.4,19.4c0,0.2,0,0.5,0,0.7h5.7c2.9,0,5.3-2.4,5.3-5.3v-11.4C1518.9,499.3,1516.6,496.9,1513.6,496.9
		C1513.6,496.9,1513.6,496.9,1513.6,496.9z M1384,475.8c0,1.5-1.2,2.6-2.6,2.6c0,0,0,0,0,0l-31.2-0.1c-1.2,0-2.2-1-2.2-2.2
		c0-0.3,0.1-0.6,0.2-0.9l8.2-17.6c1.3-2.9,4.2-4.8,7.4-4.8h17.5c1.5,0,2.6,1.2,2.6,2.6c0,0,0,0,0,0V475.8z"/>
</g>
</svg>
