<?xml version="1.0" encoding="utf-8"?>
<!-- Generator: Adobe Illustrator 16.0.0, SVG Export Plug-In . SVG Version: 6.00 Build 0)  -->
<!DOCTYPE svg PUBLIC "-//W3C//DTD SVG 1.1//EN" "http://www.w3.org/Graphics/SVG/1.1/DTD/svg11.dtd">
<svg version="1.1" id="Layer_1" xmlns="http://www.w3.org/2000/svg" xmlns:xlink="http://www.w3.org/1999/xlink" x="0px" y="0px"
	 width="1000px" height="1000px" viewBox="0 0 1000 1000" enable-background="new 0 0 1000 1000" xml:space="preserve">
<path fill="#EEEBF2" d="M975.301,661.897c0.15-2.711,0.452-5.271,0.452-8.133c0-83.132-67.47-150.602-150.603-150.602
	c-22.892,0-44.428,5.271-63.855,14.307c0.452-4.819,0.753-9.487,0.753-14.307c0-91.115-73.795-165.061-165.06-165.061
	c-67.922,0-126.205,40.964-151.506,99.698c-17.471-7.831-36.898-12.198-57.229-12.198c-65.512,0-120.482,44.88-136.145,105.422
	c-21.687-11.446-46.386-18.072-72.741-18.072c-83.735,0-151.657,66.114-155.121,148.945H975.301z"/>
</svg>
