<?xml version="1.0" encoding="utf-8"?>
<!-- Generator: Adobe Illustrator 16.0.0, SVG Export Plug-In . SVG Version: 6.00 Build 0)  -->
<!DOCTYPE svg PUBLIC "-//W3C//DTD SVG 1.1//EN" "http://www.w3.org/Graphics/SVG/1.1/DTD/svg11.dtd">
<svg version="1.1" id="Layer_1" xmlns="http://www.w3.org/2000/svg" xmlns:xlink="http://www.w3.org/1999/xlink" x="0px" y="0px"
	 width="1000px" height="1000px" viewBox="0 0 1000 1000" enable-background="new 0 0 1000 1000" xml:space="preserve">
<g>
	<path fill="#37226B" d="M542.752,954.862c-8.685-31.987-7.828-85.688,2.264-116.575c9.725-29.725,20.184-69.479,45.993-104.281
		l-35.29,7.829c-14.557,38.654-33.64,70.642-39.205,70.642c-9.541,0-21.896-59.571-28.44-77.614l-32.354,3.792
		c41.59,36.575,42.019,123.119,27.768,183.731c-14.313,60.55-32.783,65.32-27.156,70.887c5.627,5.627,16.392-2.141,37.859-2.508
		c30.826-0.551,60.551,5.627,72.844,3.364C579.144,991.865,549.725,980.795,542.752,954.862z"/>
	<g>
		<path fill="#250951" d="M567.384,994.01c12.345-2.321-17.126-13.255-24.281-39.093c-8.833-31.947-8.228-85.65,1.72-116.584
			c6.813-21.256,14.028-47.589,26.936-73.644l-33.868,16.672c-9.515,18.821-18.265,31.34-21.749,31.355
			c0.075,16.269-10.744,96.443-1.637,134.505c5.363,22.237,12.529,37.495,22.66,45.827C550.32,994.149,561.09,995.14,567.384,994.01
			z"/>
	</g>
	<path fill="#E8DAF7" d="M611.376,235.902c3.303-8.44,5.138-17.615,5.138-27.217c0-26.361-13.7-49.603-34.495-63.303
		c0.55-4.037,0.856-8.196,0.856-12.355c0-34.189-18.654-63.608-45.443-76.942c0.366-2.324,0.55-4.709,0.55-7.156
		c0-24.404-17.981-44.22-40.122-44.22c-22.202,0-40.122,19.816-40.122,44.22c0,5.321,0.917,10.397,2.446,15.168
		c-15.046,11.682-26.116,28.991-30.581,49.174c-22.324,4.282-39.144,23.547-39.144,46.667c0,12.11,4.709,23.18,12.293,31.621
		c-11.682,10.52-19.021,25.627-19.021,42.385c0,6.85,1.285,13.333,3.486,19.45c-31.56,11.865-53.944,41.835-53.944,76.942
		c0,9.48,1.651,18.593,4.648,27.095c-13.64,18.593-21.651,41.223-21.651,65.626c0,63.12,53.455,114.313,119.388,114.313
		s119.389-51.192,119.389-114.313c0-14.617-2.875-28.563-8.073-41.406c3.792,0.489,7.706,0.795,11.621,0.795
		c46.422,0,84.098-36.881,84.098-82.385C642.691,274.067,630.459,250.948,611.376,235.902z"/>
	<g>
		<path fill="#E8DAF7" d="M453.7,218.532c6.361,36.024,45.688,63.731,93.272,63.731c32.049,0,60.367-12.6,77.37-31.866
			c-4.159-5.382-8.93-10.275-14.313-14.557c3.303-8.44,5.138-17.614,5.138-27.217c0-26.361-13.7-49.603-34.495-63.303
			c0.551-4.037,0.856-8.196,0.856-12.355c0-27.645-12.232-52.171-31.07-67.584c-1.407-0.612-2.753-1.162-4.221-1.59
			c0.062-0.489,0.123-0.979,0.184-1.468c-3.303-2.324-6.728-4.465-10.336-6.239c0.367-2.324,0.55-4.709,0.55-7.156
			c0-24.404-17.981-44.22-40.122-44.22c-22.202,0-40.122,19.816-40.122,44.22c0,5.321,0.917,10.397,2.446,15.168
			c-15.046,11.682-26.116,28.991-30.581,49.174c-22.324,4.282-39.144,23.547-39.144,46.667c0,12.11,4.709,23.18,12.354,31.621
			c-4.281,3.854-7.951,8.318-10.948,13.272c11.377,10.52,26.545,17.003,43.242,17.003C440.673,221.773,447.4,220.55,453.7,218.532z"
			/>
	</g>
	<path fill="#E8DAF7" d="M390.275,253.7c0,25.688,22.324,46.544,49.908,46.544c27.522,0,49.908-20.795,49.908-46.544
		c0-25.688-22.324-46.544-49.908-46.544S390.275,228.012,390.275,253.7z"/>
	<g>
		<path fill="#E8DAF7" d="M357.003,384.22c-2.997-8.501-4.648-17.615-4.648-27.095c0-35.107,22.386-65.015,53.945-76.942
			c-2.202-6.055-3.486-12.6-3.486-19.45c0-16.758,7.34-31.865,19.021-42.385c-7.646-8.379-12.294-19.45-12.294-31.621
			c0-23.12,16.82-42.385,39.144-46.667c4.465-20.183,15.535-37.492,30.581-49.174c-1.59-4.709-2.446-9.786-2.446-15.107
			c0-24.404,17.981-44.22,40.122-44.22c6.605,0,12.845,1.774,18.35,4.893c-4.894-18.349-20.245-31.804-38.532-31.804
			c-22.202,0-40.123,19.816-40.123,44.22c0,5.321,0.918,10.397,2.446,15.168c-15.045,11.682-26.115,28.991-30.58,49.174
			c-22.324,4.281-39.145,23.547-39.145,46.667c0,12.11,4.71,23.18,12.294,31.621c-11.682,10.52-19.021,25.627-19.021,42.385
			c0,6.85,1.284,13.333,3.486,19.45c-31.56,11.865-53.945,41.834-53.945,76.942c0,9.48,1.651,18.593,4.648,27.095
			c-13.639,18.593-21.651,41.224-21.651,65.627c0,30.825,12.783,58.838,33.517,79.389c-8.501-15.719-13.333-33.578-13.333-52.478
			C335.352,425.443,343.364,402.813,357.003,384.22z"/>
	</g>
	<path fill="#E8DAF7" d="M703.73,516.208c3.119-6.911,4.894-14.557,4.894-22.63c0-21.896-12.845-40.734-31.376-49.541
		c1.406-4.894,2.263-10.092,2.263-15.475c0-20.061-10.826-37.553-26.851-47.156c7.034-11.009,11.193-24.037,11.193-38.043
		c0-39.021-31.621-70.581-70.643-70.581c-36.697,0-66.85,28.012-70.275,63.792c-21.957,7.156-37.736,26.789-37.736,49.847
		c0,1.224,0.122,2.447,0.183,3.67c-29.052,8.746-50.274,35.719-50.274,67.584c0,39.021,31.62,70.643,70.642,70.643
		c0.062,0,0.122,0,0.184,0c6.851,15.779,19.267,28.563,34.802,35.841c-0.184,2.263-0.307,4.465-0.307,6.728
		c0,50.153,40.673,90.826,90.826,90.826c50.152,0,90.825-40.673,90.825-90.826C722.079,550.397,715.229,531.438,703.73,516.208z"/>
	<g>
		<path fill="#E8DAF7" d="M548.624,461.529c18.409-0.856,34.984-9.419,46.85-22.691c8.318,23.854,34.007,41.284,64.404,41.284
			c15.901,0,30.52-4.771,42.079-12.782c-5.565-10.153-14.189-18.349-24.709-23.303c1.406-4.894,2.263-10.092,2.263-15.475
			c0-20.061-10.826-37.553-26.851-47.156c7.034-11.009,11.193-24.037,11.193-38.043c0-39.021-31.621-70.581-70.643-70.581
			c-36.697,0-66.85,28.012-70.275,63.792c-21.957,7.156-37.736,26.789-37.736,49.847c0,1.224,0.122,2.447,0.183,3.67
			c-29.052,8.746-50.274,35.719-50.274,67.584c0,7.584,1.223,14.862,3.425,21.713c12.232,10.825,29.235,17.554,48.135,17.554
			C514.557,496.941,538.41,482.324,548.624,461.529z"/>
	</g>
	<g>
		<path fill="#E8DAF7" d="M506.667,417.003c-0.062-1.223-0.184-2.446-0.184-3.67c0-23.119,15.779-42.691,37.737-49.847
			c3.425-35.78,33.577-63.792,70.274-63.792c14.618,0,28.257,4.465,39.511,12.11c-11.62-23.119-35.474-39.021-63.058-39.021
			c-36.697,0-66.851,28.012-70.275,63.792c-21.957,7.156-37.737,26.789-37.737,49.847c0,1.223,0.123,2.447,0.184,3.67
			c-29.052,8.746-50.275,35.719-50.275,67.584c0,24.343,12.355,45.811,31.07,58.532c-4.771-9.541-7.522-20.245-7.522-31.621
			C456.452,452.722,477.614,425.749,506.667,417.003z"/>
	</g>
	<path fill="#E8DAF7" d="M626.544,622.019c0.918-5.138,1.407-10.397,1.407-15.78c0-50.152-40.673-90.765-90.765-90.765
		c-41.773,0-76.942,28.257-87.522,66.667c-14.19-9.174-31.07-14.495-49.236-14.495c-50.152,0-90.764,40.673-90.764,90.765
		c0,50.152,40.672,90.764,90.764,90.764c15.719,0,30.459-3.975,43.364-11.009c13.945,32.171,45.994,54.74,83.303,54.74
		c32.171,0,60.367-16.759,76.514-41.957c4.587,1.039,9.358,1.59,14.251,1.59c36.208,0,65.565-29.357,65.565-65.565
		C683.425,653.7,658.654,626.3,626.544,622.019z"/>
	<g>
		<path fill="#E8DAF7" d="M382.446,713.884c22.936,0,43.67-8.685,58.471-22.691c3.976,0.551,8.013,0.856,12.172,0.856
			c21.59,0,41.162-7.706,55.719-20.244c14.128,22.141,40.366,37.063,70.397,37.063c44.036,0,79.938-32.049,81.468-72.109
			c-9.297-7.707-20.734-13.028-33.272-14.68c0.918-5.138,1.407-10.397,1.407-15.779c0-12.905-2.691-25.199-7.584-36.33
			c-0.429-0.245-0.796-0.489-1.224-0.673c0.062-0.551,0.122-1.162,0.122-1.713c-14.557-30.765-45.811-52.049-82.141-52.049
			c-41.773,0-76.941,28.257-87.522,66.667c-14.189-9.175-31.07-14.496-49.235-14.496c-50.153,0-90.765,40.673-90.765,90.765
			c0,6.545,0.673,12.905,2.018,19.083C326.667,699.266,352.722,713.884,382.446,713.884z"/>
	</g>
	<path fill="#E8DAF7" d="M510.214,444.832c-14.862,0-28.868,3.608-41.284,9.969c-4.893-28.563-29.664-50.274-59.572-50.274
		c-33.455,0-60.55,27.095-60.55,60.55c0,0.306,0.061,0.612,0.061,0.918c-3.303-0.551-6.666-0.918-10.152-0.918
		c-33.456,0-60.551,27.095-60.551,60.551c0,27.951,19.021,51.438,44.832,58.41c11.865,36.391,45.994,62.69,86.3,62.69
		c25.504,0,48.563-10.581,65.076-27.522c11.01,4.709,23.059,7.339,35.78,7.339c50.152,0,90.825-40.673,90.825-90.825
		C601.04,485.505,560.367,444.832,510.214,444.832z"/>
	<g>
		<path fill="#E8DAF7" d="M510.03,444.832c-0.122,0-0.244,0-0.366,0c-2.875,0-5.75,0.184-8.563,0.428
			c-11.682,1.102-22.752,4.404-32.722,9.48c-4.893-28.563-29.663-50.275-59.571-50.275c-22.446,0-42.019,12.232-52.478,30.459
			c-1.651,3.18-3.058,6.422-4.22,9.847c-0.122,0-0.184-0.062-0.306-0.062c-2.264,6.361-3.548,13.212-3.548,20.307
			c0,0.306,0.062,0.611,0.062,0.917c-3.303-0.551-6.667-0.917-10.153-0.917c-20,0-37.676,9.725-48.685,24.709
			c-0.122,1.284-0.183,2.569-0.183,3.854c0,27.89,22.568,50.459,50.459,50.459c16.452,0,30.947-7.891,40.183-20.062
			c13.028,9.052,29.175,14.435,46.729,14.435c8.746,0,17.187-1.346,25.015-3.854c6.116,20.979,25.443,36.33,48.38,36.33
			c14.067,0,26.788-5.811,35.963-15.107c2.569,0.307,5.138,0.49,7.768,0.49c24.403,0,45.505-13.456,55.902-33.089
			C593.578,479.083,555.841,445.016,510.03,444.832z"/>
	</g>
	<g>
		<path fill="#E8DAF7" d="M525.627,469.48c26.973,0,51.192,11.743,67.829,30.397c-13.884-32.416-46.056-55.107-83.486-55.107
			c-13.272,0-25.872,2.875-37.248,8.013c5.872,7.645,9.97,16.697,11.682,26.544C496.759,473.089,510.765,469.48,525.627,469.48z"/>
		<path fill="#E8DAF7" d="M354.129,489.664c3.485,0,6.85,0.366,10.152,0.917c0-0.306-0.061-0.611-0.061-0.917
			c0-33.395,27.095-60.551,60.55-60.551c16.146,0,30.765,6.36,41.591,16.697c-8.013-24.037-30.582-41.346-57.31-41.346
			c-33.455,0-60.55,27.095-60.55,60.551c0,0.306,0.061,0.611,0.061,0.917c-3.303-0.551-6.666-0.917-10.152-0.917
			c-33.395,0-60.551,27.095-60.551,60.55c0,17.248,7.217,32.722,18.838,43.731c-2.019-5.994-3.119-12.416-3.119-19.083
			C293.639,516.759,320.734,489.664,354.129,489.664z"/>
	</g>
</g>
</svg>
