<?xml version="1.0" encoding="utf-8"?>
<!-- Generator: Adobe Illustrator 16.0.0, SVG Export Plug-In . SVG Version: 6.00 Build 0)  -->
<!DOCTYPE svg PUBLIC "-//W3C//DTD SVG 1.1//EN" "http://www.w3.org/Graphics/SVG/1.1/DTD/svg11.dtd">
<svg version="1.1" id="Layer_1" xmlns="http://www.w3.org/2000/svg" xmlns:xlink="http://www.w3.org/1999/xlink" x="0px" y="0px"
	 width="1000px" height="1000px" viewBox="0 0 1000 1000" enable-background="new 0 0 1000 1000" xml:space="preserve">
<g>
	<path fill="#37226B" d="M444.037,986.851c-4.465-4.037,21.039-41.285,23.303-56.147c15.106-98.227,17.614-274.312-42.813-324.709
		c-45.444-37.859-119.022-42.08-153.028-146.056l28.318,3.486c5.75,23.486,47.217,78.472,136.086,102.386
		c26.666,7.156-7.584-81.651-1.896-105.26l24.588-3.854c3.792,120.551,77.492,111.009,125.32-9.541h27.707
		c3.303,16.146-62.813,117.37,1.896,103.363c79.389-17.247,107.095-65.933,102.019-78.471l24.587,3.854
		C723.119,567.768,598.41,594.557,598.41,594.557c-51.01,38.287-44.71,110.336-44.71,161.406c0,77.676,2.508,129.908,5.016,176.392
		c1.406,25.811,32.599,47.34,26.482,54.557c-6.116,7.156-25.749,3.119-39.082,0c-17.248-4.036-32.722-5.749-63.608-1.284
		C474.435,986.728,449.052,991.376,444.037,986.851z"/>
	<g>
		<path fill="#250951" d="M585.138,986.851c6.116-7.156-25.016-28.686-26.483-54.557c-2.568-46.483-5.016-98.716-5.016-176.392
			c0-51.01-6.299-123.119,44.71-161.407c0,0,124.709-26.789,141.713-118.654l-24.588-3.854c4.71,11.621-18.96,54.557-86.055,74.374
			c-5.871,11.009-22.386,19.388-40.551,24.525c-22.69,6.361-60.489,47.829-62.385,102.08
			c-1.284,37.187,11.987,179.877,8.195,241.101c-2.263,36.697,2.141,70.581,11.315,72.722
			C559.389,989.97,579.021,994.006,585.138,986.851z"/>
	</g>
	<path fill="#E8DAF7" d="M794.067,253.211c0-58.715-51.499-106.3-115.046-106.3c-7.34,0-14.557,0.673-21.529,1.896
		c-16.514-30.887-48.746-53.272-87.095-58.227C549.908,43.242,493.395,9.174,426.789,9.174
		c-81.713,0-148.318,51.254-151.743,115.474c-57.492,5.872-102.202,50.887-102.202,105.565c0,58.716,51.498,106.239,115.045,106.239
		c16.575,0,32.354-3.242,46.605-9.113c1.651,2.813,3.486,5.566,5.383,8.196c-7.951,11.865-12.294,24.709-12.294,38.165
		c0,58.716,82.508,106.238,184.221,106.238c101.773,0,184.22-47.584,184.22-106.238c0-5.199-0.673-10.275-1.896-15.229
		C750.52,351.743,794.067,307.156,794.067,253.211z"/>
	<g>
		<path fill="#E8DAF7" d="M424.22,212.538c37.187,43.547,100.184,72.232,171.683,72.232c79.389,0,148.318-35.352,182.997-87.278
			c-20.245-30.336-56.575-50.581-97.982-50.581c-7.339,0-14.556,0.673-21.528,1.896c-16.514-30.887-48.808-53.272-87.095-58.227
			C551.805,43.242,495.291,9.174,428.686,9.174c-81.713,0-148.318,51.254-151.744,115.474
			c-42.385,4.342-77.798,29.969-93.517,65.015c36.88,26.973,86.177,43.425,140.367,43.425
			C360.244,233.089,394.495,225.627,424.22,212.538z"/>
	</g>
	<g>
		<path fill="#E8DAF7" d="M307.156,162.936c3.363-64.22,70.03-115.474,151.743-115.474c43.976,0,83.486,14.923,111.192,38.593
			c-22.08-44.954-77.003-76.881-141.406-76.881c-81.713,0-148.318,51.254-151.744,115.474
			C219.45,130.52,174.74,175.535,174.74,230.214c0,31.988,15.291,60.612,39.511,80.123c-5.933-12.844-9.297-26.973-9.297-41.835
			C204.954,213.823,249.725,168.808,307.156,162.936z"/>
	</g>
	<path fill="#E8DAF7" d="M362.079,324.648c0.796-4.587,1.162-9.235,1.162-14.006c0-49.174-42.63-89.052-95.229-89.052
		c-32.171,0-60.612,14.923-77.798,37.798c-8.807-2.997-18.226-4.648-28.012-4.648c-47.829,0-86.667,38.593-86.667,86.177
		c0,39.694,26.973,73.028,63.67,83.058c-2.08,4.954-3.181,10.275-3.181,15.779c0,28.563,29.908,51.743,66.85,51.743
		c19.755,0,37.37-6.666,49.664-17.187c12.783,3.67,26.605,5.688,41.04,5.688c63.547,0,115.046-38.594,115.046-86.177
		C408.624,365.504,390.336,340.306,362.079,324.648z"/>
	<g>
		<path fill="#E8DAF7" d="M110.826,315.107c0,38.043,30.458,68.869,68.012,68.869c20.673,0,39.205-9.358,51.682-24.159
			c16.636,22.508,46.483,37.554,80.612,37.554c36.941,0,68.93-17.615,84.465-43.303c-8.073-11.621-19.572-21.713-33.578-29.48
			c0.795-4.587,1.162-9.235,1.162-14.006c0-49.174-42.63-89.052-95.229-89.052c-32.171,0-60.612,14.923-77.798,37.798
			c-8.807-2.997-18.226-4.648-28.012-4.648c-6.85,0-13.456,0.795-19.816,2.263C123.425,269.297,110.826,290.703,110.826,315.107z"/>
	</g>
	<g>
		<path fill="#E8DAF7" d="M192.477,289.174c9.786,0,19.205,1.651,28.012,4.648c17.248-22.875,45.627-37.798,77.798-37.798
			c20.978,0,40.367,6.361,56.147,17.125c-15.107-30.458-48.073-51.56-86.361-51.56c-32.171,0-60.611,14.923-77.798,37.798
			c-8.808-2.997-18.227-4.648-28.012-4.648c-47.89,0-86.728,38.593-86.728,86.177c0,30.031,15.474,56.391,38.899,71.866
			c-5.504-11.315-8.624-23.976-8.624-37.37C105.749,327.768,144.587,289.174,192.477,289.174z"/>
	</g>
	<path fill="#E8DAF7" d="M851.621,323.181c1.284-4.954,2.018-10.092,2.018-15.413c0-36.514-31.192-66.055-69.663-66.055
		c-30.397,0-56.146,18.471-65.688,44.22c-15.229-14.984-36.085-24.159-59.082-24.159c-46.3,0-83.854,37.309-83.854,83.303
		c0,29.664,15.657,55.719,39.144,70.459c-0.244,2.324-0.428,4.648-0.428,7.033c0,36.515,31.192,66.056,69.663,66.056
		c11.988,0,23.303-2.875,33.089-7.951c21.407,10.397,47.4,16.514,75.535,16.514c72.905,0,132.049-41.162,132.049-91.927
		C924.465,369.419,894.801,338.288,851.621,323.181z"/>
	<g>
		<path fill="#E8DAF7" d="M694.74,365.504c15.474,0,30.092-2.691,43.241-7.461c18.716,17.064,46.605,27.89,77.676,27.89
			c34.802,0,65.565-13.517,83.976-34.189c-12.416-12.049-28.868-21.896-48.073-28.563c1.284-4.954,1.957-10.091,1.957-15.413
			c0-36.514-31.192-66.055-69.663-66.055c-30.397,0-56.147,18.471-65.688,44.22c-15.106-14.984-35.963-24.159-58.96-24.159
			c-26.851,0-50.703,12.539-66.056,31.988C597.921,334.006,641.59,365.504,694.74,365.504z"/>
	</g>
	<g>
		<path fill="#E8DAF7" d="M679.327,292.354c22.997,0,43.854,9.236,59.021,24.098c9.541-25.75,35.29-44.22,65.688-44.22
			c18.042,0,34.434,6.544,46.789,17.187c-8.38-27.584-35.169-47.829-66.912-47.829c-30.397,0-56.146,18.471-65.688,44.22
			c-15.168-14.862-36.024-24.037-59.021-24.037c-46.3,0-83.854,37.309-83.854,83.303c0,23.425,9.786,44.587,25.443,59.694
			c-3.425-9.052-5.321-18.838-5.321-29.052C595.474,329.664,633.027,292.354,679.327,292.354z"/>
	</g>
	<g>
		<path fill="#250951" d="M494.435,555.597c20,4.036,32.722-3.181,40.306-8.93c7.522-5.75,9.541-22.63,10.214-30.581
			c-30.581,35.902-61.835,35.719-77.003-3.854C469.786,521.529,469.235,550.52,494.435,555.597z"/>
	</g>
	<g>
		<path fill="#250951" d="M561.529,550.52c8.868,13.089,32.905,7.278,43.853,1.162c-42.813,2.997-6.238-63.18,3.915-92.782
			l-18.471,7.4C590.826,466.3,551.132,535.229,561.529,550.52z"/>
	</g>
</g>
</svg>
