<?xml version="1.0" encoding="utf-8"?>
<!-- Generator: Adobe Illustrator 16.0.0, SVG Export Plug-In . SVG Version: 6.00 Build 0)  -->
<!DOCTYPE svg PUBLIC "-//W3C//DTD SVG 1.1//EN" "http://www.w3.org/Graphics/SVG/1.1/DTD/svg11.dtd">
<svg version="1.1" id="Layer_1" xmlns="http://www.w3.org/2000/svg" xmlns:xlink="http://www.w3.org/1999/xlink" x="0px" y="0px"
	 width="1000px" height="1000px" viewBox="0 0 1000 1000" enable-background="new 0 0 1000 1000" xml:space="preserve">
<g>
	<path fill="#37226B" d="M551.376,986.851c7.4-9.542-11.56-88.686-12.6-121.529c-6.85-212.478,18.899-270.948,128.747-351.07
		l13.517-27.584c0,0-40.979,13.7-90.887,66.3c-33.334,35.106-44.221,50.092-51.927,54.923c-5.811,3.67-12.172-6.055-11.988-37.187
		c0.062-14.557,2.875-41.957,5.505-73.944c3.976-48.502,6.422-91.01,9.357-104.832l-40.979,1.407c0,0,14.618,229.725-13.455,224.159
		c-21.224-4.22-44.099-91.498-154.802-159.082l29.113,60.917c50.643,36.452,92.538,95.413,113.089,151.56
		c26.483,72.416,23.608,147.829,25.198,184.526c0.612,14.251-3.608,91.804-15.29,126.911
		C480.734,991.743,543.792,996.636,551.376,986.851z"/>
	<g>
		<path opacity="0.9" fill="#250951" enable-background="new    " d="M472.171,617.492c4.588,0.918,8.502,0.184,11.56-1.101
			c-12.966-6.911-28.012-42.263-63.853-83.67l-8.869,1.957C410.948,534.618,460.184,615.046,472.171,617.492z"/>
	</g>
	<g>
		<path fill="#250951" d="M551.376,986.851c7.4-9.542-11.56-88.686-12.6-121.529c-6.85-212.478,18.899-270.948,128.747-351.07
			l12.293-25.199l-4.159-0.244c-12.66,5.504-46.3,22.813-85.565,64.159c-18.165,19.144-29.603,32.232-37.554,41.039
			c0.489,4.71,0.429,10.948-1.162,18.349c-3.608,17.126-22.508,51.315-27.89,100.795c-5.383,49.48,2.691,201.04,2.691,227.156
			c0,16.575-1.102,43.792-4.526,51.805C535.352,992.477,548.195,990.948,551.376,986.851z"/>
	</g>
	<path fill="#E8DAF7" d="M747.584,137.981c0.122-2.385,0.245-4.771,0.245-7.217c0-66.789-54.129-120.856-120.856-120.856
		c-29.603,0-56.697,10.642-77.737,28.318c-30.275-21.835-67.522-34.74-107.829-34.74c-80.795,0-149.296,51.804-173.639,123.669
		C240.061,136.085,220,162.08,220,192.722c0,33.211,23.486,60.917,54.74,67.462C303.67,322.752,367.4,366.3,441.406,366.3
		c75.107,0,139.634-44.771,167.891-108.808c8.317,50.887,52.477,89.664,105.688,89.664c59.145,0,107.095-47.951,107.095-107.095
		C822.079,192.232,790.826,151.804,747.584,137.981z"/>
	<g>
		<path fill="#E8DAF7" d="M280.979,151.192c24.343-71.865,92.844-123.669,173.639-123.669c40.307,0,77.554,12.905,107.829,34.801
			c21.04-17.676,48.135-28.318,77.737-28.318c40.795,0,76.819,20.184,98.716,51.132C720.795,40.979,677.554,9.908,626.973,9.908
			c-29.603,0-56.697,10.642-77.737,28.318c-30.275-21.835-67.522-34.74-107.829-34.74c-80.795,0-149.296,51.804-173.639,123.669
			C240.061,136.085,220,162.08,220,192.722c0,17.003,6.177,32.538,16.392,44.526c-2.019-6.483-3.181-13.395-3.181-20.55
			C233.211,186.055,253.272,160.122,280.979,151.192z"/>
	</g>
	<path fill="#E8DAF7" d="M800.611,385.26c0,77.37-63.303,140.062-141.406,140.062c-78.104,0-141.407-62.691-141.407-140.062
		s63.303-140.061,141.407-140.061C737.309,245.26,800.611,307.951,800.611,385.26z"/>
	<path fill="#E8DAF7" d="M692.477,414.984c0,63.426-51.926,114.862-115.963,114.862S460.551,478.41,460.551,414.984
		c0-63.425,51.926-114.862,115.963-114.862S692.477,351.56,692.477,414.984z"/>
	<g>
		<path fill="#E8DAF7" d="M565.016,324.098c25.565-36.085,67.89-59.633,115.779-59.633c31.132,0,59.878,9.969,83.242,26.85
			c-25.872-28.318-63.242-46.055-104.832-46.055c-47.891,0-90.153,23.609-115.78,59.633
			c-47.951,14.128-82.936,58.042-82.936,110.091c0,39.145,19.816,73.7,49.97,94.435c-17.676-20.122-28.38-46.422-28.38-75.229
			C482.141,382.141,517.125,338.227,565.016,324.098z"/>
	</g>
	<path fill="#E8DAF7" d="M425.933,260.122c-2.202,0-4.403,0.062-6.605,0.184c-25.565-25.015-60.673-40.489-99.389-40.489
		c-78.104,0-141.406,62.691-141.406,140.062s63.303,140.061,141.406,140.061c2.202,0,4.404-0.061,6.605-0.184
		c25.566,25.016,60.673,40.489,99.389,40.489c78.104,0,141.407-62.69,141.407-140.061S504.037,260.122,425.933,260.122z"/>
	<g>
		<path fill="#E8DAF7" d="M341.529,253.395c38.776,0,73.884,15.474,99.388,40.489c2.202-0.122,4.404-0.184,6.606-0.184
			c42.936,0,77.492,12.355,103.425,42.263c-22.202-48.624-67.646-75.841-125.016-75.841c-2.202,0-4.403,0.062-6.605,0.184
			c-25.565-25.015-60.673-40.489-99.389-40.489c-78.104,0-141.406,62.691-141.406,140.062c0,34.801,12.844,66.666,34.067,91.131
			c-8.013-17.553-12.478-37.003-12.478-57.492C200.061,316.085,263.425,253.395,341.529,253.395z"/>
	</g>
</g>
</svg>
